<svg width="218" height="35" viewBox="0 0 218 35" fill="none" xmlns="http://www.w3.org/2000/svg">
<path d="M217.11 21.1376C217.48 20.5247 217.283 19.7279 216.67 19.3579L206.682 13.3288C206.069 12.9589 205.272 13.1558 204.902 13.7687C204.532 14.3816 204.729 15.1784 205.342 15.5484L214.22 20.9076L208.861 29.7857C208.491 30.3986 208.688 31.1954 209.301 31.5654C209.914 31.9354 210.711 31.7384 211.081 31.1255L217.11 21.1376ZM0.142724 1.97233C21.9962 21.2399 95.4942 51.5878 216.311 21.7261L215.689 19.2093C95.42 48.9356 22.8847 18.5669 1.85728 0.0276682L0.142724 1.97233Z" fill="#5BC7A7"/>
</svg>
