<svg width="41" height="41" viewBox="0 0 41 41" fill="none" xmlns="http://www.w3.org/2000/svg">
<g clip-path="url(#clip0_1224_1002)">
<path d="M20.5204 40.0573C31.5244 40.0573 40.445 31.1368 40.445 20.1327C40.445 9.12858 31.5244 0.208008 20.5204 0.208008C9.51628 0.208008 0.595703 9.12858 0.595703 20.1327C0.595703 31.1368 9.51628 40.0573 20.5204 40.0573Z" fill="#0B40EE"/>
<path d="M20.5218 36.0718C29.325 36.0718 36.4615 28.9354 36.4615 20.1321C36.4615 11.3288 29.325 4.19238 20.5218 4.19238C11.7185 4.19238 4.58203 11.3288 4.58203 20.1321C4.58203 28.9354 11.7185 36.0718 20.5218 36.0718Z" fill="#0B40EE"/>
<path d="M28.9652 14.8701L19.0835 24.7518L14.5918 20.2601" stroke="white" stroke-width="1.32831" stroke-linecap="round" stroke-linejoin="round"/>
</g>
<defs>
<clipPath id="clip0_1224_1002">
<rect width="39.8493" height="39.8493" fill="white" transform="translate(0.595703 0.208008)"/>
</clipPath>
</defs>
</svg>
