<svg width="24" height="24" viewBox="0 0 24 24" fill="none" xmlns="http://www.w3.org/2000/svg">
<rect width="24" height="24" rx="12" fill="#CBC7FE"/>
<path d="M17 7.375H7C6.795 7.375 6.625 7.205 6.625 7C6.625 6.795 6.795 6.625 7 6.625H17C17.205 6.625 17.375 6.795 17.375 7C17.375 7.205 17.205 7.375 17 7.375Z" fill="#292D32"/>
<path d="M14.3342 17.17C14.2692 17.3 14.1342 17.375 13.9992 17.375C13.9442 17.375 13.8842 17.36 13.8342 17.335L11.9992 16.42L10.1642 17.335C10.1142 17.36 10.0542 17.375 9.99915 17.375C9.86415 17.375 9.72915 17.3 9.66415 17.17C9.56915 16.98 9.64415 16.755 9.83415 16.665L11.6242 15.77V14.5H12.3742V15.77L14.1642 16.665C14.3542 16.755 14.4292 16.98 14.3342 17.17Z" fill="#292D32"/>
<path d="M7.5 7V13.05C7.5 14 8 14.5 8.95 14.5H15.05C16 14.5 16.5 14 16.5 13.05V7H7.5ZM14.49 10.29L12.915 11.605C12.77 11.725 12.585 11.775 12.41 11.745C12.23 11.715 12.075 11.605 11.98 11.445L11.455 10.57L9.99 11.79C9.92 11.85 9.835 11.875 9.75 11.875C9.645 11.875 9.535 11.83 9.46 11.74C9.325 11.58 9.35 11.345 9.51 11.21L11.085 9.895C11.23 9.775 11.415 9.725 11.59 9.755C11.77 9.785 11.925 9.895 12.02 10.055L12.545 10.93L14.01 9.71C14.17 9.575 14.405 9.6 14.54 9.76C14.67 9.92 14.65 10.155 14.49 10.29Z" fill="#292D32"/>
</svg>
