<svg width="590" height="443" viewBox="0 0 590 443" fill="none" xmlns="http://www.w3.org/2000/svg">
<g opacity="0.15">
<circle cx="59.5" cy="-87.498" r="528" stroke="white" stroke-width="5"/>
<path d="M504.406 -87.4988C504.406 158.212 304.992 357.405 58.9961 357.405C-187 357.405 -386.414 158.212 -386.414 -87.4988C-386.414 -333.21 -187 -532.402 58.9961 -532.402C304.992 -532.402 504.406 -333.21 504.406 -87.4988Z" stroke="white" stroke-width="5"/>
<path d="M432.451 -87.4973C432.451 119.042 265.244 286.47 58.9901 286.47C-147.263 286.47 -314.471 119.042 -314.471 -87.4973C-314.471 -294.037 -147.263 -461.465 58.9901 -461.465C265.244 -461.465 432.451 -294.037 432.451 -87.4973Z" stroke="white" stroke-width="5"/>
<circle cx="59.4999" cy="-86.4865" r="317.219" stroke="white" stroke-width="5"/>
</g>
</svg>
