<svg width="24" height="24" viewBox="0 0 24 24" fill="none" xmlns="http://www.w3.org/2000/svg">
<rect width="24" height="24" rx="12" fill="#EAEAEA"/>
<path d="M12.445 8.94043H8.555C7.7 8.94043 7 9.64043 7 10.4954V16.1754C7 16.9004 7.52 17.2104 8.155 16.8554L10.12 15.7604C10.33 15.6454 10.67 15.6454 10.875 15.7604L12.84 16.8554C13.48 17.2054 14 16.9004 14 16.1754V10.4954C14 9.64043 13.3 8.94043 12.445 8.94043Z" fill="black"/>
<path d="M17.0009 8.555V14.235C17.0009 14.96 16.4809 15.265 15.8459 14.915L14.8809 14.375C14.8009 14.33 14.7509 14.245 14.7509 14.155V10.495C14.7509 9.225 13.7159 8.19 12.4459 8.19H10.4109C10.2259 8.19 10.0959 7.995 10.1809 7.835C10.4409 7.34 10.9609 7 11.5559 7H15.4459C16.3009 7 17.0009 7.7 17.0009 8.555Z" fill="black"/>
</svg>
