<svg width="70" height="40" viewBox="0 0 70 40" fill="none" xmlns="http://www.w3.org/2000/svg">
<rect x="29.5195" y="0.199219" width="39.6" height="39.6" rx="19.8" fill="#DCFFC7"/>
<path d="M57.0191 28.6609V26.7359C57.0191 25.7149 56.6135 24.7356 55.8915 24.0136C55.1695 23.2916 54.1902 22.8859 53.1691 22.8859H45.4691C44.4481 22.8859 43.4688 23.2916 42.7468 24.0136C42.0248 24.7356 41.6191 25.7149 41.6191 26.7359V28.6609M53.1691 15.1859C53.1691 17.3122 51.4454 19.0359 49.3191 19.0359C47.1928 19.0359 45.4691 17.3122 45.4691 15.1859C45.4691 13.0596 47.1928 11.3359 49.3191 11.3359C51.4454 11.3359 53.1691 13.0596 53.1691 15.1859Z" stroke="#006FFF" stroke-width="0.99" stroke-linecap="round" stroke-linejoin="round"/>
<g clip-path="url(#clip0_1435_10907)">
<path d="M20.2805 39.7992C31.2157 39.7992 40.0805 30.9345 40.0805 19.9992C40.0805 9.06398 31.2157 0.199219 20.2805 0.199219C9.34523 0.199219 0.480469 9.06398 0.480469 19.9992C0.480469 30.9345 9.34523 39.7992 20.2805 39.7992Z" fill="#00B777"/>
<path d="M20.2795 35.8402C29.0276 35.8402 36.1195 28.7483 36.1195 20.0002C36.1195 11.252 29.0276 4.16016 20.2795 4.16016C11.5313 4.16016 4.43945 11.252 4.43945 20.0002C4.43945 28.7483 11.5313 35.8402 20.2795 35.8402Z" fill="#00B777"/>
<path d="M28.6702 14.7695L18.8503 24.5894L14.3867 20.1258" stroke="white" stroke-width="1.32" stroke-linecap="round" stroke-linejoin="round"/>
</g>
<defs>
<clipPath id="clip0_1435_10907">
<rect width="39.6" height="39.6" fill="white" transform="translate(0.480469 0.199219)"/>
</clipPath>
</defs>
</svg>
