<svg width="309" height="60" viewBox="0 0 309 60" fill="none" xmlns="http://www.w3.org/2000/svg">
<rect width="309" height="60" rx="30" fill="white"/>
<rect x="254" y="5" width="50" height="50" rx="25" fill="black"/>
<path d="M273.335 22.332V29.832C273.335 30.7161 273.686 31.5639 274.311 32.1891C274.936 32.8142 275.784 33.1654 276.668 33.1654H284.24L282.156 35.2487L283.335 36.427L287.43 32.332L283.335 28.237L282.156 29.4154L284.24 31.4987H276.668C276.226 31.4987 275.802 31.3231 275.49 31.0105C275.177 30.698 275.001 30.2741 275.001 29.832V22.332H273.335Z" fill="#C0FF72"/>
<path d="M41.08 24.4H45.454C46.714 24.4 47.824 24.67 48.784 25.21C49.756 25.738 50.5 26.482 51.016 27.442C51.544 28.39 51.808 29.476 51.808 30.7C51.808 31.924 51.544 33.016 51.016 33.976C50.5 34.924 49.756 35.668 48.784 36.208C47.824 36.736 46.714 37 45.454 37H41.08V24.4ZM45.454 34.75C46.594 34.75 47.476 34.384 48.1 33.652C48.736 32.908 49.054 31.924 49.054 30.7C49.054 29.476 48.736 28.498 48.1 27.766C47.476 27.022 46.594 26.65 45.454 26.65H43.78V34.75H45.454ZM57.7926 37.108C56.8206 37.108 55.9626 36.916 55.2186 36.532C54.4866 36.136 53.9166 35.578 53.5086 34.858C53.1126 34.138 52.9146 33.31 52.9146 32.374C52.9146 31.438 53.1126 30.61 53.5086 29.89C53.9166 29.17 54.4866 28.618 55.2186 28.234C55.9626 27.838 56.8206 27.64 57.7926 27.64C58.7646 27.64 59.6166 27.838 60.3486 28.234C61.0926 28.618 61.6626 29.17 62.0586 29.89C62.4666 30.61 62.6706 31.438 62.6706 32.374C62.6706 33.322 62.4666 34.156 62.0586 34.876C61.6626 35.584 61.0926 36.136 60.3486 36.532C59.6166 36.916 58.7646 37.108 57.7926 37.108ZM57.7926 35.038C58.5006 35.038 59.0586 34.792 59.4666 34.3C59.8866 33.808 60.0966 33.166 60.0966 32.374C60.0966 31.582 59.8866 30.94 59.4666 30.448C59.0586 29.956 58.5006 29.71 57.7926 29.71C57.0966 29.71 56.5386 29.956 56.1186 30.448C55.7106 30.94 55.5066 31.582 55.5066 32.374C55.5066 33.166 55.7106 33.808 56.1186 34.3C56.5386 34.792 57.0966 35.038 57.7926 35.038ZM62.9219 27.748H65.6039L67.4579 34.264L69.2039 27.748H71.4899L73.1819 34.282L75.0719 27.748H77.6639L74.6219 37H71.9219L70.3019 31.42L68.6459 37H65.9459L62.9219 27.748ZM83.8619 27.64C84.9419 27.64 85.8299 27.976 86.5259 28.648C87.2219 29.32 87.5699 30.43 87.5699 31.978V37H85.0319V32.122C85.0319 30.526 84.4079 29.728 83.1599 29.728C82.4999 29.728 81.9899 29.95 81.6299 30.394C81.2699 30.838 81.0899 31.462 81.0899 32.266V37H78.5519V27.748H80.7659L80.9999 28.9C81.3239 28.504 81.7139 28.198 82.1699 27.982C82.6259 27.754 83.1899 27.64 83.8619 27.64ZM89.1691 24.4H91.7071V37H89.1691V24.4ZM97.9938 37.108C97.0218 37.108 96.1638 36.916 95.4198 36.532C94.6878 36.136 94.1178 35.578 93.7098 34.858C93.3138 34.138 93.1158 33.31 93.1158 32.374C93.1158 31.438 93.3138 30.61 93.7098 29.89C94.1178 29.17 94.6878 28.618 95.4198 28.234C96.1638 27.838 97.0218 27.64 97.9938 27.64C98.9658 27.64 99.8178 27.838 100.55 28.234C101.294 28.618 101.864 29.17 102.26 29.89C102.668 30.61 102.872 31.438 102.872 32.374C102.872 33.322 102.668 34.156 102.26 34.876C101.864 35.584 101.294 36.136 100.55 36.532C99.8178 36.916 98.9658 37.108 97.9938 37.108ZM97.9938 35.038C98.7018 35.038 99.2598 34.792 99.6678 34.3C100.088 33.808 100.298 33.166 100.298 32.374C100.298 31.582 100.088 30.94 99.6678 30.448C99.2598 29.956 98.7018 29.71 97.9938 29.71C97.2978 29.71 96.7398 29.956 96.3198 30.448C95.9118 30.94 95.7078 31.582 95.7078 32.374C95.7078 33.166 95.9118 33.808 96.3198 34.3C96.7398 34.792 97.2978 35.038 97.9938 35.038ZM113.377 34.858V37H112.081C110.917 37 110.347 36.496 110.371 35.488C110.035 36.016 109.621 36.418 109.129 36.694C108.637 36.97 108.043 37.108 107.347 37.108C106.315 37.108 105.481 36.874 104.845 36.406C104.221 35.926 103.909 35.254 103.909 34.39C103.909 33.406 104.269 32.65 104.989 32.122C105.721 31.582 106.777 31.312 108.157 31.312H109.993V30.862C109.993 30.442 109.837 30.112 109.525 29.872C109.213 29.62 108.793 29.494 108.265 29.494C107.797 29.494 107.413 29.596 107.113 29.8C106.813 30.004 106.633 30.28 106.573 30.628H104.125C104.209 29.68 104.629 28.948 105.385 28.432C106.141 27.904 107.143 27.64 108.391 27.64C109.699 27.64 110.707 27.928 111.415 28.504C112.135 29.08 112.495 29.914 112.495 31.006V34.264C112.495 34.492 112.543 34.648 112.639 34.732C112.735 34.816 112.885 34.858 113.089 34.858H113.377ZM109.993 33.004H108.139C107.611 33.004 107.197 33.112 106.897 33.328C106.609 33.532 106.465 33.826 106.465 34.21C106.465 34.534 106.585 34.792 106.825 34.984C107.077 35.176 107.413 35.272 107.833 35.272C108.493 35.272 109.015 35.086 109.399 34.714C109.783 34.33 109.981 33.82 109.993 33.184V33.004ZM123.611 24.4V37H121.397L121.145 35.722C120.437 36.646 119.477 37.108 118.265 37.108C117.449 37.108 116.717 36.916 116.069 36.532C115.421 36.136 114.911 35.578 114.539 34.858C114.179 34.138 113.999 33.304 113.999 32.356C113.999 31.42 114.179 30.598 114.539 29.89C114.911 29.17 115.421 28.618 116.069 28.234C116.729 27.838 117.467 27.64 118.283 27.64C119.483 27.64 120.413 28.06 121.073 28.9V24.4H123.611ZM118.859 35.038C119.543 35.038 120.089 34.798 120.497 34.318C120.905 33.826 121.109 33.184 121.109 32.392C121.109 31.588 120.905 30.94 120.497 30.448C120.089 29.956 119.543 29.71 118.859 29.71C118.175 29.71 117.623 29.956 117.203 30.448C116.795 30.94 116.591 31.582 116.591 32.374C116.591 33.166 116.795 33.808 117.203 34.3C117.623 34.792 118.175 35.038 118.859 35.038ZM134.831 24.4C136.295 24.4 137.429 24.688 138.233 25.264C139.037 25.84 139.439 26.656 139.439 27.712C139.439 28.492 139.223 29.122 138.791 29.602C138.359 30.082 137.747 30.394 136.955 30.538C137.891 30.658 138.611 30.958 139.115 31.438C139.631 31.918 139.889 32.59 139.889 33.454C139.889 34.558 139.469 35.428 138.629 36.064C137.789 36.688 136.601 37 135.065 37H130.043V24.4H134.831ZM132.743 29.584H134.903C135.479 29.584 135.929 29.446 136.253 29.17C136.577 28.894 136.739 28.522 136.739 28.054C136.739 27.586 136.577 27.214 136.253 26.938C135.929 26.662 135.479 26.524 134.903 26.524H132.743V29.584ZM132.743 34.858H135.083C135.731 34.858 136.229 34.72 136.577 34.444C136.937 34.168 137.117 33.784 137.117 33.292C137.117 32.776 136.937 32.38 136.577 32.104C136.217 31.816 135.719 31.672 135.083 31.672H132.743V34.858ZM146 37.108C145.028 37.108 144.17 36.916 143.426 36.532C142.694 36.136 142.124 35.578 141.716 34.858C141.32 34.138 141.122 33.31 141.122 32.374C141.122 31.438 141.32 30.61 141.716 29.89C142.124 29.17 142.694 28.618 143.426 28.234C144.17 27.838 145.028 27.64 146 27.64C146.972 27.64 147.824 27.838 148.556 28.234C149.3 28.618 149.87 29.17 150.266 29.89C150.674 30.61 150.878 31.438 150.878 32.374C150.878 33.322 150.674 34.156 150.266 34.876C149.87 35.584 149.3 36.136 148.556 36.532C147.824 36.916 146.972 37.108 146 37.108ZM146 35.038C146.708 35.038 147.266 34.792 147.674 34.3C148.094 33.808 148.304 33.166 148.304 32.374C148.304 31.582 148.094 30.94 147.674 30.448C147.266 29.956 146.708 29.71 146 29.71C145.304 29.71 144.746 29.956 144.326 30.448C143.918 30.94 143.714 31.582 143.714 32.374C143.714 33.166 143.918 33.808 144.326 34.3C144.746 34.792 145.304 35.038 146 35.038ZM152.275 24.4H154.813V37H152.275V24.4ZM165.833 24.4V37H163.619L163.367 35.722C162.659 36.646 161.699 37.108 160.487 37.108C159.671 37.108 158.939 36.916 158.291 36.532C157.643 36.136 157.133 35.578 156.761 34.858C156.401 34.138 156.221 33.304 156.221 32.356C156.221 31.42 156.401 30.598 156.761 29.89C157.133 29.17 157.643 28.618 158.291 28.234C158.951 27.838 159.689 27.64 160.505 27.64C161.705 27.64 162.635 28.06 163.295 28.9V24.4H165.833ZM161.081 35.038C161.765 35.038 162.311 34.798 162.719 34.318C163.127 33.826 163.331 33.184 163.331 32.392C163.331 31.588 163.127 30.94 162.719 30.448C162.311 29.956 161.765 29.71 161.081 29.71C160.397 29.71 159.845 29.956 159.425 30.448C159.017 30.94 158.813 31.582 158.813 32.374C158.813 33.166 159.017 33.808 159.425 34.3C159.845 34.792 160.397 35.038 161.081 35.038ZM171.258 37L175.866 24.4H179.106L183.678 37H180.78L179.808 34.246H175.02L174.048 37H171.258ZM175.74 32.068H179.07L177.396 27.28L175.74 32.068ZM189.982 27.64C190.81 27.64 191.542 27.838 192.178 28.234C192.826 28.618 193.33 29.17 193.69 29.89C194.062 30.61 194.248 31.444 194.248 32.392C194.248 33.34 194.062 34.168 193.69 34.876C193.33 35.584 192.826 36.136 192.178 36.532C191.53 36.916 190.792 37.108 189.964 37.108C188.776 37.108 187.846 36.682 187.174 35.83V40.6H184.636V27.748H186.85L187.102 29.026C187.414 28.606 187.81 28.27 188.29 28.018C188.782 27.766 189.346 27.64 189.982 27.64ZM189.388 35.038C190.072 35.038 190.624 34.792 191.044 34.3C191.464 33.796 191.674 33.148 191.674 32.356C191.674 31.564 191.464 30.928 191.044 30.448C190.624 29.956 190.072 29.71 189.388 29.71C188.704 29.71 188.158 29.956 187.75 30.448C187.342 30.928 187.138 31.564 187.138 32.356C187.138 33.16 187.342 33.808 187.75 34.3C188.158 34.792 188.704 35.038 189.388 35.038ZM201.003 27.64C201.831 27.64 202.563 27.838 203.199 28.234C203.847 28.618 204.351 29.17 204.711 29.89C205.083 30.61 205.269 31.444 205.269 32.392C205.269 33.34 205.083 34.168 204.711 34.876C204.351 35.584 203.847 36.136 203.199 36.532C202.551 36.916 201.813 37.108 200.985 37.108C199.797 37.108 198.867 36.682 198.195 35.83V40.6H195.657V27.748H197.871L198.123 29.026C198.435 28.606 198.831 28.27 199.311 28.018C199.803 27.766 200.367 27.64 201.003 27.64ZM200.409 35.038C201.093 35.038 201.645 34.792 202.065 34.3C202.485 33.796 202.695 33.148 202.695 32.356C202.695 31.564 202.485 30.928 202.065 30.448C201.645 29.956 201.093 29.71 200.409 29.71C199.725 29.71 199.179 29.956 198.771 30.448C198.363 30.928 198.159 31.564 198.159 32.356C198.159 33.16 198.363 33.808 198.771 34.3C199.179 34.792 199.725 35.038 200.409 35.038Z" fill="black"/>
</svg>
