<svg width="24" height="24" viewBox="0 0 24 24" fill="none" xmlns="http://www.w3.org/2000/svg">
<rect width="24" height="24" rx="12" fill="#FEC7E8"/>
<path d="M11.9696 7.10492L10.7646 9.90992H9.55961C9.35961 9.90992 9.16461 9.92492 8.97461 9.96492L9.47461 8.76492L9.49461 8.71992L9.52461 8.63992C9.53961 8.60492 9.54961 8.57492 9.56461 8.54992C10.1446 7.20492 10.7946 6.78492 11.9696 7.10492Z" fill="#292D32"/>
<path d="M15.3655 10.0448L15.3555 10.0398C15.0555 9.95477 14.7505 9.90977 14.4405 9.90977H11.3105L12.4355 7.29477L12.4505 7.25977C12.5205 7.28477 12.5955 7.31977 12.6705 7.34477L13.7755 7.80977C14.3905 8.06477 14.8205 8.32977 15.0855 8.64977C15.1305 8.70977 15.1705 8.76477 15.2105 8.82977C15.2555 8.89977 15.2905 8.96977 15.3105 9.04477C15.3305 9.08977 15.3455 9.12977 15.3555 9.17477C15.4305 9.42977 15.4355 9.71977 15.3655 10.0448Z" fill="#292D32"/>
<path d="M15.1441 10.7602C14.9191 10.6952 14.6841 10.6602 14.4391 10.6602H9.55914C9.21914 10.6602 8.89914 10.7252 8.59914 10.8552C7.72914 11.2302 7.11914 12.0952 7.11914 13.1002V14.0752C7.11914 14.1952 7.12914 14.3102 7.14414 14.4302C7.25414 16.0202 8.10414 16.8702 9.69414 16.9752C9.80914 16.9902 9.92414 17.0002 10.0491 17.0002H13.9491C15.7991 17.0002 16.7741 16.1202 16.8691 14.3702C16.8741 14.2752 16.8791 14.1752 16.8791 14.0752V13.1002C16.8791 11.9952 16.1441 11.0652 15.1441 10.7602ZM13.2491 14.0952H12.3741V15.0002C12.3741 15.2052 12.2041 15.3752 11.9991 15.3752C11.7941 15.3752 11.6241 15.2052 11.6241 15.0002V14.0952H10.7491C10.5441 14.0952 10.3741 13.9302 10.3741 13.7202C10.3741 13.5152 10.5441 13.3452 10.7491 13.3452H11.6241V12.5002C11.6241 12.2952 11.7941 12.1252 11.9991 12.1252C12.2041 12.1252 12.3741 12.2952 12.3741 12.5002V13.3452H13.2491C13.4541 13.3452 13.6241 13.5152 13.6241 13.7202C13.6241 13.9302 13.4541 14.0952 13.2491 14.0952Z" fill="#292D32"/>
</svg>
