<svg width="366" height="107" viewBox="0 0 366 107" fill="none" xmlns="http://www.w3.org/2000/svg">
<g filter="url(#filter0_d_2939_15782)">
<rect x="19" y="7" width="328.652" height="80.8161" rx="7.18365" fill="#F8FAFC" shape-rendering="crispEdges"/>
<circle cx="59.4089" cy="47.408" r="31.4285" fill="#DCFFC7"/>
<path opacity="0.4" d="M58.1509 44.8907C61.6224 44.8907 64.4366 42.0765 64.4366 38.605C64.4366 35.1335 61.6224 32.3193 58.1509 32.3193C54.6794 32.3193 51.8652 35.1335 51.8652 38.605C51.8652 42.0765 54.6794 44.8907 58.1509 44.8907Z" fill="#006FFF"/>
<path d="M58.15 48.0342C51.8518 48.0342 46.7227 52.2582 46.7227 57.4627C46.7227 57.8147 46.9992 58.0913 47.3512 58.0913H68.9489C69.3009 58.0913 69.5774 57.8147 69.5774 57.4627C69.5774 52.2582 64.4483 48.0342 58.15 48.0342Z" fill="#006FFF"/>
<path d="M109.642 27.7657C109.557 27.4902 109.44 27.2436 109.29 27.0259C109.144 26.8048 108.967 26.6161 108.759 26.4596C108.555 26.3031 108.32 26.1858 108.055 26.1075C107.79 26.0259 107.501 25.9851 107.188 25.9851C106.627 25.9851 106.127 26.1263 105.688 26.4086C105.249 26.6909 104.904 27.1058 104.652 27.6535C104.404 28.1977 104.28 28.8609 104.28 29.6433C104.28 30.4324 104.404 31.1007 104.652 31.6483C104.9 32.196 105.246 32.6126 105.688 32.8983C106.13 33.1807 106.644 33.3218 107.229 33.3218C107.759 33.3218 108.218 33.2198 108.606 33.0157C108.997 32.8116 109.298 32.5225 109.509 32.1483C109.72 31.7708 109.826 31.3286 109.826 30.8218L110.254 30.8881H107.417V29.4086H111.657V30.6637C111.657 31.5582 111.467 32.332 111.086 32.9851C110.705 33.6381 110.181 34.1415 109.514 34.4953C108.848 34.8456 108.082 35.0208 107.218 35.0208C106.256 35.0208 105.411 34.8048 104.683 34.3728C103.958 33.9375 103.392 33.3201 102.984 32.5208C102.579 31.7181 102.377 30.7657 102.377 29.6637C102.377 28.8201 102.496 28.0667 102.734 27.4035C102.975 26.7402 103.312 26.1773 103.744 25.7147C104.176 25.2487 104.683 24.895 105.264 24.6535C105.846 24.4086 106.479 24.2861 107.162 24.2861C107.741 24.2861 108.28 24.3712 108.78 24.5412C109.28 24.7079 109.724 24.946 110.111 25.2555C110.502 25.565 110.824 25.9324 111.076 26.3575C111.327 26.7827 111.492 27.2521 111.57 27.7657H109.642ZM113.406 34.8779V27.0412H115.197V28.3473H115.278C115.421 27.895 115.666 27.5463 116.013 27.3014C116.363 27.0531 116.763 26.929 117.212 26.929C117.314 26.929 117.428 26.9341 117.554 26.9443C117.683 26.9511 117.79 26.963 117.875 26.98V28.679C117.797 28.6518 117.673 28.6279 117.503 28.6075C117.336 28.5837 117.175 28.5718 117.018 28.5718C116.681 28.5718 116.379 28.645 116.11 28.7912C115.845 28.9341 115.636 29.133 115.482 29.3882C115.329 29.6433 115.253 29.9375 115.253 30.2708V34.8779H113.406ZM121.217 35.0361C120.721 35.0361 120.273 34.9477 119.875 34.7708C119.481 34.5905 119.168 34.3252 118.937 33.9749C118.709 33.6245 118.595 33.1926 118.595 32.679C118.595 32.2368 118.676 31.8711 118.84 31.582C119.003 31.2929 119.226 31.0616 119.508 30.8881C119.79 30.7147 120.108 30.5837 120.462 30.4953C120.819 30.4035 121.188 30.3371 121.569 30.2963C122.028 30.2487 122.401 30.2062 122.687 30.1688C122.972 30.1279 123.18 30.0667 123.309 29.9851C123.442 29.9001 123.508 29.7691 123.508 29.5922V29.5616C123.508 29.1773 123.394 28.8796 123.166 28.6688C122.938 28.4579 122.61 28.3524 122.181 28.3524C121.729 28.3524 121.37 28.4511 121.105 28.6484C120.843 28.8456 120.666 29.0786 120.574 29.3473L118.85 29.1024C118.986 28.6262 119.21 28.2283 119.523 27.9086C119.836 27.5854 120.219 27.3439 120.671 27.1841C121.124 27.0208 121.624 26.9392 122.171 26.9392C122.549 26.9392 122.925 26.9834 123.299 27.0718C123.673 27.1603 124.015 27.3065 124.324 27.5106C124.634 27.7113 124.882 27.9851 125.069 28.332C125.26 28.679 125.355 29.1126 125.355 29.633V34.8779H123.579V33.8014H123.518C123.406 34.0191 123.248 34.2232 123.044 34.4136C122.843 34.6007 122.59 34.7521 122.283 34.8677C121.981 34.98 121.625 35.0361 121.217 35.0361ZM121.697 33.679C122.067 33.679 122.389 33.6058 122.661 33.4596C122.933 33.3099 123.142 33.1126 123.289 32.8677C123.438 32.6228 123.513 32.3558 123.513 32.0667V31.1432C123.455 31.1909 123.357 31.2351 123.217 31.2759C123.081 31.3167 122.928 31.3524 122.758 31.383C122.588 31.4137 122.42 31.4409 122.253 31.4647C122.086 31.4885 121.942 31.5089 121.819 31.5259C121.544 31.5633 121.297 31.6245 121.079 31.7096C120.862 31.7946 120.69 31.9137 120.564 32.0667C120.438 32.2164 120.375 32.4103 120.375 32.6483C120.375 32.9885 120.499 33.2453 120.748 33.4188C120.996 33.5922 121.312 33.679 121.697 33.679ZM130.63 35.031C129.848 35.031 129.176 34.8592 128.615 34.5157C128.057 34.1721 127.627 33.6977 127.324 33.0922C127.025 32.4834 126.875 31.7827 126.875 30.9902C126.875 30.1943 127.028 29.4919 127.334 28.8831C127.641 28.2708 128.073 27.7946 128.63 27.4545C129.192 27.1109 129.855 26.9392 130.62 26.9392C131.256 26.9392 131.819 27.0565 132.309 27.2912C132.802 27.5225 133.195 27.8507 133.488 28.2759C133.78 28.6977 133.947 29.1909 133.988 29.7555H132.222C132.151 29.3779 131.981 29.0633 131.712 28.8116C131.447 28.5565 131.091 28.429 130.646 28.429C130.268 28.429 129.936 28.531 129.651 28.7351C129.365 28.9358 129.142 29.2249 128.982 29.6024C128.826 29.98 128.748 30.4324 128.748 30.9596C128.748 31.4936 128.826 31.9528 128.982 32.3371C129.139 32.7181 129.358 33.0123 129.641 33.2198C129.926 33.4239 130.261 33.5259 130.646 33.5259C130.918 33.5259 131.161 33.4749 131.375 33.3728C131.593 33.2674 131.775 33.116 131.921 32.9188C132.067 32.7215 132.168 32.4817 132.222 32.1994H133.988C133.943 32.7538 133.78 33.2453 133.498 33.6739C133.215 34.099 132.831 34.4324 132.345 34.6738C131.858 34.9119 131.287 35.031 130.63 35.031ZM138.973 35.031C138.188 35.031 137.509 34.8677 136.938 34.5412C136.37 34.2113 135.933 33.7453 135.627 33.1432C135.32 32.5378 135.167 31.8252 135.167 31.0055C135.167 30.1994 135.32 29.4919 135.627 28.8831C135.936 28.2708 136.368 27.7946 136.922 27.4545C137.477 27.1109 138.128 26.9392 138.877 26.9392C139.36 26.9392 139.815 27.0174 140.244 27.1739C140.676 27.3269 141.057 27.565 141.387 27.8882C141.72 28.2113 141.982 28.6228 142.172 29.1228C142.363 29.6194 142.458 30.2113 142.458 30.8984V31.4647H136.035V30.2198H140.688C140.684 29.866 140.608 29.5514 140.458 29.2759C140.308 28.997 140.099 28.7776 139.831 28.6177C139.565 28.4579 139.256 28.3779 138.902 28.3779C138.524 28.3779 138.193 28.4698 137.907 28.6535C137.621 28.8337 137.399 29.0718 137.239 29.3677C137.082 29.6603 137.002 29.9817 136.999 30.332V31.4188C136.999 31.8745 137.082 32.2657 137.249 32.5922C137.416 32.9154 137.649 33.1636 137.948 33.3371C138.247 33.5072 138.598 33.5922 138.999 33.5922C139.268 33.5922 139.511 33.5548 139.729 33.48C139.946 33.4017 140.135 33.2878 140.295 33.1381C140.455 32.9885 140.575 32.8031 140.657 32.582L142.382 32.7759C142.273 33.2317 142.065 33.6296 141.759 33.9698C141.456 34.3065 141.069 34.5684 140.596 34.7555C140.123 34.9392 139.582 35.031 138.973 35.031ZM147.666 34.8779V24.429H149.559V29.23H149.686L153.763 24.429H156.074L152.033 29.1177L156.11 34.8779H153.834L150.717 30.3984L149.559 31.7657V34.8779H147.666ZM160.202 35.031C159.416 35.031 158.737 34.8677 158.166 34.5412C157.598 34.2113 157.161 33.7453 156.855 33.1432C156.549 32.5378 156.396 31.8252 156.396 31.0055C156.396 30.1994 156.549 29.4919 156.855 28.8831C157.164 28.2708 157.596 27.7946 158.151 27.4545C158.705 27.1109 159.356 26.9392 160.105 26.9392C160.588 26.9392 161.044 27.0174 161.472 27.1739C161.904 27.3269 162.285 27.565 162.615 27.8882C162.948 28.2113 163.21 28.6228 163.401 29.1228C163.591 29.6194 163.686 30.2113 163.686 30.8984V31.4647H157.263V30.2198H161.916C161.913 29.866 161.836 29.5514 161.686 29.2759C161.537 28.997 161.328 28.7776 161.059 28.6177C160.794 28.4579 160.484 28.3779 160.13 28.3779C159.753 28.3779 159.421 28.4698 159.135 28.6535C158.85 28.8337 158.627 29.0718 158.467 29.3677C158.311 29.6603 158.231 29.9817 158.227 30.332V31.4188C158.227 31.8745 158.311 32.2657 158.477 32.5922C158.644 32.9154 158.877 33.1636 159.176 33.3371C159.476 33.5072 159.826 33.5922 160.227 33.5922C160.496 33.5922 160.739 33.5548 160.957 33.48C161.174 33.4017 161.363 33.2878 161.523 33.1381C161.683 32.9885 161.804 32.8031 161.885 32.582L163.61 32.7759C163.501 33.2317 163.294 33.6296 162.987 33.9698C162.685 34.3065 162.297 34.5684 161.824 34.7555C161.351 34.9392 160.811 35.031 160.202 35.031ZM167.096 30.2861V34.8779H165.249V27.0412H167.014V28.3728H167.106C167.286 27.9341 167.574 27.5854 167.968 27.3269C168.366 27.0684 168.858 26.9392 169.443 26.9392C169.984 26.9392 170.455 27.0548 170.856 27.2861C171.261 27.5174 171.574 27.8524 171.795 28.2912C172.019 28.73 172.13 29.2623 172.126 29.8881V34.8779H170.279V30.1739C170.279 29.6501 170.143 29.2402 169.871 28.9443C169.603 28.6484 169.23 28.5004 168.754 28.5004C168.431 28.5004 168.143 28.5718 167.892 28.7147C167.643 28.8541 167.448 29.0565 167.305 29.3218C167.166 29.5871 167.096 29.9086 167.096 30.2861ZM177.917 27.0412V28.4698H173.412V27.0412H177.917ZM174.524 25.1637H176.371V32.5208C176.371 32.7691 176.409 32.9596 176.484 33.0922C176.562 33.2215 176.664 33.3099 176.79 33.3575C176.916 33.4051 177.055 33.429 177.208 33.429C177.324 33.429 177.429 33.4205 177.524 33.4034C177.623 33.3864 177.698 33.3711 177.749 33.3575L178.06 34.8014C177.961 34.8354 177.82 34.8728 177.637 34.9136C177.456 34.9545 177.235 34.9783 176.973 34.9851C176.511 34.9987 176.094 34.9289 175.723 34.7759C175.353 34.6194 175.058 34.3779 174.841 34.0514C174.626 33.7249 174.521 33.3167 174.524 32.8269V25.1637Z" fill="#101828"/>
<rect x="101.611" y="44.2861" width="17.9591" height="17.9591" rx="8.97956" fill="#EAECF0"/>
<path d="M111.503 48.8138L112.425 50.6576C112.551 50.9143 112.886 51.1605 113.169 51.2076L114.84 51.4853C115.908 51.6633 116.16 52.4386 115.39 53.2033L114.091 54.5024C113.871 54.7224 113.75 55.1467 113.818 55.4505L114.19 57.0586C114.484 58.3314 113.808 58.8238 112.682 58.1586L111.115 57.2314C110.833 57.0638 110.366 57.0638 110.078 57.2314L108.512 58.1586C107.391 58.8238 106.71 58.3262 107.004 57.0586L107.375 55.4505C107.444 55.1467 107.323 54.7224 107.103 54.5024L105.804 53.2033C105.039 52.4386 105.285 51.6633 106.354 51.4853L108.025 51.2076C108.303 51.1605 108.638 50.9143 108.764 50.6576L109.685 48.8138C110.188 47.8134 111.005 47.8134 111.503 48.8138Z" fill="#C0C0C0"/>
<path d="M130.683 51.5246C130.636 51.102 130.439 50.7746 130.094 50.5424C129.749 50.3073 129.314 50.1898 128.79 50.1898C128.415 50.1898 128.091 50.2493 127.817 50.3683C127.543 50.4844 127.331 50.6451 127.179 50.8505C127.03 51.0528 126.956 51.2835 126.956 51.5424C126.956 51.7597 127.006 51.9472 127.107 52.1049C127.212 52.2627 127.347 52.3951 127.514 52.5023C127.683 52.6064 127.865 52.6942 128.058 52.7656C128.252 52.8341 128.438 52.8906 128.616 52.9353L129.509 53.1674C129.801 53.2389 130.1 53.3356 130.407 53.4576C130.713 53.5796 130.997 53.7403 131.259 53.9397C131.521 54.1391 131.732 54.3862 131.893 54.6808C132.057 54.9755 132.139 55.3281 132.139 55.7388C132.139 56.2567 132.005 56.7165 131.737 57.1183C131.472 57.5201 131.087 57.8371 130.581 58.0692C130.078 58.3013 129.469 58.4174 128.755 58.4174C128.07 58.4174 127.478 58.3088 126.978 58.0915C126.478 57.8743 126.087 57.5662 125.804 57.1674C125.521 56.7656 125.365 56.2894 125.335 55.7388H126.719C126.746 56.0692 126.853 56.3445 127.04 56.5647C127.231 56.782 127.473 56.9442 127.768 57.0513C128.066 57.1555 128.392 57.2076 128.746 57.2076C129.136 57.2076 129.482 57.1466 129.786 57.0246C130.093 56.8996 130.334 56.7269 130.509 56.5067C130.685 56.2835 130.773 56.0231 130.773 55.7255C130.773 55.4546 130.695 55.2329 130.54 55.0603C130.389 54.8877 130.182 54.7448 129.92 54.6317C129.661 54.5186 129.368 54.4189 129.04 54.3326L127.96 54.038C127.228 53.8386 126.648 53.5454 126.219 53.1585C125.793 52.7716 125.581 52.2597 125.581 51.6228C125.581 51.096 125.723 50.6362 126.009 50.2433C126.295 49.8505 126.682 49.5454 127.17 49.3282C127.658 49.1079 128.209 48.9978 128.822 48.9978C129.441 48.9978 129.987 49.1064 130.46 49.3237C130.936 49.5409 131.311 49.8401 131.585 50.221C131.859 50.599 132.002 51.0335 132.014 51.5246H130.683ZM136.881 51.4085V52.4799H133.135V51.4085H136.881ZM134.14 49.7657H135.475V56.2522C135.475 56.5112 135.513 56.7061 135.591 56.8371C135.668 56.965 135.768 57.0528 135.89 57.1005C136.015 57.1451 136.15 57.1674 136.296 57.1674C136.403 57.1674 136.497 57.16 136.577 57.1451C136.658 57.1302 136.72 57.1183 136.765 57.1094L137.006 58.2121C136.928 58.2418 136.818 58.2716 136.675 58.3013C136.533 58.3341 136.354 58.3519 136.14 58.3549C135.789 58.3609 135.461 58.2984 135.158 58.1674C134.854 58.0365 134.608 57.8341 134.421 57.5603C134.233 57.2865 134.14 56.9427 134.14 56.529V49.7657ZM140.353 58.4174C139.918 58.4174 139.526 58.3371 139.174 58.1763C138.823 58.0126 138.545 57.776 138.34 57.4665C138.137 57.157 138.036 56.7775 138.036 56.3281C138.036 55.9412 138.11 55.6228 138.259 55.3728C138.408 55.1228 138.609 54.9249 138.862 54.779C139.115 54.6332 139.398 54.5231 139.71 54.4487C140.023 54.3743 140.341 54.3177 140.665 54.279C141.076 54.2314 141.409 54.1927 141.665 54.163C141.921 54.1302 142.107 54.0781 142.223 54.0067C142.339 53.9353 142.398 53.8192 142.398 53.6585V53.6272C142.398 53.2374 142.287 52.9353 142.067 52.721C141.85 52.5067 141.526 52.3996 141.094 52.3996C140.645 52.3996 140.29 52.4993 140.031 52.6987C139.776 52.8951 139.598 53.1139 139.5 53.3549L138.246 53.0692C138.395 52.6525 138.612 52.3162 138.898 52.0603C139.186 51.8014 139.518 51.6139 139.893 51.4978C140.268 51.3787 140.662 51.3192 141.076 51.3192C141.35 51.3192 141.64 51.352 141.947 51.4174C142.256 51.4799 142.545 51.596 142.813 51.7656C143.084 51.9353 143.305 52.1778 143.478 52.4933C143.651 52.8058 143.737 53.2121 143.737 53.7121V58.2656H142.433V57.3281H142.38C142.293 57.5007 142.164 57.6704 141.991 57.8371C141.819 58.0037 141.597 58.1421 141.326 58.2522C141.055 58.3624 140.731 58.4174 140.353 58.4174ZM140.643 57.346C141.012 57.346 141.328 57.2731 141.59 57.1272C141.854 56.9814 142.055 56.7909 142.192 56.5558C142.332 56.3177 142.402 56.0633 142.402 55.7924V54.9085C142.354 54.9561 142.262 55.0008 142.125 55.0424C141.991 55.0811 141.838 55.1153 141.665 55.1451C141.493 55.1719 141.325 55.1972 141.161 55.221C140.997 55.2418 140.86 55.2597 140.75 55.2746C140.491 55.3073 140.255 55.3624 140.04 55.4397C139.829 55.5171 139.659 55.6287 139.531 55.7746C139.406 55.9174 139.344 56.1079 139.344 56.346C139.344 56.6763 139.466 56.9263 139.71 57.096C139.954 57.2627 140.265 57.346 140.643 57.346ZM145.515 58.2656V51.4085H146.805V52.4978H146.876C147.001 52.1287 147.222 51.8386 147.537 51.6273C147.855 51.413 148.216 51.3058 148.617 51.3058C148.701 51.3058 148.799 51.3088 148.912 51.3148C149.028 51.3207 149.119 51.3281 149.184 51.3371V52.6139C149.131 52.599 149.036 52.5826 148.899 52.5647C148.762 52.5439 148.625 52.5335 148.488 52.5335C148.172 52.5335 147.891 52.6005 147.644 52.7344C147.4 52.8653 147.207 53.0484 147.064 53.2835C146.921 53.5156 146.85 53.7805 146.85 54.0781V58.2656H145.515ZM153.945 51.4085V52.4799H150.2V51.4085H153.945ZM151.204 49.7657H152.539V56.2522C152.539 56.5112 152.578 56.7061 152.655 56.8371C152.733 56.965 152.832 57.0528 152.954 57.1005C153.079 57.1451 153.215 57.1674 153.361 57.1674C153.468 57.1674 153.562 57.16 153.642 57.1451C153.722 57.1302 153.785 57.1183 153.829 57.1094L154.07 58.2121C153.993 58.2418 153.883 58.2716 153.74 58.3013C153.597 58.3341 153.419 58.3519 153.204 58.3549C152.853 58.3609 152.526 58.2984 152.222 58.1674C151.919 58.0365 151.673 57.8341 151.486 57.5603C151.298 57.2865 151.204 56.9427 151.204 56.529V49.7657ZM158.304 58.404C157.628 58.404 157.046 58.2597 156.558 57.971C156.073 57.6793 155.698 57.2701 155.433 56.7433C155.171 56.2135 155.04 55.593 155.04 54.8817C155.04 54.1793 155.171 53.5603 155.433 53.0246C155.698 52.4889 156.067 52.0707 156.54 51.7701C157.017 51.4695 157.573 51.3192 158.21 51.3192C158.597 51.3192 158.972 51.3832 159.335 51.5112C159.698 51.6392 160.024 51.84 160.313 52.1139C160.601 52.3877 160.829 52.7433 160.996 53.1808C161.162 53.6153 161.246 54.1436 161.246 54.7656V55.2388H155.795V54.2389H159.938C159.938 53.8877 159.866 53.5767 159.723 53.3058C159.581 53.032 159.38 52.8162 159.121 52.6585C158.865 52.5008 158.564 52.4219 158.219 52.4219C157.844 52.4219 157.517 52.5142 157.237 52.6987C156.96 52.8802 156.746 53.1183 156.594 53.413C156.445 53.7046 156.371 54.0216 156.371 54.3639V55.1451C156.371 55.6034 156.451 55.9933 156.612 56.3147C156.775 56.6362 157.003 56.8817 157.295 57.0513C157.586 57.218 157.927 57.3013 158.317 57.3013C158.57 57.3013 158.801 57.2656 159.009 57.1942C159.217 57.1198 159.397 57.0097 159.549 56.8638C159.701 56.718 159.817 56.538 159.897 56.3237L161.161 56.5513C161.06 56.9234 160.878 57.2493 160.616 57.529C160.357 57.8058 160.031 58.0216 159.639 58.1763C159.249 58.3281 158.804 58.404 158.304 58.404ZM162.727 58.2656V51.4085H164.017V52.4978H164.088C164.213 52.1287 164.434 51.8386 164.749 51.6273C165.067 51.413 165.428 51.3058 165.829 51.3058C165.913 51.3058 166.011 51.3088 166.124 51.3148C166.24 51.3207 166.331 51.3281 166.396 51.3371V52.6139C166.343 52.599 166.248 52.5826 166.111 52.5647C165.974 52.5439 165.837 52.5335 165.7 52.5335C165.384 52.5335 165.103 52.6005 164.856 52.7344C164.612 52.8653 164.419 53.0484 164.276 53.2835C164.133 53.5156 164.062 53.7805 164.062 54.0781V58.2656H162.727ZM170.986 49.1228H172.66L175.57 56.2299H175.678L178.588 49.1228H180.262V58.2656H178.95V51.6496H178.865L176.169 58.2522H175.079L172.383 51.6451H172.298V58.2656H170.986V49.1228ZM185.116 58.404C184.441 58.404 183.859 58.2597 183.371 57.971C182.886 57.6793 182.511 57.2701 182.246 56.7433C181.984 56.2135 181.853 55.593 181.853 54.8817C181.853 54.1793 181.984 53.5603 182.246 53.0246C182.511 52.4889 182.88 52.0707 183.353 51.7701C183.829 51.4695 184.385 51.3192 185.022 51.3192C185.409 51.3192 185.784 51.3832 186.147 51.5112C186.51 51.6392 186.836 51.84 187.125 52.1139C187.414 52.3877 187.641 52.7433 187.808 53.1808C187.975 53.6153 188.058 54.1436 188.058 54.7656V55.2388H182.607V54.2389H186.75C186.75 53.8877 186.679 53.5767 186.536 53.3058C186.393 53.032 186.192 52.8162 185.933 52.6585C185.677 52.5008 185.377 52.4219 185.031 52.4219C184.656 52.4219 184.329 52.5142 184.049 52.6987C183.772 52.8802 183.558 53.1183 183.406 53.413C183.258 53.7046 183.183 54.0216 183.183 54.3639V55.1451C183.183 55.6034 183.263 55.9933 183.424 56.3147C183.588 56.6362 183.816 56.8817 184.107 57.0513C184.399 57.218 184.74 57.3013 185.13 57.3013C185.383 57.3013 185.613 57.2656 185.822 57.1942C186.03 57.1198 186.21 57.0097 186.362 56.8638C186.513 56.718 186.63 56.538 186.71 56.3237L187.973 56.5513C187.872 56.9234 187.691 57.2493 187.429 57.529C187.17 57.8058 186.844 58.0216 186.451 58.1763C186.061 58.3281 185.616 58.404 185.116 58.404ZM189.539 58.2656V51.4085H190.82V52.5246H190.905C191.048 52.1466 191.282 51.852 191.606 51.6406C191.93 51.4264 192.319 51.3192 192.771 51.3192C193.23 51.3192 193.614 51.4264 193.923 51.6406C194.236 51.8549 194.466 52.1496 194.615 52.5246H194.686C194.85 52.1585 195.111 51.8668 195.468 51.6496C195.825 51.4293 196.25 51.3192 196.744 51.3192C197.366 51.3192 197.874 51.5142 198.267 51.904C198.663 52.2939 198.861 52.8817 198.861 53.6674V58.2656H197.526V53.7924C197.526 53.3281 197.399 52.9918 197.146 52.7835C196.893 52.5752 196.591 52.471 196.24 52.471C195.805 52.471 195.468 52.6049 195.227 52.8728C194.986 53.1377 194.865 53.4784 194.865 53.8951V58.2656H193.535V53.7076C193.535 53.3356 193.419 53.0365 193.186 52.8103C192.954 52.5841 192.652 52.471 192.28 52.471C192.027 52.471 191.794 52.538 191.579 52.6719C191.368 52.8028 191.197 52.9859 191.066 53.221C190.938 53.4561 190.874 53.7284 190.874 54.038V58.2656H189.539ZM200.757 58.2656V49.1228H202.092V52.5201H202.172C202.249 52.3773 202.361 52.2121 202.507 52.0246C202.653 51.8371 202.855 51.6734 203.114 51.5335C203.373 51.3906 203.715 51.3192 204.141 51.3192C204.694 51.3192 205.188 51.4591 205.623 51.7389C206.057 52.0186 206.398 52.4219 206.645 52.9487C206.895 53.4755 207.02 54.1094 207.02 54.8505C207.02 55.5915 206.897 56.2269 206.65 56.7567C206.403 57.2835 206.063 57.6897 205.632 57.9754C205.2 58.2582 204.708 58.3996 204.154 58.3996C203.737 58.3996 203.397 58.3296 203.132 58.1897C202.87 58.0499 202.664 57.8862 202.516 57.6987C202.367 57.5112 202.252 57.3445 202.172 57.1987H202.06V58.2656H200.757ZM202.065 54.8371C202.065 55.3192 202.135 55.7418 202.275 56.1049C202.414 56.468 202.617 56.7522 202.882 56.9576C203.147 57.16 203.471 57.2612 203.855 57.2612C204.254 57.2612 204.587 57.1555 204.855 56.9442C205.123 56.7299 205.325 56.4397 205.462 56.0737C205.602 55.7076 205.672 55.2954 205.672 54.8371C205.672 54.3847 205.603 53.9784 205.467 53.6183C205.333 53.2582 205.13 52.974 204.859 52.7656C204.592 52.5573 204.257 52.4531 203.855 52.4531C203.468 52.4531 203.141 52.5528 202.873 52.7522C202.608 52.9517 202.407 53.2299 202.27 53.5871C202.133 53.9442 202.065 54.3609 202.065 54.8371ZM211.474 58.404C210.799 58.404 210.217 58.2597 209.729 57.971C209.244 57.6793 208.869 57.2701 208.604 56.7433C208.342 56.2135 208.211 55.593 208.211 54.8817C208.211 54.1793 208.342 53.5603 208.604 53.0246C208.869 52.4889 209.238 52.0707 209.711 51.7701C210.187 51.4695 210.744 51.3192 211.381 51.3192C211.767 51.3192 212.142 51.3832 212.506 51.5112C212.869 51.6392 213.195 51.84 213.483 52.1139C213.772 52.3877 214 52.7433 214.166 53.1808C214.333 53.6153 214.416 54.1436 214.416 54.7656V55.2388H208.965V54.2389H213.108C213.108 53.8877 213.037 53.5767 212.894 53.3058C212.751 53.032 212.55 52.8162 212.291 52.6585C212.035 52.5008 211.735 52.4219 211.39 52.4219C211.015 52.4219 210.687 52.5142 210.407 52.6987C210.131 52.8802 209.916 53.1183 209.765 53.413C209.616 53.7046 209.541 54.0216 209.541 54.3639V55.1451C209.541 55.6034 209.622 55.9933 209.782 56.3147C209.946 56.6362 210.174 56.8817 210.465 57.0513C210.757 57.218 211.098 57.3013 211.488 57.3013C211.741 57.3013 211.971 57.2656 212.18 57.1942C212.388 57.1198 212.568 57.0097 212.72 56.8638C212.872 56.718 212.988 56.538 213.068 56.3237L214.331 56.5513C214.23 56.9234 214.049 57.2493 213.787 57.529C213.528 57.8058 213.202 58.0216 212.809 58.1763C212.419 58.3281 211.974 58.404 211.474 58.404ZM215.897 58.2656V51.4085H217.187V52.4978H217.259C217.384 52.1287 217.604 51.8386 217.92 51.6273C218.238 51.413 218.598 51.3058 219 51.3058C219.083 51.3058 219.182 51.3088 219.295 51.3148C219.411 51.3207 219.501 51.3281 219.567 51.3371V52.6139C219.513 52.599 219.418 52.5826 219.281 52.5647C219.144 52.5439 219.007 52.5335 218.871 52.5335C218.555 52.5335 218.274 52.6005 218.027 52.7344C217.783 52.8653 217.589 53.0484 217.446 53.2835C217.304 53.5156 217.232 53.7805 217.232 54.0781V58.2656H215.897Z" fill="#344054"/>
<path d="M313.216 55.735V54.7784L316.603 49.4289H317.357V50.8371H316.878L314.456 54.6712V54.7325H319.098V55.735H313.216ZM316.932 57.2656V55.4442L316.94 55.008V49.4289H318.061V57.2656H316.932ZM323.16 57.3957C322.555 57.3932 322.038 57.2337 321.61 56.9174C321.181 56.6011 320.853 56.1406 320.626 55.536C320.399 54.9314 320.286 54.2031 320.286 53.3511C320.286 52.5016 320.399 51.7758 320.626 51.1738C320.856 50.5718 321.185 50.1126 321.614 49.7963C322.045 49.4799 322.56 49.3218 323.16 49.3218C323.759 49.3218 324.273 49.4812 324.702 49.8001C325.13 50.1164 325.458 50.5756 325.685 51.1776C325.915 51.7771 326.029 52.5016 326.029 53.3511C326.029 54.2057 325.916 54.9353 325.689 55.5399C325.462 56.1419 325.134 56.6024 324.706 56.9212C324.277 57.2376 323.762 57.3957 323.16 57.3957ZM323.16 56.374C323.69 56.374 324.105 56.1151 324.403 55.5973C324.704 55.0794 324.855 54.3307 324.855 53.3511C324.855 52.7006 324.786 52.1508 324.648 51.7019C324.513 51.2503 324.318 50.9085 324.063 50.6764C323.81 50.4417 323.509 50.3243 323.16 50.3243C322.632 50.3243 322.217 50.5845 321.916 51.1049C321.615 51.6253 321.463 52.3741 321.461 53.3511C321.461 54.0042 321.528 54.5564 321.663 55.008C321.801 55.457 321.996 55.7975 322.249 56.0297C322.501 56.2593 322.805 56.374 323.16 56.374ZM331.478 55.7962V55.383C331.478 55.0871 331.539 54.8167 331.661 54.5718C331.786 54.3243 331.967 54.1266 332.205 53.9786C332.444 53.8281 332.734 53.7529 333.073 53.7529C333.42 53.7529 333.711 53.8269 333.946 53.9748C334.18 54.1228 334.358 54.3205 334.477 54.5679C334.6 54.8154 334.661 55.0871 334.661 55.383V55.7962C334.661 56.0922 334.6 56.3638 334.477 56.6113C334.355 56.8562 334.175 57.0539 333.938 57.2044C333.703 57.3524 333.415 57.4263 333.073 57.4263C332.729 57.4263 332.438 57.3524 332.201 57.2044C331.963 57.0539 331.784 56.8562 331.661 56.6113C331.539 56.3638 331.478 56.0922 331.478 55.7962ZM332.369 55.383V55.7962C332.369 56.0156 332.421 56.2146 332.526 56.3932C332.631 56.5717 332.813 56.661 333.073 56.661C333.331 56.661 333.511 56.5717 333.613 56.3932C333.715 56.2146 333.766 56.0156 333.766 55.7962V55.383C333.766 55.1636 333.716 54.9646 333.617 54.786C333.52 54.6075 333.338 54.5182 333.073 54.5182C332.818 54.5182 332.637 54.6075 332.53 54.786C332.423 54.9646 332.369 55.1636 332.369 55.383ZM327.536 51.3116V50.8983C327.536 50.6024 327.597 50.3307 327.72 50.0832C327.845 49.8358 328.026 49.6381 328.263 49.4901C328.503 49.3422 328.793 49.2682 329.132 49.2682C329.479 49.2682 329.77 49.3422 330.004 49.4901C330.239 49.6381 330.416 49.8358 330.536 50.0832C330.656 50.3307 330.716 50.6024 330.716 50.8983V51.3116C330.716 51.6075 330.655 51.8792 330.532 52.1266C330.412 52.3715 330.234 52.5692 329.997 52.7197C329.762 52.8677 329.474 52.9417 329.132 52.9417C328.785 52.9417 328.493 52.8677 328.256 52.7197C328.021 52.5692 327.842 52.3715 327.72 52.1266C327.597 51.8792 327.536 51.6075 327.536 51.3116ZM328.432 50.8983V51.3116C328.432 51.5309 328.483 51.7299 328.585 51.9085C328.689 52.0871 328.872 52.1764 329.132 52.1764C329.387 52.1764 329.566 52.0871 329.668 51.9085C329.772 51.7299 329.824 51.5309 329.824 51.3116V50.8983C329.824 50.6789 329.775 50.4799 329.675 50.3014C329.576 50.1228 329.395 50.0335 329.132 50.0335C328.877 50.0335 328.696 50.1228 328.588 50.3014C328.484 50.4799 328.432 50.6789 328.432 50.8983ZM327.9 57.2656L333.287 49.4289H334.202L328.814 57.2656H327.9Z" fill="#667085"/>
<path d="M103.23 68.2761C103.23 67.8108 103.608 67.4336 104.073 67.4336H307.65C308.208 67.4336 308.659 67.8855 308.659 68.443C308.659 69.0011 308.207 69.4533 307.648 69.4523L104.072 69.1186C103.607 69.1179 103.23 68.7409 103.23 68.2761Z" fill="#D9D9D9"/>
<rect x="101.609" y="66.7578" width="236.162" height="5.38774" rx="2.69387" fill="#F0F0F0"/>
<rect x="101.609" y="66.7578" width="99.2242" height="5.38774" rx="2.69387" fill="#C0C0C0"/>
</g>
<defs>
<filter id="filter0_d_2939_15782" x="0.55627" y="0.85209" width="364.916" height="105.408" filterUnits="userSpaceOnUse" color-interpolation-filters="sRGB">
<feFlood flood-opacity="0" result="BackgroundImageFix"/>
<feColorMatrix in="SourceAlpha" type="matrix" values="0 0 0 0 0 0 0 0 0 0 0 0 0 0 0 0 0 0 127 0" result="hardAlpha"/>
<feOffset dx="-6.14791" dy="6.14791"/>
<feGaussianBlur stdDeviation="6.14791"/>
<feComposite in2="hardAlpha" operator="out"/>
<feColorMatrix type="matrix" values="0 0 0 0 0 0 0 0 0 0 0 0 0 0 0 0 0 0 0.15 0"/>
<feBlend mode="normal" in2="BackgroundImageFix" result="effect1_dropShadow_2939_15782"/>
<feBlend mode="normal" in="SourceGraphic" in2="effect1_dropShadow_2939_15782" result="shape"/>
</filter>
</defs>
</svg>
