<svg width="128" height="128" viewBox="0 0 128 128" fill="none" xmlns="http://www.w3.org/2000/svg">
<path d="M0.447174 64.0196C0.447174 99.2429 29.0013 127.797 64.2246 127.797C99.4478 127.797 128.002 99.2429 128.002 64.0196C128.002 28.7963 99.4478 0.242188 64.2246 0.242188C29.0013 0.242188 0.447174 28.7963 0.447174 64.0196ZM108.869 64.0196C108.869 88.6759 88.8809 108.664 64.2246 108.664C39.5683 108.664 19.5804 88.6759 19.5804 64.0196C19.5804 39.3633 39.5683 19.3754 64.2246 19.3754C88.8809 19.3754 108.869 39.3633 108.869 64.0196Z" fill="#00B777"/>
<path d="M72.9917 117.517C73.8462 122.731 78.8007 126.333 83.8284 124.709C88.7331 123.125 93.4388 120.948 97.839 118.219C104.957 113.805 111.135 108.032 116.022 101.23C120.908 94.4279 124.407 86.73 126.319 78.5757C128.23 70.4214 128.517 61.9704 127.162 53.7053C125.808 45.4402 122.839 37.5228 118.424 30.4051C114.01 23.2875 108.237 17.109 101.435 12.2225C94.6329 7.33595 86.935 3.83702 78.7807 1.92549C73.7396 0.743773 68.5852 0.183027 63.4315 0.247118C58.1484 0.312817 54.6029 5.30848 55.4574 10.5224C56.3119 15.7364 61.2619 19.1616 66.5383 19.4354C69.1852 19.5728 71.821 19.9459 74.4138 20.5537C80.1218 21.8918 85.5104 24.341 90.2719 27.7616C95.0333 31.1822 99.0744 35.5071 102.164 40.4895C105.254 45.4718 107.333 51.014 108.281 56.7996C109.229 62.5851 109.028 68.5008 107.69 74.2088C106.352 79.9169 103.903 85.3054 100.483 90.0669C97.0619 94.8284 92.737 98.8695 87.7547 101.959C85.4914 103.363 83.1127 104.558 80.6481 105.533C75.7351 107.477 72.1372 112.303 72.9917 117.517Z" fill="#00B777"/>
<path d="M35.308 109.874C32.4898 114.343 33.8089 120.326 38.6489 122.444C45.7306 125.544 53.342 127.342 61.1162 127.721C68.8905 128.101 76.6408 127.053 83.9906 124.657C89.0139 123.019 90.9092 117.194 88.5394 112.472C86.1696 107.749 80.4235 105.955 75.3054 107.267C70.9958 108.371 66.528 108.829 62.0487 108.611C57.5695 108.392 53.1675 107.501 48.9859 105.982C44.0197 104.179 38.1263 105.405 35.308 109.874Z" fill="#00B777"/>
<path d="M44.7431 49.3506V63.2656H41.8011V52.1431H41.7196L38.533 54.1407V51.5316L41.9778 49.3506H44.7431ZM48.4093 63.2656L54.1778 51.8509V51.7558H47.4581V49.3506H57.2218V51.7898L51.4465 63.2656H48.4093ZM64.2037 63.5714C63.035 63.5668 62.0295 63.2792 61.1869 62.7085C60.349 62.1377 59.7035 61.3111 59.2505 60.2285C58.8021 59.1459 58.5801 57.8436 58.5847 56.3217C58.5847 54.8043 58.8089 53.511 59.2573 52.442C59.7103 51.373 60.3558 50.56 61.1937 50.0028C62.0363 49.4412 63.0396 49.1603 64.2037 49.1603C65.3678 49.1603 66.3689 49.4412 67.2068 50.0028C68.0494 50.5645 68.6971 51.3798 69.1501 52.4488C69.603 53.5133 69.8272 54.8043 69.8227 56.3217C69.8227 57.8482 69.5962 59.1527 69.1433 60.2353C68.6948 61.3179 68.0516 62.1445 67.2136 62.7153C66.3756 63.286 65.3723 63.5714 64.2037 63.5714ZM64.2037 61.1322C65.0009 61.1322 65.6373 60.7313 66.1129 59.9295C66.5885 59.1278 66.8241 57.9252 66.8196 56.3217C66.8196 55.2663 66.7108 54.3875 66.4934 53.6854C66.2805 52.9833 65.977 52.4556 65.583 52.1023C65.1934 51.749 64.7337 51.5723 64.2037 51.5723C63.411 51.5723 62.7768 51.9687 62.3012 52.7614C61.8256 53.5541 61.5856 54.7408 61.581 56.3217C61.581 57.3907 61.6875 58.283 61.9004 58.9987C62.1178 59.7099 62.4235 60.2444 62.8176 60.6022C63.2117 60.9555 63.6737 61.1322 64.2037 61.1322ZM79.3458 60.6566V59.9227C79.3458 59.3656 79.4635 58.8538 79.6991 58.3872C79.9391 57.9161 80.2857 57.5402 80.7386 57.2593C81.1961 56.9739 81.7533 56.8313 82.4101 56.8313C83.0759 56.8313 83.6353 56.9717 84.0883 57.2525C84.5458 57.5334 84.89 57.9093 85.1211 58.3804C85.3566 58.847 85.4744 59.3611 85.4744 59.9227V60.6566C85.4744 61.2137 85.3566 61.7278 85.1211 62.1989C84.8855 62.6654 84.539 63.0391 84.0815 63.32C83.624 63.6053 83.0669 63.748 82.4101 63.748C81.7442 63.748 81.1848 63.6053 80.7318 63.32C80.2789 63.0391 79.9346 62.6654 79.6991 62.1989C79.4635 61.7278 79.3458 61.2137 79.3458 60.6566ZM81.323 59.9227V60.6566C81.323 60.9782 81.4 61.2816 81.554 61.567C81.7125 61.8524 81.9979 61.9951 82.4101 61.9951C82.8223 61.9951 83.1031 61.8546 83.2526 61.5738C83.4066 61.293 83.4836 60.9872 83.4836 60.6566V59.9227C83.4836 59.5921 83.4111 59.2841 83.2662 58.9987C83.1212 58.7133 82.8359 58.5706 82.4101 58.5706C82.0024 58.5706 81.7193 58.7133 81.5608 58.9987C81.4022 59.2841 81.323 59.5921 81.323 59.9227ZM72.2048 52.6934V51.9596C72.2048 51.398 72.3248 50.8838 72.5649 50.4173C72.805 49.9462 73.1515 49.5702 73.6044 49.2894C74.0619 49.0086 74.6146 48.8682 75.2623 48.8682C75.9327 48.8682 76.4944 49.0086 76.9473 49.2894C77.4003 49.5702 77.7445 49.9462 77.9801 50.4173C78.2156 50.8838 78.3334 51.398 78.3334 51.9596V52.6934C78.3334 53.2551 78.2134 53.7692 77.9733 54.2358C77.7377 54.7023 77.3912 55.076 76.9337 55.3569C76.4808 55.6332 75.9236 55.7713 75.2623 55.7713C74.601 55.7713 74.0416 55.6309 73.5841 55.3501C73.1311 55.0647 72.7868 54.691 72.5513 54.229C72.3203 53.7624 72.2048 53.2506 72.2048 52.6934ZM74.1956 51.9596V52.6934C74.1956 53.0241 74.2726 53.3299 74.4266 53.6107C74.5851 53.8915 74.8637 54.0319 75.2623 54.0319C75.679 54.0319 75.9621 53.8915 76.1116 53.6107C76.2656 53.3299 76.3426 53.0241 76.3426 52.6934V51.9596C76.3426 51.629 76.2701 51.321 76.1252 51.0356C75.9802 50.7502 75.6926 50.6075 75.2623 50.6075C74.8592 50.6075 74.5806 50.7525 74.4266 51.0424C74.2726 51.3323 74.1956 51.638 74.1956 51.9596ZM73.1017 63.2656L82.6683 49.3506H84.4484L74.8818 63.2656H73.1017ZM43.4167 70.0138H42.6678C42.6235 69.7984 42.546 69.6092 42.4352 69.4461C42.3265 69.283 42.1937 69.1461 42.0366 69.0354C41.8816 68.9227 41.7095 68.8381 41.5203 68.7817C41.331 68.7254 41.1337 68.6972 40.9284 68.6972C40.5539 68.6972 40.2147 68.7918 39.9107 68.981C39.6087 69.1703 39.3682 69.4491 39.189 69.8175C39.0118 70.1859 38.9233 70.6379 38.9233 71.1734C38.9233 71.7089 39.0118 72.1609 39.189 72.5293C39.3682 72.8977 39.6087 73.1765 39.9107 73.3657C40.2147 73.555 40.5539 73.6496 40.9284 73.6496C41.1337 73.6496 41.331 73.6214 41.5203 73.565C41.7095 73.5087 41.8816 73.4251 42.0366 73.3144C42.1937 73.2017 42.3265 73.0638 42.4352 72.9007C42.546 72.7356 42.6235 72.5464 42.6678 72.333H43.4167C43.3603 72.649 43.2576 72.9319 43.1087 73.1815C42.9597 73.4312 42.7745 73.6436 42.553 73.8187C42.3316 73.9918 42.0829 74.1237 41.8071 74.2143C41.5333 74.3049 41.2404 74.3502 40.9284 74.3502C40.4009 74.3502 39.9319 74.2213 39.5212 73.9636C39.1105 73.706 38.7874 73.3396 38.5518 72.8645C38.3163 72.3893 38.1985 71.8257 38.1985 71.1734C38.1985 70.5211 38.3163 69.9574 38.5518 69.4823C38.7874 69.0072 39.1105 68.6408 39.5212 68.3831C39.9319 68.1254 40.4009 67.9966 40.9284 67.9966C41.2404 67.9966 41.5333 68.0419 41.8071 68.1325C42.0829 68.2231 42.3316 68.3559 42.553 68.5311C42.7745 68.7042 42.9597 68.9156 43.1087 69.1652C43.2576 69.4129 43.3603 69.6957 43.4167 70.0138ZM44.4452 74.2656V69.6273H45.1337V70.3279H45.182C45.2665 70.0984 45.4195 69.9121 45.641 69.7692C45.8624 69.6263 46.1121 69.5548 46.3899 69.5548C46.4422 69.5548 46.5077 69.5558 46.5862 69.5578C46.6647 69.5598 46.7241 69.5628 46.7643 69.5669V70.2916C46.7402 70.2856 46.6848 70.2765 46.5983 70.2644C46.5137 70.2503 46.4241 70.2433 46.3295 70.2433C46.104 70.2433 45.9027 70.2906 45.7256 70.3852C45.5504 70.4778 45.4115 70.6067 45.3088 70.7718C45.2082 70.9348 45.1578 71.121 45.1578 71.3304V74.2656H44.4452ZM49.3276 74.3623C48.8807 74.3623 48.4952 74.2636 48.1711 74.0663C47.849 73.867 47.6003 73.5892 47.4252 73.2329C47.2521 72.8745 47.1655 72.4578 47.1655 71.9827C47.1655 71.5076 47.2521 71.0888 47.4252 70.7265C47.6003 70.3621 47.8439 70.0782 48.156 69.8749C48.47 69.6695 48.8364 69.5669 49.2552 69.5669C49.4968 69.5669 49.7353 69.6071 49.9709 69.6877C50.2064 69.7682 50.4208 69.899 50.6141 70.0802C50.8073 70.2594 50.9613 70.497 51.0761 70.7929C51.1908 71.0888 51.2482 71.4532 51.2482 71.8861V72.188H47.6728V71.572H50.5235C50.5235 71.3103 50.4711 71.0768 50.3664 70.8714C50.2638 70.6661 50.1168 70.504 49.9256 70.3852C49.7363 70.2665 49.5129 70.2071 49.2552 70.2071C48.9713 70.2071 48.7257 70.2775 48.5183 70.4184C48.313 70.5574 48.155 70.7385 48.0442 70.962C47.9335 71.1855 47.8782 71.425 47.8782 71.6807V72.0914C47.8782 72.4417 47.9386 72.7386 48.0593 72.9822C48.1821 73.2238 48.3523 73.408 48.5697 73.5348C48.7871 73.6597 49.0398 73.7221 49.3276 73.7221C49.5149 73.7221 49.684 73.6959 49.835 73.6436C49.988 73.5892 50.1198 73.5087 50.2306 73.402C50.3413 73.2933 50.4268 73.1584 50.4872 72.9973L51.1757 73.1906C51.1033 73.4241 50.9815 73.6295 50.8103 73.8066C50.6392 73.9818 50.4278 74.1187 50.1762 74.2173C49.9246 74.3139 49.6417 74.3623 49.3276 74.3623ZM53.9987 74.3623C53.6122 74.3623 53.271 74.2646 52.975 74.0693C52.6791 73.872 52.4476 73.5942 52.2805 73.2359C52.1134 72.8755 52.0298 72.4497 52.0298 71.9585C52.0298 71.4713 52.1134 71.0486 52.2805 70.6902C52.4476 70.3319 52.6801 70.0551 52.9781 69.8598C53.276 69.6645 53.6203 69.5669 54.0108 69.5669C54.3128 69.5669 54.5513 69.6172 54.7265 69.7179C54.9037 69.8165 55.0385 69.9292 55.1311 70.0561C55.2258 70.1809 55.2992 70.2836 55.3516 70.3641H55.412V68.0812H56.1246V74.2656H55.4361V73.553H55.3516C55.2992 73.6375 55.2248 73.7442 55.1281 73.8731C55.0315 73.9999 54.8936 74.1136 54.7144 74.2143C54.5352 74.3129 54.2967 74.3623 53.9987 74.3623ZM54.0954 73.7221C54.3812 73.7221 54.6228 73.6476 54.8201 73.4986C55.0174 73.3476 55.1674 73.1393 55.2701 72.8735C55.3727 72.6058 55.4241 72.2967 55.4241 71.9464C55.4241 71.6002 55.3737 71.2972 55.2731 71.0375C55.1724 70.7758 55.0234 70.5725 54.8261 70.4275C54.6289 70.2805 54.3853 70.2071 54.0954 70.2071C53.7934 70.2071 53.5417 70.2846 53.3404 70.4396C53.1411 70.5926 52.9911 70.801 52.8905 71.0647C52.7918 71.3264 52.7425 71.6203 52.7425 71.9464C52.7425 72.2766 52.7928 72.5766 52.8935 72.8463C52.9962 73.1141 53.1472 73.3275 53.3465 73.4865C53.5478 73.6436 53.7974 73.7221 54.0954 73.7221ZM57.4438 74.2656V69.6273H58.1565V74.2656H57.4438ZM57.8062 68.8542C57.6673 68.8542 57.5475 68.8069 57.4468 68.7123C57.3482 68.6177 57.2989 68.5039 57.2989 68.371C57.2989 68.2382 57.3482 68.1244 57.4468 68.0298C57.5475 67.9352 57.6673 67.8879 57.8062 67.8879C57.9451 67.8879 58.0639 67.9352 58.1625 68.0298C58.2632 68.1244 58.3135 68.2382 58.3135 68.371C58.3135 68.5039 58.2632 68.6177 58.1625 68.7123C58.0639 68.8069 57.9451 68.8542 57.8062 68.8542ZM61.3939 69.6273V70.2312H58.9902V69.6273H61.3939ZM59.6908 68.516H60.4034V72.9369C60.4034 73.1382 60.4326 73.2892 60.491 73.3899C60.5514 73.4885 60.6279 73.555 60.7205 73.5892C60.8151 73.6214 60.9148 73.6375 61.0195 73.6375C61.098 73.6375 61.1624 73.6335 61.2127 73.6254C61.2631 73.6154 61.3033 73.6073 61.3335 73.6013L61.4785 74.2415C61.4302 74.2596 61.3627 74.2777 61.2761 74.2958C61.1896 74.316 61.0799 74.326 60.947 74.326C60.7457 74.326 60.5484 74.2827 60.3551 74.1962C60.1639 74.1096 60.0048 73.9777 59.878 73.8006C59.7532 73.6234 59.6908 73.4 59.6908 73.1302V68.516ZM68.1663 69.6273C68.13 69.3213 67.9831 69.0837 67.7254 68.9146C67.4677 68.7455 67.1516 68.6609 66.7772 68.6609C66.5034 68.6609 66.2638 68.7052 66.0585 68.7938C65.8552 68.8824 65.6961 69.0042 65.5814 69.1592C65.4686 69.3142 65.4123 69.4904 65.4123 69.6877C65.4123 69.8527 65.4515 69.9947 65.53 70.1135C65.6106 70.2302 65.7132 70.3279 65.838 70.4064C65.9629 70.4829 66.0937 70.5463 66.2306 70.5966C66.3675 70.6449 66.4933 70.6842 66.6081 70.7144L67.2362 70.8835C67.3973 70.9258 67.5764 70.9841 67.7737 71.0586C67.973 71.1331 68.1633 71.2348 68.3444 71.3636C68.5276 71.4905 68.6786 71.6535 68.7974 71.8528C68.9162 72.0521 68.9756 72.2967 68.9756 72.5866C68.9756 72.9208 68.888 73.2228 68.7129 73.4926C68.5397 73.7623 68.2861 73.9767 67.9519 74.1358C67.6197 74.2948 67.2161 74.3743 66.741 74.3743C66.2981 74.3743 65.9145 74.3029 65.5904 74.1599C65.2683 74.017 65.0147 73.8177 64.8294 73.562C64.6462 73.3063 64.5426 73.0094 64.5184 72.6712H65.2915C65.3116 72.9047 65.3901 73.098 65.527 73.251C65.6659 73.402 65.8411 73.5147 66.0524 73.5892C66.2658 73.6617 66.4953 73.6979 66.741 73.6979C67.0268 73.6979 67.2835 73.6516 67.511 73.559C67.7385 73.4644 67.9187 73.3335 68.0515 73.1664C68.1844 72.9973 68.2508 72.8 68.2508 72.5746C68.2508 72.3692 68.1935 72.2021 68.0787 72.0733C67.964 71.9444 67.813 71.8397 67.6257 71.7592C67.4385 71.6787 67.2362 71.6082 67.0188 71.5478L66.2578 71.3304C65.7746 71.1915 65.3921 70.9932 65.1103 70.7355C64.8284 70.4778 64.6875 70.1406 64.6875 69.7239C64.6875 69.3776 64.7811 69.0757 64.9684 68.818C65.1576 68.5583 65.4113 68.357 65.7293 68.214C66.0494 68.0691 66.4068 67.9966 66.8014 67.9966C67.2 67.9966 67.5543 68.0681 67.8643 68.211C68.1743 68.3519 68.4199 68.5452 68.6011 68.7908C68.7843 69.0364 68.881 69.3152 68.891 69.6273H68.1663ZM71.9095 74.3623C71.4747 74.3623 71.1003 74.2596 70.7862 74.0542C70.4721 73.8489 70.2306 73.566 70.0615 73.2057C69.8923 72.8453 69.8078 72.4336 69.8078 71.9706C69.8078 71.4995 69.8944 71.0838 70.0675 70.7234C70.2426 70.3611 70.4862 70.0782 70.7983 69.8749C71.1123 69.6695 71.4787 69.5669 71.8975 69.5669C72.2236 69.5669 72.5175 69.6273 72.7792 69.7481C73.041 69.8689 73.2554 70.038 73.4224 70.2554C73.5895 70.4728 73.6932 70.7265 73.7335 71.0164H73.0208C72.9665 70.805 72.8457 70.6178 72.6584 70.4547C72.4732 70.2896 72.2236 70.2071 71.9095 70.2071C71.6317 70.2071 71.3881 70.2795 71.1788 70.4245C70.9714 70.5674 70.8093 70.7697 70.6926 71.0315C70.5778 71.2912 70.5205 71.5962 70.5205 71.9464C70.5205 72.3048 70.5768 72.6168 70.6896 72.8826C70.8043 73.1483 70.9654 73.3547 71.1727 73.5016C71.3821 73.6486 71.6277 73.7221 71.9095 73.7221C72.0948 73.7221 72.2629 73.6899 72.4138 73.6254C72.5648 73.561 72.6927 73.4684 72.7974 73.3476C72.902 73.2268 72.9765 73.0819 73.0208 72.9128H73.7335C73.6932 73.1866 73.5936 73.4332 73.4345 73.6526C73.2775 73.87 73.0691 74.0432 72.8094 74.172C72.5518 74.2988 72.2518 74.3623 71.9095 74.3623ZM76.5746 74.3623C76.1559 74.3623 75.7885 74.2626 75.4724 74.0633C75.1583 73.864 74.9127 73.5852 74.7356 73.2268C74.5604 72.8685 74.4728 72.4497 74.4728 71.9706C74.4728 71.4874 74.5604 71.0657 74.7356 70.7053C74.9127 70.345 75.1583 70.0651 75.4724 69.8658C75.7885 69.6665 76.1559 69.5669 76.5746 69.5669C76.9933 69.5669 77.3597 69.6665 77.6738 69.8658C77.9899 70.0651 78.2355 70.345 78.4106 70.7053C78.5878 71.0657 78.6764 71.4874 78.6764 71.9706C78.6764 72.4497 78.5878 72.8685 78.4106 73.2268C78.2355 73.5852 77.9899 73.864 77.6738 74.0633C77.3597 74.2626 76.9933 74.3623 76.5746 74.3623ZM76.5746 73.7221C76.8927 73.7221 77.1544 73.6405 77.3597 73.4775C77.5651 73.3144 77.7171 73.1 77.8157 72.8343C77.9144 72.5685 77.9637 72.2806 77.9637 71.9706C77.9637 71.6606 77.9144 71.3717 77.8157 71.1039C77.7171 70.8362 77.5651 70.6198 77.3597 70.4547C77.1544 70.2896 76.8927 70.2071 76.5746 70.2071C76.2565 70.2071 75.9948 70.2896 75.7895 70.4547C75.5841 70.6198 75.4321 70.8362 75.3335 71.1039C75.2348 71.3717 75.1855 71.6606 75.1855 71.9706C75.1855 72.2806 75.2348 72.5685 75.3335 72.8343C75.4321 73.1 75.5841 73.3144 75.7895 73.4775C75.9948 73.6405 76.2565 73.7221 76.5746 73.7221ZM79.6792 74.2656V69.6273H80.3677V70.3279H80.416C80.5006 70.0984 80.6536 69.9121 80.875 69.7692C81.0965 69.6263 81.3461 69.5548 81.6239 69.5548C81.6763 69.5548 81.7417 69.5558 81.8202 69.5578C81.8987 69.5598 81.9581 69.5628 81.9984 69.5669V70.2916C81.9742 70.2856 81.9188 70.2765 81.8323 70.2644C81.7477 70.2503 81.6581 70.2433 81.5635 70.2433C81.338 70.2433 81.1367 70.2906 80.9596 70.3852C80.7844 70.4778 80.6455 70.6067 80.5428 70.7718C80.4422 70.9348 80.3919 71.121 80.3919 71.3304V74.2656H79.6792ZM84.5617 74.3623C84.1147 74.3623 83.7292 74.2636 83.4051 74.0663C83.083 73.867 82.8344 73.5892 82.6592 73.2329C82.4861 72.8745 82.3995 72.4578 82.3995 71.9827C82.3995 71.5076 82.4861 71.0888 82.6592 70.7265C82.8344 70.3621 83.078 70.0782 83.39 69.8749C83.704 69.6695 84.0704 69.5669 84.4892 69.5669C84.7308 69.5669 84.9693 69.6071 85.2049 69.6877C85.4404 69.7682 85.6548 69.899 85.8481 70.0802C86.0413 70.2594 86.1954 70.497 86.3101 70.7929C86.4249 71.0888 86.4822 71.4532 86.4822 71.8861V72.188H82.9068V71.572H85.7575C85.7575 71.3103 85.7051 71.0768 85.6005 70.8714C85.4978 70.6661 85.3508 70.504 85.1596 70.3852C84.9703 70.2665 84.7469 70.2071 84.4892 70.2071C84.2053 70.2071 83.9597 70.2775 83.7524 70.4184C83.547 70.5574 83.389 70.7385 83.2783 70.962C83.1675 71.1855 83.1122 71.425 83.1122 71.6807V72.0914C83.1122 72.4417 83.1726 72.7386 83.2934 72.9822C83.4162 73.2238 83.5863 73.408 83.8037 73.5348C84.0211 73.6597 84.2738 73.7221 84.5617 73.7221C84.7489 73.7221 84.918 73.6959 85.069 73.6436C85.222 73.5892 85.3538 73.5087 85.4646 73.402C85.5753 73.2933 85.6609 73.1584 85.7212 72.9973L86.4098 73.1906C86.3373 73.4241 86.2155 73.6295 86.0444 73.8066C85.8732 73.9818 85.6619 74.1187 85.4102 74.2173C85.1586 74.3139 84.8757 74.3623 84.5617 74.3623Z" fill="#667085"/>
</svg>
