<svg width="40" height="39" viewBox="0 0 40 39" fill="none" xmlns="http://www.w3.org/2000/svg">
<path fill-rule="evenodd" clip-rule="evenodd" d="M20.1722 38.8191C30.8524 38.8191 39.5105 30.161 39.5105 19.4808C39.5105 8.8006 30.8524 0.142578 20.1722 0.142578C9.49201 0.142578 0.833984 8.8006 0.833984 19.4808C0.833984 30.161 9.49201 38.8191 20.1722 38.8191ZM22.5895 12.229C22.5895 10.894 21.5072 9.8117 20.1722 9.8117C18.8372 9.8117 17.7549 10.894 17.7549 12.229V17.0635H12.9204C11.5854 17.0635 10.5031 18.1458 10.5031 19.4808C10.5031 20.8158 11.5854 21.8981 12.9204 21.8981H17.7549V26.7327C17.7549 28.0677 18.8372 29.1499 20.1722 29.1499C21.5072 29.1499 22.5895 28.0677 22.5895 26.7327V21.8981H27.4241C28.7591 21.8981 29.8413 20.8158 29.8413 19.4808C29.8413 18.1458 28.7591 17.0635 27.4241 17.0635H22.5895V12.229Z" fill="white"/>
</svg>
