<svg width="24" height="24" viewBox="0 0 24 24" fill="none" xmlns="http://www.w3.org/2000/svg">
<rect width="24" height="24" rx="12" fill="#C7FED3"/>
<path d="M17 16.625C17 16.83 16.83 17 16.625 17H7.375C7.17 17 7 16.83 7 16.625C7 16.42 7.17 16.25 7.375 16.25H16.625C16.83 16.25 17 16.42 17 16.625Z" fill="#292D32"/>
<path d="M13.6957 8.25988L8.3257 13.6299C8.1207 13.8349 7.7907 13.8349 7.5907 13.6299H7.5857C6.8907 12.9299 6.8907 11.7999 7.5857 11.1049L11.1607 7.52988C11.8607 6.82988 12.9907 6.82988 13.6907 7.52988C13.8957 7.72488 13.8957 8.05988 13.6957 8.25988Z" fill="#292D32"/>
<path d="M16.4107 10.2452L14.8857 8.72016C14.6807 8.51516 14.3507 8.51516 14.1507 8.72016L8.7807 14.0902C8.5757 14.2902 8.5757 14.6202 8.7807 14.8252L10.3057 16.3552C11.0057 17.0502 12.1357 17.0502 12.8357 16.3552L16.4057 12.7802C17.1157 12.0802 17.1157 10.9452 16.4107 10.2452ZM12.3807 14.7602L11.7757 15.3702C11.6507 15.4952 11.4457 15.4952 11.3157 15.3702C11.1907 15.2452 11.1907 15.0402 11.3157 14.9102L11.9257 14.3002C12.0457 14.1802 12.2557 14.1802 12.3807 14.3002C12.5057 14.4252 12.5057 14.6402 12.3807 14.7602ZM14.3657 12.7752L13.1457 14.0002C13.0207 14.1202 12.8157 14.1202 12.6857 14.0002C12.5607 13.8752 12.5607 13.6702 12.6857 13.5402L13.9107 12.3152C14.0307 12.1952 14.2407 12.1952 14.3657 12.3152C14.4907 12.4452 14.4907 12.6502 14.3657 12.7752Z" fill="#292D32"/>
</svg>
