<svg width="151" height="23" viewBox="0 0 151 23" fill="none" xmlns="http://www.w3.org/2000/svg">
<rect x="0.730469" y="1.22754" width="21.2591" height="21.2591" rx="10.6296" fill="#F8F8FA"/>
<path d="M12.4367 6.59233L13.528 8.77494C13.6768 9.07877 14.0736 9.37019 14.4085 9.426L16.3864 9.75463C17.6514 9.96545 17.949 10.8831 17.0375 11.7884L15.4998 13.3262C15.2393 13.5866 15.0967 14.0888 15.1773 14.4485L15.6176 16.352C15.9648 17.8588 15.1649 18.4416 13.8318 17.6542L11.9778 16.5567C11.643 16.3582 11.0912 16.3582 10.7501 16.5567L8.89615 17.6542C7.56923 18.4416 6.76315 17.8526 7.11038 16.352L7.55062 14.4485C7.63123 14.0888 7.48862 13.5866 7.22819 13.3262L5.69045 11.7884C4.78517 10.8831 5.07659 9.96545 6.34151 9.75463L8.3195 9.426C8.64813 9.37019 9.04496 9.07877 9.19378 8.77494L10.2851 6.59233C10.8803 5.40802 11.8476 5.40802 12.4367 6.59233Z" fill="#D57CFF"/>
<path d="M28.1376 15.8574H25.1344V6.58071H28.2327C29.1416 6.58071 29.9222 6.76643 30.5745 7.13786C31.2268 7.50627 31.7265 8.03624 32.0738 8.72776C32.4241 9.41627 32.5993 10.2422 32.5993 11.2055C32.5993 12.1718 32.4226 13.0022 32.0693 13.6968C31.719 14.3913 31.2117 14.9258 30.5473 15.3003C29.883 15.6717 29.0797 15.8574 28.1376 15.8574ZM26.5341 14.6344H28.0606C28.7672 14.6344 29.3545 14.5015 29.8226 14.2358C30.2906 13.9671 30.6409 13.579 30.8735 13.0717C31.106 12.5614 31.2222 11.9393 31.2222 11.2055C31.2222 10.4777 31.106 9.86017 30.8735 9.35285C30.644 8.84553 30.3012 8.46051 29.8452 8.19779C29.3893 7.93507 28.823 7.80371 28.1466 7.80371H26.5341V14.6344ZM34.2311 15.8574V8.89989H35.5854V15.8574H34.2311ZM34.915 7.82636C34.6795 7.82636 34.4772 7.74785 34.3081 7.59082C34.142 7.43077 34.0589 7.24053 34.0589 7.02008C34.0589 6.79662 34.142 6.60638 34.3081 6.44935C34.4772 6.2893 34.6795 6.20928 34.915 6.20928C35.1506 6.20928 35.3514 6.2893 35.5175 6.44935C35.6866 6.60638 35.7711 6.79662 35.7711 7.02008C35.7711 7.24053 35.6866 7.43077 35.5175 7.59082C35.3514 7.74785 35.1506 7.82636 34.915 7.82636ZM39.4322 16.0114C38.9913 16.0114 38.5927 15.9299 38.2364 15.7668C37.8801 15.6007 37.5977 15.3607 37.3894 15.0466C37.184 14.7326 37.0813 14.3475 37.0813 13.8916C37.0813 13.499 37.1568 13.1759 37.3078 12.9222C37.4588 12.6686 37.6626 12.4677 37.9193 12.3198C38.176 12.1718 38.4629 12.0601 38.78 11.9846C39.097 11.9091 39.4201 11.8517 39.7493 11.8124C40.166 11.7641 40.5042 11.7249 40.7639 11.6947C41.0236 11.6615 41.2124 11.6086 41.3301 11.5361C41.4479 11.4637 41.5068 11.3459 41.5068 11.1828V11.1511C41.5068 10.7555 41.3951 10.449 41.1716 10.2316C40.9512 10.0142 40.622 9.90547 40.1841 9.90547C39.7282 9.90547 39.3688 10.0066 39.1061 10.209C38.8464 10.4083 38.6667 10.6302 38.5671 10.8748L37.2942 10.5849C37.4452 10.1621 37.6657 9.82092 37.9556 9.56122C38.2485 9.2985 38.5852 9.10825 38.9657 8.99048C39.3462 8.86969 39.7463 8.8093 40.166 8.8093C40.4438 8.8093 40.7383 8.84251 41.0493 8.90895C41.3634 8.97236 41.6563 9.09013 41.9281 9.26226C42.2029 9.43439 42.4278 9.6805 42.603 10.0006C42.7781 10.3177 42.8657 10.7299 42.8657 11.2372V15.8574H41.543V14.9062H41.4887C41.4011 15.0813 41.2698 15.2535 41.0946 15.4226C40.9195 15.5917 40.6945 15.7321 40.4197 15.8438C40.1449 15.9556 39.8157 16.0114 39.4322 16.0114ZM39.7267 14.9243C40.1011 14.9243 40.4212 14.8503 40.6869 14.7024C40.9557 14.5544 41.1595 14.3611 41.2984 14.1226C41.4404 13.881 41.5113 13.6228 41.5113 13.348V12.4511C41.463 12.4994 41.3694 12.5447 41.2305 12.587C41.0946 12.6263 40.9391 12.661 40.7639 12.6912C40.5888 12.7184 40.4182 12.744 40.2521 12.7682C40.086 12.7893 39.9471 12.8075 39.8354 12.8226C39.5726 12.8558 39.3326 12.9116 39.1152 12.9902C38.9007 13.0687 38.7286 13.1819 38.5988 13.3299C38.4719 13.4748 38.4085 13.6681 38.4085 13.9097C38.4085 14.2449 38.5323 14.4985 38.78 14.6707C39.0276 14.8398 39.3431 14.9243 39.7267 14.9243ZM44.6696 15.8574V8.89989H45.9696V10.0323H46.0557C46.2006 9.64879 46.4377 9.34983 46.7669 9.13543C47.096 8.91801 47.4901 8.8093 47.9491 8.8093C48.4141 8.8093 48.8037 8.91801 49.1177 9.13543C49.4348 9.35285 49.6688 9.65181 49.8198 10.0323H49.8923C50.0584 9.66087 50.3226 9.36493 50.685 9.14449C51.0474 8.92103 51.4792 8.8093 51.9805 8.8093C52.6116 8.8093 53.1265 9.00709 53.5251 9.40268C53.9267 9.79827 54.1275 10.3947 54.1275 11.1919V15.8574H52.7732V11.3187C52.7732 10.8476 52.6448 10.5064 52.3881 10.295C52.1315 10.0836 51.825 9.97794 51.4686 9.97794C51.0277 9.97794 50.685 10.1138 50.4404 10.3856C50.1958 10.6544 50.0735 11.0001 50.0735 11.4229V15.8574H48.7237V11.2327C48.7237 10.8552 48.6059 10.5517 48.3703 10.3222C48.1348 10.0927 47.8283 9.97794 47.4508 9.97794C47.1942 9.97794 46.9571 10.0459 46.7397 10.1818C46.5253 10.3146 46.3516 10.5004 46.2188 10.7389C46.0889 10.9775 46.024 11.2538 46.024 11.5678V15.8574H44.6696ZM58.8735 15.9978C58.2212 15.9978 57.652 15.8484 57.1658 15.5494C56.6796 15.2504 56.3021 14.8322 56.0334 14.2947C55.7646 13.7572 55.6302 13.1291 55.6302 12.4104C55.6302 11.6886 55.7646 11.0575 56.0334 10.517C56.3021 9.97643 56.6796 9.55669 57.1658 9.25773C57.652 8.95877 58.2212 8.8093 58.8735 8.8093C59.5257 8.8093 60.095 8.95877 60.5811 9.25773C61.0673 9.55669 61.4448 9.97643 61.7135 10.517C61.9823 11.0575 62.1167 11.6886 62.1167 12.4104C62.1167 13.1291 61.9823 13.7572 61.7135 14.2947C61.4448 14.8322 61.0673 15.2504 60.5811 15.5494C60.095 15.8484 59.5257 15.9978 58.8735 15.9978ZM58.878 14.8609C59.3008 14.8609 59.651 14.7492 59.9289 14.5257C60.2067 14.3022 60.412 14.0048 60.5449 13.6334C60.6808 13.2619 60.7487 12.8528 60.7487 12.4058C60.7487 11.9619 60.6808 11.5543 60.5449 11.1828C60.412 10.8084 60.2067 10.5079 59.9289 10.2814C59.651 10.0549 59.3008 9.94171 58.878 9.94171C58.4522 9.94171 58.0989 10.0549 57.8181 10.2814C57.5402 10.5079 57.3334 10.8084 57.1975 11.1828C57.0646 11.5543 56.9982 11.9619 56.9982 12.4058C56.9982 12.8528 57.0646 13.2619 57.1975 13.6334C57.3334 14.0048 57.5402 14.3022 57.8181 14.5257C58.0989 14.7492 58.4522 14.8609 58.878 14.8609ZM64.9828 11.7264V15.8574H63.6285V8.89989H64.9285V10.0323H65.0145C65.1746 9.66389 65.4252 9.36795 65.7664 9.14449C66.1107 8.92103 66.544 8.8093 67.0665 8.8093C67.5406 8.8093 67.9558 8.90895 68.3121 9.10825C68.6684 9.30454 68.9447 9.59745 69.141 9.987C69.3373 10.3766 69.4355 10.8582 69.4355 11.432V15.8574H68.0811V11.595C68.0811 11.0907 67.9497 10.6966 67.687 10.4128C67.4243 10.1259 67.0634 9.98247 66.6044 9.98247C66.2904 9.98247 66.0111 10.0504 65.7664 10.1863C65.5249 10.3222 65.3331 10.5215 65.1912 10.7842C65.0523 11.0439 64.9828 11.358 64.9828 11.7264ZM73.8564 15.9933C73.2947 15.9933 72.7934 15.8499 72.3526 15.563C71.9147 15.2731 71.5704 14.8609 71.3198 14.3264C71.0722 13.7889 70.9484 13.1442 70.9484 12.3922C70.9484 11.6403 71.0737 10.9971 71.3243 10.4626C71.578 9.92812 71.9253 9.51894 72.3661 9.23508C72.807 8.95122 73.3068 8.8093 73.8655 8.8093C74.2973 8.8093 74.6446 8.88177 74.9073 9.02672C75.173 9.16865 75.3784 9.33473 75.5233 9.52498C75.6713 9.71522 75.786 9.88282 75.8676 10.0278H75.9491V6.58071H77.3035V15.8574H75.9808V14.7748H75.8676C75.786 14.9228 75.6683 15.0919 75.5142 15.2822C75.3633 15.4724 75.1549 15.6385 74.8892 15.7804C74.6234 15.9223 74.2792 15.9933 73.8564 15.9933ZM74.1553 14.8383C74.5449 14.8383 74.8741 14.7356 75.1428 14.5302C75.4146 14.3219 75.6199 14.0335 75.7588 13.6651C75.9008 13.2967 75.9717 12.8679 75.9717 12.3787C75.9717 11.8955 75.9023 11.4727 75.7634 11.1104C75.6245 10.748 75.4206 10.4656 75.1519 10.2633C74.8831 10.061 74.5509 9.95982 74.1553 9.95982C73.7477 9.95982 73.408 10.0655 73.1362 10.2769C72.8644 10.4883 72.6591 10.7767 72.5201 11.1421C72.3843 11.5075 72.3163 11.9197 72.3163 12.3787C72.3163 12.8437 72.3858 13.2619 72.5247 13.6334C72.6636 14.0048 72.8689 14.2992 73.1407 14.5166C73.4155 14.7311 73.7537 14.8383 74.1553 14.8383Z" fill="#344054"/>
<path d="M85.4941 16.1091L89.746 11.8573L85.4941 7.60547" stroke="#344054" stroke-width="1.59443" stroke-linecap="round" stroke-linejoin="round"/>
<path d="M122.891 14.0456V12.9132L126.9 6.58071H127.792V8.24762H127.226L124.359 12.7863V12.8588H129.853V14.0456H122.891ZM127.289 15.8574V13.7013L127.298 13.1849V6.58071H128.626V15.8574H127.289ZM134.661 16.0114C133.946 16.0084 133.334 15.8197 132.827 15.4452C132.32 15.0708 131.932 14.5257 131.663 13.81C131.394 13.0943 131.26 12.2322 131.26 11.2236C131.26 10.218 131.394 9.35889 131.663 8.64623C131.935 7.93356 132.324 7.39001 132.831 7.01556C133.342 6.64111 133.952 6.45388 134.661 6.45388C135.371 6.45388 135.98 6.64261 136.487 7.02008C136.994 7.39454 137.382 7.93809 137.651 8.65076C137.923 9.3604 138.059 10.218 138.059 11.2236C138.059 12.2352 137.924 13.0989 137.656 13.8146C137.387 14.5272 136.999 15.0723 136.491 15.4498C135.984 15.8242 135.374 16.0114 134.661 16.0114ZM134.661 14.802C135.29 14.802 135.78 14.4955 136.134 13.8825C136.49 13.2695 136.668 12.3832 136.668 11.2236C136.668 10.4536 136.587 9.8028 136.423 9.27132C136.263 8.73682 136.032 8.33217 135.73 8.05737C135.431 7.77956 135.075 7.64065 134.661 7.64065C134.036 7.64065 133.546 7.94866 133.189 8.56469C132.833 9.18073 132.653 10.067 132.65 11.2236C132.65 11.9967 132.73 12.6504 132.89 13.1849C133.053 13.7164 133.284 14.1195 133.583 14.3943C133.882 14.6661 134.242 14.802 134.661 14.802ZM144.508 14.118V13.6288C144.508 13.2785 144.58 12.9584 144.725 12.6686C144.873 12.3756 145.088 12.1416 145.368 11.9665C145.652 11.7883 145.995 11.6992 146.397 11.6992C146.807 11.6992 147.152 11.7868 147.429 11.9619C147.707 12.1371 147.917 12.3711 148.059 12.664C148.204 12.9569 148.276 13.2785 148.276 13.6288V14.118C148.276 14.4683 148.204 14.7899 148.059 15.0829C147.914 15.3727 147.701 15.6068 147.42 15.7849C147.142 15.9601 146.801 16.0477 146.397 16.0477C145.989 16.0477 145.645 15.9601 145.364 15.7849C145.083 15.6068 144.87 15.3727 144.725 15.0829C144.58 14.7899 144.508 14.4683 144.508 14.118ZM145.563 13.6288V14.118C145.563 14.3777 145.625 14.6133 145.749 14.8247C145.873 15.036 146.089 15.1417 146.397 15.1417C146.702 15.1417 146.914 15.036 147.035 14.8247C147.156 14.6133 147.216 14.3777 147.216 14.118V13.6288C147.216 13.3691 147.158 13.1336 147.04 12.9222C146.925 12.7108 146.711 12.6051 146.397 12.6051C146.095 12.6051 145.88 12.7108 145.753 12.9222C145.627 13.1336 145.563 13.3691 145.563 13.6288ZM139.842 8.8093V8.32009C139.842 7.9698 139.915 7.6482 140.06 7.35528C140.208 7.06236 140.422 6.82833 140.703 6.65318C140.987 6.47804 141.329 6.39046 141.731 6.39046C142.142 6.39046 142.486 6.47804 142.764 6.65318C143.042 6.82833 143.251 7.06236 143.393 7.35528C143.535 7.6482 143.606 7.9698 143.606 8.32009V8.8093C143.606 9.15959 143.534 9.48119 143.389 9.77411C143.247 10.064 143.036 10.298 142.755 10.4762C142.477 10.6514 142.136 10.7389 141.731 10.7389C141.32 10.7389 140.975 10.6514 140.694 10.4762C140.416 10.298 140.205 10.064 140.06 9.77411C139.915 9.48119 139.842 9.15959 139.842 8.8093ZM140.902 8.32009V8.8093C140.902 9.06899 140.963 9.30454 141.083 9.51592C141.207 9.7273 141.423 9.83299 141.731 9.83299C142.033 9.83299 142.244 9.7273 142.365 9.51592C142.489 9.30454 142.551 9.06899 142.551 8.8093V8.32009C142.551 8.06039 142.492 7.82485 142.374 7.61347C142.256 7.40209 142.042 7.29639 141.731 7.29639C141.429 7.29639 141.215 7.40209 141.088 7.61347C140.964 7.82485 140.902 8.06039 140.902 8.32009ZM140.273 15.8574L146.65 6.58071H147.733L141.355 15.8574H140.273Z" fill="#667085"/>
</svg>
