<svg width="459" height="444" viewBox="0 0 459 444" fill="none" xmlns="http://www.w3.org/2000/svg">
<rect x="82" y="171" width="320" height="103" rx="10.3474" fill="#0B40EE"/>
<path d="M184.704 212.282C184.76 212.999 185.049 213.578 185.574 214.02C186.112 214.448 186.822 214.661 187.705 214.661C188.436 214.661 189.03 214.51 189.485 214.206C189.954 213.889 190.188 213.454 190.188 212.902C190.188 212.516 190.057 212.213 189.795 211.992C189.547 211.757 189.188 211.578 188.719 211.454C188.264 211.316 187.553 211.15 186.588 210.957C185.636 210.778 184.835 210.55 184.187 210.274C183.539 209.984 183.007 209.564 182.593 209.012C182.193 208.446 181.993 207.701 181.993 206.777C181.993 205.935 182.221 205.183 182.676 204.521C183.145 203.859 183.787 203.341 184.601 202.969C185.429 202.583 186.36 202.39 187.395 202.39C188.457 202.39 189.409 202.59 190.251 202.99C191.106 203.376 191.775 203.914 192.258 204.604C192.755 205.294 193.01 206.073 193.024 206.942H189.982C189.913 206.322 189.65 205.825 189.195 205.452C188.74 205.066 188.14 204.873 187.395 204.873C186.705 204.873 186.153 205.018 185.739 205.307C185.325 205.597 185.118 206.011 185.118 206.549C185.118 206.935 185.242 207.239 185.491 207.46C185.739 207.667 186.091 207.839 186.546 207.977C187.001 208.101 187.705 208.253 188.657 208.432C189.623 208.612 190.437 208.839 191.099 209.115C191.761 209.377 192.292 209.784 192.693 210.336C193.106 210.874 193.313 211.599 193.313 212.509C193.313 213.392 193.072 214.186 192.589 214.889C192.106 215.579 191.43 216.124 190.561 216.524C189.706 216.924 188.74 217.124 187.664 217.124C186.505 217.124 185.47 216.917 184.559 216.503C183.663 216.076 182.959 215.489 182.449 214.744C181.938 213.999 181.676 213.165 181.662 212.24L184.704 212.282ZM193.813 206.363H196.896L199.028 213.854L201.035 206.363H203.664L205.609 213.875L207.782 206.363H210.762L207.264 217H204.16L202.298 210.585L200.394 217H197.29L193.813 206.363ZM213.252 201.934C213.735 201.934 214.135 202.093 214.452 202.41C214.77 202.714 214.928 203.1 214.928 203.569C214.928 204.038 214.77 204.431 214.452 204.749C214.135 205.066 213.735 205.225 213.252 205.225C212.769 205.225 212.362 205.066 212.031 204.749C211.714 204.431 211.555 204.038 211.555 203.569C211.555 203.1 211.714 202.714 212.031 202.41C212.362 202.093 212.769 201.934 213.252 201.934ZM211.783 206.363H214.701V217H211.783V206.363ZM217.417 208.826H215.658V206.363H217.417V203.383H220.335V206.363H222.756V208.826H220.335V213.482C220.335 213.854 220.411 214.123 220.563 214.289C220.728 214.455 220.997 214.537 221.37 214.537H222.881V217H220.459C218.431 217 217.417 215.986 217.417 213.958V208.826ZM234.172 212.965C233.979 214.261 233.427 215.282 232.517 216.027C231.62 216.759 230.454 217.124 229.019 217.124C227.916 217.124 226.95 216.903 226.122 216.462C225.294 216.007 224.653 215.365 224.197 214.537C223.756 213.71 223.535 212.758 223.535 211.681C223.535 210.592 223.756 209.64 224.197 208.826C224.653 207.998 225.294 207.363 226.122 206.922C226.964 206.466 227.936 206.239 229.04 206.239C230.461 206.239 231.62 206.604 232.517 207.336C233.413 208.053 233.965 209.053 234.172 210.336H231.151C231.027 209.812 230.778 209.398 230.406 209.095C230.033 208.777 229.571 208.619 229.019 208.619C228.26 208.619 227.653 208.901 227.198 209.467C226.743 210.033 226.515 210.771 226.515 211.681C226.515 212.592 226.743 213.33 227.198 213.896C227.653 214.461 228.26 214.744 229.019 214.744C229.585 214.744 230.054 214.586 230.427 214.268C230.813 213.951 231.061 213.516 231.172 212.965H234.172ZM241.815 206.239C243.071 206.239 244.098 206.625 244.899 207.398C245.713 208.17 246.12 209.446 246.12 211.226V217H243.202V211.35C243.202 210.467 243.022 209.798 242.664 209.343C242.305 208.874 241.767 208.639 241.049 208.639C240.304 208.639 239.718 208.895 239.29 209.405C238.876 209.916 238.67 210.626 238.67 211.537V217H235.752V202.514H238.67V207.667C239.456 206.715 240.504 206.239 241.815 206.239ZM253.774 208.826H252.015V206.363H253.774V203.383H256.692V206.363H259.114V208.826H256.692V213.482C256.692 213.854 256.768 214.123 256.92 214.289C257.086 214.455 257.355 214.537 257.727 214.537H259.238V217H256.816C254.788 217 253.774 215.986 253.774 213.958V208.826ZM266.532 206.239C267.787 206.239 268.815 206.625 269.615 207.398C270.429 208.17 270.836 209.446 270.836 211.226V217H267.918V211.35C267.918 210.467 267.739 209.798 267.38 209.343C267.021 208.874 266.483 208.639 265.766 208.639C265.021 208.639 264.434 208.895 264.007 209.405C263.593 209.916 263.386 210.626 263.386 211.537V217H260.468V202.514H263.386V207.667C264.172 206.715 265.221 206.239 266.532 206.239ZM279.152 206.363V209.012H277.993C277.165 209.012 276.558 209.26 276.172 209.757C275.786 210.254 275.593 210.93 275.593 211.785V217H272.675V206.363H275.324L275.593 207.956C275.91 207.432 276.303 207.039 276.772 206.777C277.241 206.501 277.869 206.363 278.655 206.363H279.152ZM285.306 217.124C284.189 217.124 283.202 216.903 282.347 216.462C281.505 216.007 280.85 215.365 280.381 214.537C279.926 213.71 279.698 212.758 279.698 211.681C279.698 210.605 279.926 209.653 280.381 208.826C280.85 207.998 281.505 207.363 282.347 206.922C283.202 206.466 284.189 206.239 285.306 206.239C286.424 206.239 287.403 206.466 288.245 206.922C289.1 207.363 289.756 207.998 290.211 208.826C290.68 209.653 290.914 210.605 290.914 211.681C290.914 212.771 290.68 213.73 290.211 214.558C289.756 215.372 289.1 216.007 288.245 216.462C287.403 216.903 286.424 217.124 285.306 217.124ZM285.306 214.744C286.12 214.744 286.762 214.461 287.231 213.896C287.714 213.33 287.955 212.592 287.955 211.681C287.955 210.771 287.714 210.033 287.231 209.467C286.762 208.901 286.12 208.619 285.306 208.619C284.506 208.619 283.864 208.901 283.382 209.467C282.912 210.033 282.678 210.771 282.678 211.681C282.678 212.592 282.912 213.33 283.382 213.896C283.864 214.461 284.506 214.744 285.306 214.744ZM302.537 206.363V217H299.95L299.681 215.717C299.308 216.158 298.874 216.503 298.377 216.752C297.88 217 297.273 217.124 296.556 217.124C295.314 217.124 294.3 216.745 293.514 215.986C292.727 215.213 292.334 213.93 292.334 212.137V206.363H295.252V211.785C295.252 212.751 295.418 213.482 295.749 213.979C296.094 214.461 296.618 214.703 297.322 214.703C298.053 214.703 298.619 214.434 299.019 213.896C299.419 213.344 299.619 212.578 299.619 211.599V206.363H302.537ZM315.203 206.363V216.69C315.203 218.083 314.74 219.194 313.816 220.021C312.892 220.849 311.457 221.263 309.512 221.263C308.008 221.263 306.794 220.932 305.869 220.27C304.945 219.608 304.448 218.669 304.379 217.455H307.318C307.456 217.966 307.725 218.359 308.125 218.635C308.539 218.911 309.077 219.049 309.739 219.049C310.567 219.049 311.208 218.842 311.664 218.428C312.119 218.014 312.347 217.4 312.347 216.586V215.469C311.574 216.448 310.477 216.938 309.056 216.938C308.118 216.938 307.276 216.717 306.531 216.276C305.786 215.834 305.2 215.213 304.772 214.413C304.359 213.599 304.152 212.654 304.152 211.578C304.152 210.516 304.359 209.578 304.772 208.764C305.2 207.95 305.786 207.322 306.531 206.88C307.29 206.439 308.139 206.218 309.077 206.218C310.47 206.218 311.574 206.756 312.388 207.832L312.636 206.363H315.203ZM309.739 214.599C310.526 214.599 311.153 214.323 311.622 213.772C312.091 213.22 312.326 212.502 312.326 211.619C312.326 210.723 312.091 209.991 311.622 209.426C311.153 208.86 310.526 208.577 309.739 208.577C308.953 208.577 308.318 208.86 307.835 209.426C307.366 209.978 307.132 210.702 307.132 211.599C307.132 212.495 307.366 213.22 307.835 213.772C308.318 214.323 308.953 214.599 309.739 214.599ZM323.3 206.239C324.556 206.239 325.584 206.625 326.384 207.398C327.198 208.17 327.605 209.446 327.605 211.226V217H324.687V211.35C324.687 210.467 324.508 209.798 324.149 209.343C323.79 208.874 323.252 208.639 322.535 208.639C321.79 208.639 321.203 208.895 320.776 209.405C320.362 209.916 320.155 210.626 320.155 211.537V217H317.237V202.514H320.155V207.667C320.941 206.715 321.99 206.239 323.3 206.239ZM188.16 235.239C189.112 235.239 189.954 235.466 190.685 235.922C191.43 236.363 192.01 236.998 192.423 237.826C192.851 238.653 193.065 239.612 193.065 240.702C193.065 241.792 192.851 242.744 192.423 243.558C192.01 244.372 191.43 245.007 190.685 245.462C189.94 245.903 189.092 246.124 188.14 246.124C186.774 246.124 185.705 245.634 184.932 244.655V250.139H182.014V235.363H184.559L184.849 236.832C185.208 236.349 185.663 235.963 186.215 235.673C186.781 235.384 187.429 235.239 188.16 235.239ZM187.477 243.744C188.264 243.744 188.898 243.461 189.381 242.896C189.864 242.316 190.106 241.571 190.106 240.661C190.106 239.75 189.864 239.019 189.381 238.467C188.898 237.901 188.264 237.619 187.477 237.619C186.691 237.619 186.063 237.901 185.594 238.467C185.125 239.019 184.891 239.75 184.891 240.661C184.891 241.585 185.125 242.33 185.594 242.896C186.063 243.461 186.691 243.744 187.477 243.744ZM201.163 235.363V238.012H200.004C199.176 238.012 198.569 238.26 198.183 238.757C197.797 239.254 197.603 239.93 197.603 240.785V246H194.686V235.363H197.334L197.603 236.956C197.921 236.432 198.314 236.039 198.783 235.777C199.252 235.501 199.88 235.363 200.666 235.363H201.163ZM201.709 240.702C201.709 239.598 201.93 238.64 202.371 237.826C202.826 236.998 203.454 236.363 204.254 235.922C205.068 235.466 206.006 235.239 207.069 235.239C208.145 235.239 209.09 235.453 209.904 235.88C210.732 236.294 211.373 236.887 211.828 237.66C212.298 238.419 212.539 239.316 212.553 240.35C212.553 240.723 212.525 241.054 212.47 241.344H204.751V241.426C204.82 242.199 205.068 242.806 205.496 243.248C205.924 243.689 206.51 243.91 207.255 243.91C207.848 243.91 208.338 243.786 208.724 243.537C209.124 243.275 209.387 242.896 209.511 242.399H212.387C212.277 243.103 212.008 243.737 211.58 244.303C211.152 244.869 210.587 245.317 209.883 245.648C209.18 245.966 208.372 246.124 207.462 246.124C206.275 246.124 205.248 245.903 204.378 245.462C203.523 245.02 202.861 244.393 202.392 243.579C201.936 242.751 201.709 241.792 201.709 240.702ZM209.635 239.44C209.538 238.791 209.269 238.295 208.828 237.95C208.4 237.591 207.855 237.412 207.193 237.412C206.558 237.412 206.02 237.598 205.579 237.97C205.151 238.329 204.896 238.819 204.813 239.44H209.635ZM214.79 235.363V234.432C214.79 233.494 215.059 232.776 215.597 232.279C216.135 231.769 216.935 231.514 217.998 231.514H220.377V233.997H218.577C218.274 233.997 218.053 234.066 217.915 234.204C217.777 234.342 217.708 234.563 217.708 234.866V235.363H220.377V237.826H217.708V246H214.79V237.826H213.031V235.363H214.79ZM221.463 234.432C221.463 233.494 221.732 232.776 222.27 232.279C222.808 231.769 223.609 231.514 224.671 231.514H227.051V233.997H225.25C224.671 233.997 224.381 234.287 224.381 234.866V235.363H227.051V237.826H224.381V246H221.463V234.432ZM227.355 240.702C227.355 239.598 227.576 238.64 228.017 237.826C228.472 236.998 229.1 236.363 229.9 235.922C230.714 235.466 231.652 235.239 232.715 235.239C233.791 235.239 234.736 235.453 235.55 235.88C236.378 236.294 237.019 236.887 237.475 237.66C237.944 238.419 238.185 239.316 238.199 240.35C238.199 240.723 238.171 241.054 238.116 241.344H230.397V241.426C230.466 242.199 230.714 242.806 231.142 243.248C231.57 243.689 232.156 243.91 232.901 243.91C233.494 243.91 233.984 243.786 234.37 243.537C234.77 243.275 235.033 242.896 235.157 242.399H238.033C237.923 243.103 237.654 243.737 237.226 244.303C236.799 244.869 236.233 245.317 235.529 245.648C234.826 245.966 234.019 246.124 233.108 246.124C231.921 246.124 230.894 245.903 230.024 245.462C229.169 245.02 228.507 244.393 228.038 243.579C227.582 242.751 227.355 241.792 227.355 240.702ZM235.281 239.44C235.184 238.791 234.915 238.295 234.474 237.95C234.046 237.591 233.501 237.412 232.839 237.412C232.204 237.412 231.666 237.598 231.225 237.97C230.797 238.329 230.542 238.819 230.459 239.44H235.281ZM246.271 235.363V238.012H245.112C244.284 238.012 243.677 238.26 243.291 238.757C242.905 239.254 242.711 239.93 242.711 240.785V246H239.793V235.363H242.442L242.711 236.956C243.029 236.432 243.422 236.039 243.891 235.777C244.36 235.501 244.988 235.363 245.774 235.363H246.271ZM246.817 240.702C246.817 239.598 247.037 238.64 247.479 237.826C247.934 236.998 248.562 236.363 249.362 235.922C250.176 235.466 251.114 235.239 252.177 235.239C253.253 235.239 254.198 235.453 255.012 235.88C255.84 236.294 256.481 236.887 256.936 237.66C257.406 238.419 257.647 239.316 257.661 240.35C257.661 240.723 257.633 241.054 257.578 241.344H249.859V241.426C249.928 242.199 250.176 242.806 250.604 243.248C251.032 243.689 251.618 243.91 252.363 243.91C252.956 243.91 253.446 243.786 253.832 243.537C254.232 243.275 254.494 242.896 254.619 242.399H257.495C257.385 243.103 257.116 243.737 256.688 244.303C256.26 244.869 255.695 245.317 254.991 245.648C254.288 245.966 253.48 246.124 252.57 246.124C251.383 246.124 250.356 245.903 249.486 245.462C248.631 245.02 247.969 244.393 247.5 243.579C247.044 242.751 246.817 241.792 246.817 240.702ZM254.743 239.44C254.646 238.791 254.377 238.295 253.936 237.95C253.508 237.591 252.963 237.412 252.301 237.412C251.666 237.412 251.128 237.598 250.687 237.97C250.259 238.329 250.004 238.819 249.921 239.44H254.743ZM269.892 231.514V246H267.347L267.057 244.531C266.243 245.593 265.14 246.124 263.746 246.124C262.808 246.124 261.966 245.903 261.221 245.462C260.476 245.007 259.89 244.365 259.462 243.537C259.048 242.71 258.842 241.751 258.842 240.661C258.842 239.585 259.048 238.64 259.462 237.826C259.89 236.998 260.476 236.363 261.221 235.922C261.98 235.466 262.829 235.239 263.767 235.239C265.146 235.239 266.216 235.722 266.975 236.687V231.514H269.892ZM264.429 243.744C265.215 243.744 265.843 243.468 266.312 242.916C266.781 242.351 267.016 241.613 267.016 240.702C267.016 239.778 266.781 239.033 266.312 238.467C265.843 237.901 265.215 237.619 264.429 237.619C263.643 237.619 263.008 237.901 262.525 238.467C262.056 239.033 261.822 239.771 261.822 240.681C261.822 241.592 262.056 242.33 262.525 242.896C263.008 243.461 263.643 243.744 264.429 243.744ZM279.75 241.282C279.806 241.999 280.095 242.578 280.62 243.02C281.158 243.448 281.868 243.661 282.751 243.661C283.482 243.661 284.076 243.51 284.531 243.206C285 242.889 285.235 242.454 285.235 241.902C285.235 241.516 285.103 241.213 284.841 240.992C284.593 240.757 284.234 240.578 283.765 240.454C283.31 240.316 282.599 240.15 281.634 239.957C280.682 239.778 279.881 239.55 279.233 239.274C278.585 238.984 278.053 238.564 277.64 238.012C277.239 237.446 277.039 236.701 277.039 235.777C277.039 234.935 277.267 234.183 277.722 233.521C278.191 232.859 278.833 232.341 279.647 231.969C280.475 231.583 281.406 231.39 282.441 231.39C283.503 231.39 284.455 231.59 285.297 231.99C286.152 232.376 286.821 232.914 287.304 233.604C287.801 234.294 288.056 235.073 288.07 235.942H285.028C284.959 235.322 284.696 234.825 284.241 234.452C283.786 234.066 283.186 233.873 282.441 233.873C281.751 233.873 281.199 234.018 280.785 234.307C280.371 234.597 280.164 235.011 280.164 235.549C280.164 235.935 280.288 236.239 280.537 236.46C280.785 236.667 281.137 236.839 281.592 236.977C282.048 237.101 282.751 237.253 283.703 237.432C284.669 237.612 285.483 237.839 286.145 238.115C286.807 238.377 287.338 238.784 287.739 239.336C288.152 239.874 288.359 240.599 288.359 241.509C288.359 242.392 288.118 243.186 287.635 243.889C287.152 244.579 286.476 245.124 285.607 245.524C284.752 245.924 283.786 246.124 282.71 246.124C281.551 246.124 280.516 245.917 279.606 245.503C278.709 245.076 278.005 244.489 277.495 243.744C276.984 242.999 276.722 242.165 276.708 241.24L279.75 241.282ZM289.58 240.702C289.58 239.598 289.801 238.64 290.243 237.826C290.698 236.998 291.326 236.363 292.126 235.922C292.94 235.466 293.878 235.239 294.94 235.239C296.016 235.239 296.962 235.453 297.776 235.88C298.603 236.294 299.245 236.887 299.7 237.66C300.169 238.419 300.411 239.316 300.424 240.35C300.424 240.723 300.397 241.054 300.342 241.344H292.623V241.426C292.692 242.199 292.94 242.806 293.368 243.248C293.795 243.689 294.382 243.91 295.127 243.91C295.72 243.91 296.21 243.786 296.596 243.537C296.996 243.275 297.258 242.896 297.382 242.399H300.259C300.148 243.103 299.879 243.737 299.452 244.303C299.024 244.869 298.458 245.317 297.755 245.648C297.051 245.966 296.244 246.124 295.334 246.124C294.147 246.124 293.119 245.903 292.25 245.462C291.395 245.02 290.732 244.393 290.263 243.579C289.808 242.751 289.58 241.792 289.58 240.702ZM297.506 239.44C297.41 238.791 297.141 238.295 296.699 237.95C296.272 237.591 295.727 237.412 295.064 237.412C294.43 237.412 293.892 237.598 293.45 237.97C293.023 238.329 292.767 238.819 292.685 239.44H297.506ZM312.242 241.965C312.049 243.261 311.497 244.282 310.587 245.027C309.69 245.759 308.524 246.124 307.089 246.124C305.986 246.124 305.02 245.903 304.192 245.462C303.364 245.007 302.723 244.365 302.267 243.537C301.826 242.71 301.605 241.758 301.605 240.681C301.605 239.592 301.826 238.64 302.267 237.826C302.723 236.998 303.364 236.363 304.192 235.922C305.034 235.466 306.006 235.239 307.11 235.239C308.531 235.239 309.69 235.604 310.587 236.336C311.483 237.053 312.035 238.053 312.242 239.336H309.221C309.097 238.812 308.848 238.398 308.476 238.095C308.103 237.777 307.641 237.619 307.089 237.619C306.33 237.619 305.723 237.901 305.268 238.467C304.813 239.033 304.585 239.771 304.585 240.681C304.585 241.592 304.813 242.33 305.268 242.896C305.723 243.461 306.33 243.744 307.089 243.744C307.655 243.744 308.124 243.586 308.496 243.268C308.883 242.951 309.131 242.516 309.242 241.965H312.242ZM323.838 235.363V246H321.251L320.982 244.717C320.609 245.158 320.175 245.503 319.678 245.752C319.181 246 318.574 246.124 317.857 246.124C316.615 246.124 315.601 245.745 314.815 244.986C314.028 244.213 313.635 242.93 313.635 241.137V235.363H316.553V240.785C316.553 241.751 316.719 242.482 317.05 242.979C317.395 243.461 317.919 243.703 318.623 243.703C319.354 243.703 319.92 243.434 320.32 242.896C320.72 242.344 320.92 241.578 320.92 240.599V235.363H323.838ZM332.344 235.363V238.012H331.185C330.357 238.012 329.75 238.26 329.364 238.757C328.978 239.254 328.784 239.93 328.784 240.785V246H325.866V235.363H328.515L328.784 236.956C329.102 236.432 329.495 236.039 329.964 235.777C330.433 235.501 331.061 235.363 331.847 235.363H332.344ZM335.117 230.934C335.599 230.934 335.999 231.093 336.317 231.41C336.634 231.714 336.793 232.1 336.793 232.569C336.793 233.038 336.634 233.431 336.317 233.749C335.999 234.066 335.599 234.225 335.117 234.225C334.634 234.225 334.227 234.066 333.896 233.749C333.578 233.431 333.42 233.038 333.42 232.569C333.42 232.1 333.578 231.714 333.896 231.41C334.227 231.093 334.634 230.934 335.117 230.934ZM333.647 235.363H336.565V246H333.647V235.363ZM339.281 237.826H337.522V235.363H339.281V232.383H342.199V235.363H344.621V237.826H342.199V242.482C342.199 242.854 342.275 243.123 342.427 243.289C342.593 243.455 342.862 243.537 343.234 243.537H344.745V246H342.324C340.296 246 339.281 244.986 339.281 242.958V237.826ZM348.045 235.363L350.631 242.999L353.156 235.363H356.281L351.563 247.511C351.314 248.159 351.08 248.663 350.859 249.021C350.638 249.394 350.355 249.67 350.011 249.849C349.679 250.042 349.245 250.139 348.707 250.139H345.872V247.676H347.486C347.858 247.676 348.127 247.614 348.293 247.49C348.458 247.366 348.617 247.124 348.769 246.766L349.038 246.062L344.94 235.363H348.045Z" fill="#FAFAFA"/>
<path d="M148.18 224.633C148.18 230.682 143.257 235.586 137.185 235.586C131.114 235.586 126.191 230.682 126.191 224.633C126.191 218.584 131.114 213.68 137.185 213.68C143.257 213.68 148.18 218.584 148.18 224.633Z" fill="#FFC947"/>
<path fill-rule="evenodd" clip-rule="evenodd" d="M147.492 222.58C147.492 229.385 141.955 234.902 135.124 234.902C128.293 234.902 122.756 229.385 122.756 222.58C122.756 215.775 128.293 210.258 135.124 210.258C141.955 210.258 147.492 215.775 147.492 222.58ZM135.124 233.533C141.196 233.533 146.118 228.629 146.118 222.58C146.118 216.531 141.196 211.627 135.124 211.627C129.052 211.627 124.13 216.531 124.13 222.58C124.13 228.629 129.052 233.533 135.124 233.533Z" fill="white"/>
<path fill-rule="evenodd" clip-rule="evenodd" d="M156.445 228.224C157.821 233.706 157.055 238.488 154.073 241.46C151.09 244.431 146.29 245.194 140.787 243.823C135.3 242.457 129.243 238.989 123.949 233.715C118.655 228.44 115.174 222.405 113.802 216.939C112.427 211.456 113.192 206.674 116.175 203.703C119.157 200.731 123.957 199.969 129.46 201.339C134.947 202.706 141.005 206.174 146.299 211.448C151.593 216.722 155.073 222.757 156.445 228.224ZM157.778 227.892C156.337 222.146 152.71 215.899 147.271 210.48C141.831 205.06 135.561 201.447 129.793 200.011C124.042 198.578 118.661 199.29 115.203 202.735C111.745 206.179 111.031 211.54 112.469 217.271C113.911 223.016 117.537 229.263 122.977 234.683C128.417 240.102 134.687 243.715 140.454 245.151C146.206 246.584 151.587 245.873 155.045 242.428C158.502 238.983 159.216 233.622 157.778 227.892Z" fill="white" stroke="white" stroke-width="0.517367"/>
<path fill-rule="evenodd" clip-rule="evenodd" d="M113.803 228.224C112.427 233.706 113.193 238.488 116.175 241.46C119.158 244.431 123.958 245.194 129.461 243.823C134.948 242.457 141.006 238.989 146.299 233.715C151.593 228.44 155.074 222.405 156.446 216.939C157.822 211.456 157.056 206.674 154.073 203.703C151.091 200.731 146.291 199.969 140.788 201.339C135.301 202.706 129.243 206.174 123.949 211.448C118.655 216.722 115.175 222.757 113.803 228.224ZM112.47 227.892C113.911 222.146 117.538 215.899 122.977 210.48C128.417 205.06 134.687 201.447 140.455 200.011C146.207 198.578 151.587 199.29 155.045 202.735C158.503 206.179 159.217 211.54 157.779 217.271C156.337 223.016 152.711 229.263 147.271 234.683C141.831 240.102 135.561 243.715 129.794 245.151C124.042 246.584 118.661 245.873 115.203 242.428C111.746 238.983 111.032 233.622 112.47 227.892Z" fill="white" stroke="white" stroke-width="0.517367"/>
<path fill-rule="evenodd" clip-rule="evenodd" d="M135.126 217.787C132.469 217.787 130.316 219.933 130.316 222.579C130.316 225.226 132.469 227.371 135.126 227.371C137.782 227.371 139.935 225.226 139.935 222.579C139.935 219.933 137.782 217.787 135.126 217.787ZM128.941 222.579C128.941 219.176 131.71 216.418 135.126 216.418C138.541 216.418 141.31 219.176 141.31 222.579C141.31 225.982 138.541 228.74 135.126 228.74C131.71 228.74 128.941 225.982 128.941 222.579Z" fill="white"/>
<path opacity="0.7" d="M203.5 277V334M203.5 334L219 315.927M203.5 334L188 315.927" stroke="#12141D" stroke-width="3.1042" stroke-linecap="round" stroke-linejoin="round"/>
<ellipse cx="203.934" cy="270.524" rx="8.27788" ry="8.24705" fill="#FFC947"/>
<path d="M210.66 270.524C210.66 274.216 207.654 277.219 203.934 277.219C200.214 277.219 197.208 274.216 197.208 270.524C197.208 266.832 200.214 263.829 203.934 263.829C207.654 263.829 210.66 266.832 210.66 270.524Z" stroke="#12141D" stroke-opacity="0.7" stroke-width="3.1042"/>
<g filter="url(#filter0_d_1566_9544)">
<rect x="13" y="337" width="364" height="88" rx="24" fill="#F7F7F7"/>
<path d="M101.088 366.8H108.224V368.08H102.48V371.664H107.264V372.944H102.48V376.72H108.432V378H101.088V366.8ZM113.802 369.744C114.794 369.744 115.589 370.043 116.186 370.64C116.794 371.237 117.098 372.176 117.098 373.456V378H115.786V373.536C115.786 372.693 115.594 372.053 115.21 371.616C114.837 371.168 114.293 370.944 113.578 370.944C112.81 370.944 112.208 371.211 111.77 371.744C111.333 372.277 111.114 373.003 111.114 373.92V378H109.802V369.84H110.938L111.114 370.944C111.733 370.144 112.629 369.744 113.802 369.744ZM126.403 376.8V378H125.683C125.16 378 124.787 377.893 124.563 377.68C124.339 377.467 124.222 377.152 124.211 376.736C123.582 377.643 122.67 378.096 121.475 378.096C120.568 378.096 119.838 377.883 119.283 377.456C118.739 377.029 118.467 376.448 118.467 375.712C118.467 374.891 118.744 374.261 119.299 373.824C119.864 373.387 120.68 373.168 121.747 373.168H124.147V372.608C124.147 372.075 123.966 371.659 123.603 371.36C123.251 371.061 122.755 370.912 122.115 370.912C121.55 370.912 121.08 371.04 120.707 371.296C120.344 371.541 120.12 371.872 120.035 372.288H118.723C118.819 371.488 119.171 370.864 119.779 370.416C120.398 369.968 121.198 369.744 122.179 369.744C123.224 369.744 124.03 370 124.595 370.512C125.171 371.013 125.459 371.739 125.459 372.688V376.208C125.459 376.603 125.64 376.8 126.003 376.8H126.403ZM124.147 374.272H121.619C120.403 374.272 119.795 374.725 119.795 375.632C119.795 376.037 119.955 376.363 120.275 376.608C120.595 376.853 121.027 376.976 121.571 376.976C122.371 376.976 123 376.768 123.459 376.352C123.918 375.925 124.147 375.365 124.147 374.672V374.272ZM131.524 369.744C132.281 369.744 132.953 369.909 133.54 370.24C134.137 370.571 134.601 371.051 134.932 371.68C135.273 372.309 135.444 373.056 135.444 373.92C135.444 374.741 135.273 375.467 134.932 376.096C134.601 376.725 134.137 377.216 133.54 377.568C132.942 377.92 132.27 378.096 131.524 378.096C130.862 378.096 130.297 377.979 129.828 377.744C129.358 377.499 128.99 377.168 128.724 376.752L128.548 378H127.412V366.8H128.724V371.152C129.406 370.213 130.34 369.744 131.524 369.744ZM131.396 376.928C132.206 376.928 132.857 376.651 133.348 376.096C133.849 375.531 134.1 374.805 134.1 373.92C134.1 373.035 133.849 372.315 133.348 371.76C132.857 371.195 132.206 370.912 131.396 370.912C130.873 370.912 130.404 371.04 129.988 371.296C129.582 371.541 129.268 371.893 129.044 372.352C128.82 372.8 128.708 373.312 128.708 373.888C128.708 374.475 128.82 375.003 129.044 375.472C129.268 375.931 129.582 376.288 129.988 376.544C130.404 376.8 130.873 376.928 131.396 376.928ZM136.943 366.8H138.255V378H136.943V366.8ZM139.764 373.92C139.764 373.088 139.924 372.357 140.244 371.728C140.575 371.099 141.034 370.613 141.62 370.272C142.207 369.92 142.879 369.744 143.636 369.744C144.383 369.744 145.044 369.899 145.62 370.208C146.196 370.517 146.65 370.965 146.98 371.552C147.311 372.139 147.487 372.827 147.508 373.616C147.508 373.733 147.498 373.92 147.476 374.176H141.14V374.288C141.162 375.088 141.407 375.728 141.876 376.208C142.346 376.688 142.959 376.928 143.716 376.928C144.303 376.928 144.799 376.784 145.204 376.496C145.62 376.197 145.898 375.787 146.036 375.264H147.364C147.204 376.096 146.804 376.779 146.164 377.312C145.524 377.835 144.74 378.096 143.812 378.096C143.002 378.096 142.292 377.925 141.684 377.584C141.076 377.232 140.602 376.741 140.26 376.112C139.93 375.472 139.764 374.741 139.764 373.92ZM146.148 373.088C146.084 372.395 145.823 371.856 145.364 371.472C144.916 371.088 144.346 370.896 143.652 370.896C143.034 370.896 142.49 371.099 142.02 371.504C141.551 371.909 141.284 372.437 141.22 373.088H146.148ZM157.353 366.8C158.537 366.8 159.449 367.056 160.089 367.568C160.74 368.08 161.065 368.789 161.065 369.696C161.065 370.357 160.894 370.907 160.553 371.344C160.212 371.771 159.716 372.069 159.065 372.24C160.708 372.549 161.529 373.44 161.529 374.912C161.529 375.872 161.177 376.629 160.473 377.184C159.78 377.728 158.777 378 157.465 378H153.385V366.8H157.353ZM154.777 371.664H157.417C158.132 371.664 158.686 371.504 159.081 371.184C159.476 370.864 159.673 370.421 159.673 369.856C159.673 369.291 159.476 368.853 159.081 368.544C158.697 368.224 158.142 368.064 157.417 368.064H154.777V371.664ZM154.777 376.736H157.465C158.318 376.736 158.969 376.571 159.417 376.24C159.876 375.909 160.105 375.451 160.105 374.864C160.105 374.235 159.876 373.755 159.417 373.424C158.958 373.083 158.308 372.912 157.465 372.912H154.777V376.736ZM163.818 366.688C164.063 366.688 164.266 366.768 164.426 366.928C164.586 367.088 164.666 367.291 164.666 367.536C164.666 367.781 164.586 367.984 164.426 368.144C164.266 368.304 164.063 368.384 163.818 368.384C163.572 368.384 163.37 368.304 163.21 368.144C163.05 367.984 162.97 367.781 162.97 367.536C162.97 367.291 163.05 367.088 163.21 366.928C163.37 366.768 163.572 366.688 163.818 366.688ZM163.162 369.84H164.474V378H163.162V369.84ZM170.031 378.096C169.242 378.096 168.538 377.92 167.919 377.568C167.311 377.216 166.836 376.725 166.495 376.096C166.154 375.467 165.983 374.741 165.983 373.92C165.983 373.099 166.154 372.373 166.495 371.744C166.836 371.115 167.311 370.624 167.919 370.272C168.538 369.92 169.242 369.744 170.031 369.744C170.82 369.744 171.519 369.92 172.127 370.272C172.746 370.624 173.226 371.115 173.567 371.744C173.908 372.373 174.079 373.099 174.079 373.92C174.079 374.741 173.908 375.467 173.567 376.096C173.226 376.725 172.746 377.216 172.127 377.568C171.519 377.92 170.82 378.096 170.031 378.096ZM170.031 376.928C170.564 376.928 171.034 376.8 171.439 376.544C171.855 376.288 172.175 375.931 172.399 375.472C172.623 375.013 172.735 374.496 172.735 373.92C172.735 373.344 172.623 372.827 172.399 372.368C172.175 371.909 171.855 371.552 171.439 371.296C171.034 371.04 170.564 370.912 170.031 370.912C169.498 370.912 169.023 371.04 168.607 371.296C168.202 371.552 167.887 371.909 167.663 372.368C167.439 372.827 167.327 373.344 167.327 373.92C167.327 374.496 167.439 375.013 167.663 375.472C167.887 375.931 168.202 376.288 168.607 376.544C169.023 376.8 169.498 376.928 170.031 376.928ZM184.688 369.744C185.605 369.744 186.346 370.032 186.912 370.608C187.488 371.184 187.776 372.08 187.776 373.296V378H186.464V373.376C186.464 372.587 186.293 371.984 185.952 371.568C185.621 371.152 185.146 370.944 184.528 370.944C183.845 370.944 183.306 371.184 182.911 371.664C182.528 372.144 182.336 372.8 182.336 373.632V378H181.024V373.376C181.024 372.587 180.853 371.984 180.512 371.568C180.17 371.152 179.685 370.944 179.056 370.944C178.394 370.944 177.866 371.2 177.472 371.712C177.088 372.213 176.896 372.875 176.896 373.696V378H175.584V369.84H176.72L176.896 370.96C177.482 370.149 178.277 369.744 179.28 369.744C179.866 369.744 180.384 369.877 180.832 370.144C181.29 370.4 181.632 370.784 181.856 371.296C182.442 370.261 183.386 369.744 184.688 369.744ZM189.171 373.92C189.171 373.088 189.331 372.357 189.651 371.728C189.981 371.099 190.44 370.613 191.027 370.272C191.613 369.92 192.285 369.744 193.043 369.744C193.789 369.744 194.451 369.899 195.027 370.208C195.603 370.517 196.056 370.965 196.387 371.552C196.717 372.139 196.893 372.827 196.915 373.616C196.915 373.733 196.904 373.92 196.883 374.176H190.547V374.288C190.568 375.088 190.813 375.728 191.283 376.208C191.752 376.688 192.365 376.928 193.123 376.928C193.709 376.928 194.205 376.784 194.611 376.496C195.027 376.197 195.304 375.787 195.443 375.264H196.771C196.611 376.096 196.211 376.779 195.571 377.312C194.931 377.835 194.147 378.096 193.219 378.096C192.408 378.096 191.699 377.925 191.091 377.584C190.483 377.232 190.008 376.741 189.667 376.112C189.336 375.472 189.171 374.741 189.171 373.92ZM195.555 373.088C195.491 372.395 195.229 371.856 194.771 371.472C194.323 371.088 193.752 370.896 193.059 370.896C192.44 370.896 191.896 371.099 191.427 371.504C190.957 371.909 190.691 372.437 190.627 373.088H195.555ZM198.862 371.04H197.39V369.84H198.862V367.552H200.174V369.84H202.238V371.04H200.174V375.856C200.174 376.197 200.238 376.443 200.366 376.592C200.505 376.731 200.739 376.8 201.07 376.8H202.494V378H200.99C200.222 378 199.673 377.829 199.342 377.488C199.022 377.147 198.862 376.608 198.862 375.872V371.04ZM207.571 369.84V371.12H206.915C206.137 371.12 205.577 371.381 205.235 371.904C204.905 372.427 204.739 373.072 204.739 373.84V378H203.427V369.84H204.563L204.739 371.072C204.974 370.699 205.278 370.4 205.651 370.176C206.025 369.952 206.542 369.84 207.203 369.84H207.571ZM209.427 366.688C209.672 366.688 209.875 366.768 210.035 366.928C210.195 367.088 210.275 367.291 210.275 367.536C210.275 367.781 210.195 367.984 210.035 368.144C209.875 368.304 209.672 368.384 209.427 368.384C209.182 368.384 208.979 368.304 208.819 368.144C208.659 367.984 208.579 367.781 208.579 367.536C208.579 367.291 208.659 367.088 208.819 366.928C208.979 366.768 209.182 366.688 209.427 366.688ZM208.771 369.84H210.083V378H208.771V369.84ZM219.16 375.184C218.99 376.091 218.59 376.805 217.96 377.328C217.331 377.84 216.531 378.096 215.56 378.096C214.771 378.096 214.078 377.92 213.48 377.568C212.883 377.216 212.419 376.725 212.088 376.096C211.758 375.456 211.592 374.725 211.592 373.904C211.592 373.083 211.758 372.357 212.088 371.728C212.43 371.099 212.904 370.613 213.512 370.272C214.12 369.92 214.819 369.744 215.608 369.744C216.568 369.744 217.358 370 217.976 370.512C218.606 371.024 219 371.728 219.16 372.624H217.832C217.704 372.101 217.438 371.685 217.032 371.376C216.627 371.067 216.136 370.912 215.56 370.912C214.782 370.912 214.147 371.189 213.656 371.744C213.176 372.299 212.936 373.019 212.936 373.904C212.936 374.8 213.176 375.531 213.656 376.096C214.147 376.651 214.782 376.928 215.56 376.928C216.158 376.928 216.659 376.773 217.064 376.464C217.47 376.155 217.731 375.728 217.848 375.184H219.16ZM221.701 375.312C221.723 375.803 221.936 376.203 222.341 376.512C222.757 376.821 223.291 376.976 223.941 376.976C224.517 376.976 224.981 376.864 225.333 376.64C225.696 376.405 225.877 376.101 225.877 375.728C225.877 375.408 225.792 375.163 225.621 374.992C225.451 374.821 225.227 374.704 224.949 374.64C224.683 374.576 224.299 374.512 223.797 374.448C223.093 374.363 222.517 374.251 222.069 374.112C221.621 373.973 221.259 373.755 220.981 373.456C220.704 373.147 220.565 372.725 220.565 372.192C220.565 371.712 220.699 371.285 220.965 370.912C221.243 370.539 221.616 370.251 222.085 370.048C222.555 369.835 223.083 369.728 223.669 369.728C224.629 369.728 225.408 369.952 226.005 370.4C226.613 370.848 226.949 371.488 227.013 372.32H225.701C225.648 371.893 225.44 371.541 225.077 371.264C224.715 370.987 224.261 370.848 223.717 370.848C223.163 370.848 222.715 370.965 222.373 371.2C222.032 371.424 221.861 371.723 221.861 372.096C221.861 372.373 221.941 372.587 222.101 372.736C222.261 372.885 222.464 372.987 222.709 373.04C222.965 373.093 223.349 373.152 223.861 373.216C224.576 373.301 225.163 373.419 225.621 373.568C226.091 373.717 226.464 373.957 226.741 374.288C227.029 374.619 227.173 375.067 227.173 375.632C227.173 376.123 227.029 376.555 226.741 376.928C226.453 377.301 226.064 377.589 225.573 377.792C225.083 377.995 224.539 378.096 223.941 378.096C222.875 378.096 222.016 377.851 221.365 377.36C220.725 376.869 220.4 376.187 220.389 375.312H221.701Z" fill="black"/>
<path d="M100.816 397V388.6H101.86V396.04H105.688V397H100.816ZM109.152 397.072C108.56 397.072 108.032 396.94 107.568 396.676C107.112 396.412 106.756 396.044 106.5 395.572C106.244 395.1 106.116 394.556 106.116 393.94C106.116 393.324 106.244 392.78 106.5 392.308C106.756 391.836 107.112 391.468 107.568 391.204C108.032 390.94 108.56 390.808 109.152 390.808C109.744 390.808 110.268 390.94 110.724 391.204C111.188 391.468 111.548 391.836 111.804 392.308C112.06 392.78 112.188 393.324 112.188 393.94C112.188 394.556 112.06 395.1 111.804 395.572C111.548 396.044 111.188 396.412 110.724 396.676C110.268 396.94 109.744 397.072 109.152 397.072ZM109.152 396.196C109.552 396.196 109.904 396.1 110.208 395.908C110.52 395.716 110.76 395.448 110.928 395.104C111.096 394.76 111.18 394.372 111.18 393.94C111.18 393.508 111.096 393.12 110.928 392.776C110.76 392.432 110.52 392.164 110.208 391.972C109.904 391.78 109.552 391.684 109.152 391.684C108.752 391.684 108.396 391.78 108.084 391.972C107.78 392.164 107.544 392.432 107.376 392.776C107.208 393.12 107.124 393.508 107.124 393.94C107.124 394.372 107.208 394.76 107.376 395.104C107.544 395.448 107.78 395.716 108.084 395.908C108.396 396.1 108.752 396.196 109.152 396.196ZM119.125 390.88V396.7C119.125 398.548 118.113 399.472 116.089 399.472C115.297 399.472 114.649 399.292 114.145 398.932C113.649 398.572 113.361 398.06 113.281 397.396H114.289C114.369 397.78 114.573 398.076 114.901 398.284C115.229 398.492 115.649 398.596 116.161 398.596C117.481 398.596 118.141 397.952 118.141 396.664V395.944C117.701 396.696 117.001 397.072 116.041 397.072C115.473 397.072 114.965 396.948 114.517 396.7C114.077 396.452 113.729 396.092 113.473 395.62C113.225 395.148 113.101 394.588 113.101 393.94C113.101 393.324 113.225 392.78 113.473 392.308C113.729 391.836 114.081 391.468 114.529 391.204C114.977 390.94 115.481 390.808 116.041 390.808C116.537 390.808 116.961 390.908 117.313 391.108C117.665 391.3 117.941 391.576 118.141 391.936L118.273 390.88H119.125ZM116.137 396.196C116.529 396.196 116.877 396.104 117.181 395.92C117.493 395.728 117.733 395.464 117.901 395.128C118.069 394.784 118.153 394.396 118.153 393.964C118.153 393.524 118.069 393.132 117.901 392.788C117.733 392.436 117.493 392.164 117.181 391.972C116.877 391.78 116.529 391.684 116.137 391.684C115.529 391.684 115.037 391.896 114.661 392.32C114.293 392.736 114.109 393.276 114.109 393.94C114.109 394.604 114.293 395.148 114.661 395.572C115.037 395.988 115.529 396.196 116.137 396.196ZM120.957 388.516C121.141 388.516 121.293 388.576 121.413 388.696C121.533 388.816 121.593 388.968 121.593 389.152C121.593 389.336 121.533 389.488 121.413 389.608C121.293 389.728 121.141 389.788 120.957 389.788C120.773 389.788 120.621 389.728 120.501 389.608C120.381 389.488 120.321 389.336 120.321 389.152C120.321 388.968 120.381 388.816 120.501 388.696C120.621 388.576 120.773 388.516 120.957 388.516ZM120.465 390.88H121.449V397H120.465V390.88ZM125.797 390.808C126.541 390.808 127.137 391.032 127.585 391.48C128.041 391.928 128.269 392.632 128.269 393.592V397H127.285V393.652C127.285 393.02 127.141 392.54 126.853 392.212C126.573 391.876 126.165 391.708 125.629 391.708C125.053 391.708 124.601 391.908 124.273 392.308C123.945 392.708 123.781 393.252 123.781 393.94V397H122.797V390.88H123.649L123.781 391.708C124.245 391.108 124.917 390.808 125.797 390.808ZM132.088 390.88H133.12L134.644 395.86L136.252 390.88H137.164L138.688 395.86L140.284 390.88H141.28L139.24 397H138.16L136.684 392.452L135.148 397L134.068 397.012L132.088 390.88ZM142.543 388.516C142.727 388.516 142.879 388.576 142.999 388.696C143.119 388.816 143.179 388.968 143.179 389.152C143.179 389.336 143.119 389.488 142.999 389.608C142.879 389.728 142.727 389.788 142.543 389.788C142.359 389.788 142.207 389.728 142.087 389.608C141.967 389.488 141.907 389.336 141.907 389.152C141.907 388.968 141.967 388.816 142.087 388.696C142.207 388.576 142.359 388.516 142.543 388.516ZM142.051 390.88H143.035V397H142.051V390.88ZM144.791 391.78H143.687V390.88H144.791V389.164H145.775V390.88H147.323V391.78H145.775V395.392C145.775 395.648 145.823 395.832 145.919 395.944C146.023 396.048 146.199 396.1 146.447 396.1H147.515V397H146.387C145.811 397 145.399 396.872 145.151 396.616C144.911 396.36 144.791 395.956 144.791 395.404V391.78ZM151.215 390.808C151.959 390.808 152.559 391.032 153.015 391.48C153.471 391.928 153.699 392.632 153.699 393.592V397H152.715V393.652C152.715 393.02 152.571 392.54 152.283 392.212C151.995 391.876 151.583 391.708 151.047 391.708C150.479 391.708 150.027 391.908 149.691 392.308C149.363 392.708 149.199 393.252 149.199 393.94V397H148.215V388.6H149.199V391.888C149.399 391.568 149.663 391.308 149.991 391.108C150.327 390.908 150.735 390.808 151.215 390.808ZM162.498 389.788C162.314 389.788 162.162 389.728 162.042 389.608C161.922 389.488 161.862 389.336 161.862 389.152C161.862 388.968 161.922 388.816 162.042 388.696C162.162 388.576 162.314 388.516 162.498 388.516C162.682 388.516 162.834 388.576 162.954 388.696C163.074 388.816 163.134 388.968 163.134 389.152C163.134 389.336 163.074 389.488 162.954 389.608C162.834 389.728 162.682 389.788 162.498 389.788ZM162.99 397H162.006V391.78H159.486V397H158.502V391.78H157.398V390.88H158.502V390.196C158.502 389.652 158.626 389.252 158.874 388.996C159.13 388.732 159.538 388.6 160.098 388.6H161.106V389.5H160.158C159.918 389.5 159.746 389.552 159.642 389.656C159.538 389.76 159.486 389.932 159.486 390.172V390.88H162.99V397ZM167.328 390.808C168.072 390.808 168.668 391.032 169.116 391.48C169.572 391.928 169.8 392.632 169.8 393.592V397H168.816V393.652C168.816 393.02 168.672 392.54 168.384 392.212C168.104 391.876 167.696 391.708 167.16 391.708C166.584 391.708 166.132 391.908 165.804 392.308C165.476 392.708 165.312 393.252 165.312 393.94V397H164.328V390.88H165.18L165.312 391.708C165.776 391.108 166.448 390.808 167.328 390.808ZM176.863 390.88V396.7C176.863 398.548 175.851 399.472 173.827 399.472C173.035 399.472 172.387 399.292 171.883 398.932C171.387 398.572 171.099 398.06 171.019 397.396H172.027C172.107 397.78 172.311 398.076 172.639 398.284C172.967 398.492 173.387 398.596 173.899 398.596C175.219 398.596 175.879 397.952 175.879 396.664V395.944C175.439 396.696 174.739 397.072 173.779 397.072C173.211 397.072 172.703 396.948 172.255 396.7C171.815 396.452 171.467 396.092 171.211 395.62C170.963 395.148 170.839 394.588 170.839 393.94C170.839 393.324 170.963 392.78 171.211 392.308C171.467 391.836 171.819 391.468 172.267 391.204C172.715 390.94 173.219 390.808 173.779 390.808C174.275 390.808 174.699 390.908 175.051 391.108C175.403 391.3 175.679 391.576 175.879 391.936L176.011 390.88H176.863ZM173.875 396.196C174.267 396.196 174.615 396.104 174.919 395.92C175.231 395.728 175.471 395.464 175.639 395.128C175.807 394.784 175.891 394.396 175.891 393.964C175.891 393.524 175.807 393.132 175.639 392.788C175.471 392.436 175.231 392.164 174.919 391.972C174.615 391.78 174.267 391.684 173.875 391.684C173.267 391.684 172.775 391.896 172.399 392.32C172.031 392.736 171.847 393.276 171.847 393.94C171.847 394.604 172.031 395.148 172.399 395.572C172.775 395.988 173.267 396.196 173.875 396.196ZM177.987 393.94C177.987 393.316 178.107 392.768 178.347 392.296C178.595 391.824 178.939 391.46 179.379 391.204C179.819 390.94 180.323 390.808 180.891 390.808C181.451 390.808 181.947 390.924 182.379 391.156C182.811 391.388 183.151 391.724 183.399 392.164C183.647 392.604 183.779 393.12 183.795 393.712C183.795 393.8 183.787 393.94 183.771 394.132H179.019V394.216C179.035 394.816 179.219 395.296 179.571 395.656C179.923 396.016 180.383 396.196 180.951 396.196C181.391 396.196 181.763 396.088 182.067 395.872C182.379 395.648 182.587 395.34 182.691 394.948H183.687C183.567 395.572 183.267 396.084 182.787 396.484C182.307 396.876 181.719 397.072 181.023 397.072C180.415 397.072 179.883 396.944 179.427 396.688C178.971 396.424 178.615 396.056 178.359 395.584C178.111 395.104 177.987 394.556 177.987 393.94ZM182.775 393.316C182.727 392.796 182.531 392.392 182.187 392.104C181.851 391.816 181.423 391.672 180.903 391.672C180.439 391.672 180.031 391.824 179.679 392.128C179.327 392.432 179.127 392.828 179.079 393.316H182.775ZM188.026 390.88V391.84H187.534C186.95 391.84 186.53 392.036 186.274 392.428C186.026 392.82 185.902 393.304 185.902 393.88V397H184.918V390.88H185.77L185.902 391.804C186.078 391.524 186.306 391.3 186.586 391.132C186.866 390.964 187.254 390.88 187.75 390.88H188.026ZM192.01 390.808C192.578 390.808 193.082 390.932 193.522 391.18C193.97 391.428 194.318 391.788 194.566 392.26C194.822 392.732 194.95 393.292 194.95 393.94C194.95 394.556 194.822 395.1 194.566 395.572C194.318 396.044 193.97 396.412 193.522 396.676C193.074 396.94 192.57 397.072 192.01 397.072C191.514 397.072 191.09 396.984 190.738 396.808C190.386 396.624 190.11 396.376 189.91 396.064V399.4H188.926V390.88H189.778L189.91 391.864C190.422 391.16 191.122 390.808 192.01 390.808ZM191.914 396.196C192.522 396.196 193.01 395.988 193.378 395.572C193.754 395.148 193.942 394.604 193.942 393.94C193.942 393.276 193.754 392.736 193.378 392.32C193.01 391.896 192.522 391.684 191.914 391.684C191.522 391.684 191.17 391.78 190.858 391.972C190.554 392.156 190.318 392.42 190.15 392.764C189.982 393.1 189.898 393.484 189.898 393.916C189.898 394.356 189.982 394.752 190.15 395.104C190.318 395.448 190.554 395.716 190.858 395.908C191.17 396.1 191.522 396.196 191.914 396.196ZM199.182 390.88V391.84H198.69C198.106 391.84 197.686 392.036 197.43 392.428C197.182 392.82 197.058 393.304 197.058 393.88V397H196.074V390.88H196.926L197.058 391.804C197.234 391.524 197.462 391.3 197.742 391.132C198.022 390.964 198.41 390.88 198.906 390.88H199.182ZM200.574 388.516C200.758 388.516 200.91 388.576 201.03 388.696C201.15 388.816 201.21 388.968 201.21 389.152C201.21 389.336 201.15 389.488 201.03 389.608C200.91 389.728 200.758 389.788 200.574 389.788C200.39 389.788 200.238 389.728 200.118 389.608C199.998 389.488 199.938 389.336 199.938 389.152C199.938 388.968 199.998 388.816 200.118 388.696C200.238 388.576 200.39 388.516 200.574 388.516ZM200.082 390.88H201.066V397H200.082V390.88ZM205.414 390.808C206.158 390.808 206.754 391.032 207.202 391.48C207.658 391.928 207.886 392.632 207.886 393.592V397H206.902V393.652C206.902 393.02 206.758 392.54 206.47 392.212C206.19 391.876 205.782 391.708 205.246 391.708C204.67 391.708 204.218 391.908 203.89 392.308C203.562 392.708 203.398 393.252 203.398 393.94V397H202.414V390.88H203.266L203.398 391.708C203.862 391.108 204.534 390.808 205.414 390.808ZM209.549 391.78H208.445V390.88H209.549V389.164H210.533V390.88H212.081V391.78H210.533V395.392C210.533 395.648 210.581 395.832 210.677 395.944C210.781 396.048 210.957 396.1 211.205 396.1H212.273V397H211.145C210.569 397 210.157 396.872 209.909 396.616C209.669 396.36 209.549 395.956 209.549 395.404V391.78ZM218.933 397.072C218.341 397.072 217.813 396.94 217.349 396.676C216.893 396.412 216.537 396.044 216.281 395.572C216.025 395.1 215.897 394.556 215.897 393.94C215.897 393.324 216.025 392.78 216.281 392.308C216.537 391.836 216.893 391.468 217.349 391.204C217.813 390.94 218.341 390.808 218.933 390.808C219.525 390.808 220.049 390.94 220.505 391.204C220.969 391.468 221.329 391.836 221.585 392.308C221.841 392.78 221.969 393.324 221.969 393.94C221.969 394.556 221.841 395.1 221.585 395.572C221.329 396.044 220.969 396.412 220.505 396.676C220.049 396.94 219.525 397.072 218.933 397.072ZM218.933 396.196C219.333 396.196 219.685 396.1 219.989 395.908C220.301 395.716 220.541 395.448 220.709 395.104C220.877 394.76 220.961 394.372 220.961 393.94C220.961 393.508 220.877 393.12 220.709 392.776C220.541 392.432 220.301 392.164 219.989 391.972C219.685 391.78 219.333 391.684 218.933 391.684C218.533 391.684 218.177 391.78 217.865 391.972C217.561 392.164 217.325 392.432 217.157 392.776C216.989 393.12 216.905 393.508 216.905 393.94C216.905 394.372 216.989 394.76 217.157 395.104C217.325 395.448 217.561 395.716 217.865 395.908C218.177 396.1 218.533 396.196 218.933 396.196ZM226.206 390.88V391.84H225.714C225.13 391.84 224.71 392.036 224.454 392.428C224.206 392.82 224.082 393.304 224.082 393.88V397H223.098V390.88H223.95L224.082 391.804C224.258 391.524 224.486 391.3 224.766 391.132C225.046 390.964 225.434 390.88 225.93 390.88H226.206ZM230.654 390.88V390.196C230.654 389.652 230.778 389.252 231.026 388.996C231.282 388.732 231.69 388.6 232.25 388.6H233.378V389.5H232.31C232.07 389.5 231.898 389.552 231.794 389.656C231.69 389.76 231.638 389.932 231.638 390.172V390.88H233.366V391.78H231.638V397H230.654V391.78H229.55V390.88H230.654ZM239.568 396.1V397H239.028C238.636 397 238.356 396.92 238.188 396.76C238.02 396.6 237.932 396.364 237.924 396.052C237.452 396.732 236.768 397.072 235.872 397.072C235.192 397.072 234.644 396.912 234.228 396.592C233.82 396.272 233.616 395.836 233.616 395.284C233.616 394.668 233.824 394.196 234.24 393.868C234.664 393.54 235.276 393.376 236.076 393.376H237.876V392.956C237.876 392.556 237.74 392.244 237.468 392.02C237.204 391.796 236.832 391.684 236.352 391.684C235.928 391.684 235.576 391.78 235.296 391.972C235.024 392.156 234.856 392.404 234.792 392.716H233.808C233.88 392.116 234.144 391.648 234.6 391.312C235.064 390.976 235.664 390.808 236.4 390.808C237.184 390.808 237.788 391 238.212 391.384C238.644 391.76 238.86 392.304 238.86 393.016V395.656C238.86 395.952 238.996 396.1 239.268 396.1H239.568ZM237.876 394.204H235.98C235.068 394.204 234.612 394.544 234.612 395.224C234.612 395.528 234.732 395.772 234.972 395.956C235.212 396.14 235.536 396.232 235.944 396.232C236.544 396.232 237.016 396.076 237.36 395.764C237.704 395.444 237.876 395.024 237.876 394.504V394.204ZM245.784 394.888C245.656 395.568 245.356 396.104 244.884 396.496C244.412 396.88 243.812 397.072 243.084 397.072C242.492 397.072 241.972 396.94 241.524 396.676C241.076 396.412 240.728 396.044 240.48 395.572C240.232 395.092 240.108 394.544 240.108 393.928C240.108 393.312 240.232 392.768 240.48 392.296C240.736 391.824 241.092 391.46 241.548 391.204C242.004 390.94 242.528 390.808 243.12 390.808C243.84 390.808 244.432 391 244.896 391.384C245.368 391.768 245.664 392.296 245.784 392.968H244.788C244.692 392.576 244.492 392.264 244.188 392.032C243.884 391.8 243.516 391.684 243.084 391.684C242.5 391.684 242.024 391.892 241.656 392.308C241.296 392.724 241.116 393.264 241.116 393.928C241.116 394.6 241.296 395.148 241.656 395.572C242.024 395.988 242.5 396.196 243.084 396.196C243.532 396.196 243.908 396.08 244.212 395.848C244.516 395.616 244.712 395.296 244.8 394.888H245.784ZM246.577 393.94C246.577 393.316 246.697 392.768 246.937 392.296C247.185 391.824 247.529 391.46 247.969 391.204C248.409 390.94 248.913 390.808 249.481 390.808C250.041 390.808 250.537 390.924 250.969 391.156C251.401 391.388 251.741 391.724 251.989 392.164C252.237 392.604 252.369 393.12 252.385 393.712C252.385 393.8 252.377 393.94 252.361 394.132H247.609V394.216C247.625 394.816 247.809 395.296 248.161 395.656C248.513 396.016 248.973 396.196 249.541 396.196C249.981 396.196 250.353 396.088 250.657 395.872C250.969 395.648 251.177 395.34 251.281 394.948H252.277C252.157 395.572 251.857 396.084 251.377 396.484C250.897 396.876 250.309 397.072 249.613 397.072C249.005 397.072 248.473 396.944 248.017 396.688C247.561 396.424 247.205 396.056 246.949 395.584C246.701 395.104 246.577 394.556 246.577 393.94ZM251.365 393.316C251.317 392.796 251.121 392.392 250.777 392.104C250.441 391.816 250.013 391.672 249.493 391.672C249.029 391.672 248.621 391.824 248.269 392.128C247.917 392.432 247.717 392.828 247.669 393.316H251.365ZM256.793 388.6H257.837V397H256.793V388.6ZM259.464 388.6H261.948C262.812 388.6 263.56 388.776 264.192 389.128C264.832 389.472 265.32 389.96 265.656 390.592C266 391.224 266.172 391.96 266.172 392.8C266.172 393.632 266 394.368 265.656 395.008C265.32 395.64 264.832 396.132 264.192 396.484C263.56 396.828 262.812 397 261.948 397H259.464V388.6ZM261.948 396.04C262.948 396.04 263.724 395.748 264.276 395.164C264.828 394.58 265.104 393.792 265.104 392.8C265.104 391.8 264.828 391.012 264.276 390.436C263.732 389.852 262.956 389.56 261.948 389.56H260.508V396.04H261.948Z" fill="#667085"/>
<rect x="27" y="351" width="60" height="60" rx="18" fill="white"/>
<rect x="36" y="360" width="42" height="42" rx="14" fill="#F7F7F7"/>
<path d="M62.3952 373.273C62.3152 373.273 62.2352 373.253 62.1652 373.213C60.2452 372.223 58.5852 371.803 56.5952 371.803C54.6152 371.803 52.7352 372.273 51.0252 373.213C50.7852 373.343 50.4852 373.253 50.3452 373.013C50.2152 372.773 50.3052 372.463 50.5452 372.333C52.4052 371.323 54.4452 370.803 56.5952 370.803C58.7252 370.803 60.5852 371.273 62.6252 372.323C62.8752 372.453 62.9652 372.753 62.8352 372.993C62.7452 373.173 62.5752 373.273 62.3952 373.273ZM48.0852 378.523C47.9852 378.523 47.8852 378.493 47.7952 378.433C47.5652 378.273 47.5152 377.963 47.6752 377.733C48.6652 376.333 49.9252 375.233 51.4252 374.463C54.5652 372.843 58.5852 372.833 61.7352 374.453C63.2352 375.223 64.4952 376.313 65.4852 377.703C65.6452 377.923 65.5952 378.243 65.3652 378.403C65.1352 378.563 64.8252 378.513 64.6652 378.283C63.7652 377.023 62.6252 376.033 61.2752 375.343C58.4052 373.873 54.7352 373.873 51.8752 375.353C50.5152 376.053 49.3752 377.053 48.4752 378.313C48.3952 378.453 48.2452 378.523 48.0852 378.523ZM54.3352 390.593C54.2052 390.593 54.0752 390.543 53.9852 390.443C53.1152 389.573 52.6452 389.013 51.9752 387.803C51.2852 386.573 50.9252 385.073 50.9252 383.463C50.9252 380.493 53.4652 378.073 56.5852 378.073C59.7052 378.073 62.2452 380.493 62.2452 383.463C62.2452 383.743 62.0252 383.963 61.7452 383.963C61.4652 383.963 61.2452 383.743 61.2452 383.463C61.2452 381.043 59.1552 379.073 56.5852 379.073C54.0152 379.073 51.9252 381.043 51.9252 383.463C51.9252 384.903 52.2452 386.233 52.8552 387.313C53.4952 388.463 53.9352 388.953 54.7052 389.733C54.8952 389.933 54.8952 390.243 54.7052 390.443C54.5952 390.543 54.4652 390.593 54.3352 390.593ZM61.5052 388.743C60.3152 388.743 59.2652 388.443 58.4052 387.853C56.9152 386.843 56.0252 385.203 56.0252 383.463C56.0252 383.183 56.2452 382.963 56.5252 382.963C56.8052 382.963 57.0252 383.183 57.0252 383.463C57.0252 384.873 57.7452 386.203 58.9652 387.023C59.6752 387.503 60.5052 387.733 61.5052 387.733C61.7452 387.733 62.1452 387.703 62.5452 387.633C62.8152 387.583 63.0752 387.763 63.1252 388.043C63.1752 388.313 62.9952 388.573 62.7152 388.623C62.1452 388.733 61.6452 388.743 61.5052 388.743ZM59.4952 390.803C59.4552 390.803 59.4052 390.793 59.3652 390.783C57.7752 390.343 56.7352 389.753 55.6452 388.683C54.2452 387.293 53.4752 385.443 53.4752 383.463C53.4752 381.843 54.8552 380.523 56.5552 380.523C58.2552 380.523 59.6352 381.843 59.6352 383.463C59.6352 384.533 60.5652 385.403 61.7152 385.403C62.8652 385.403 63.7952 384.533 63.7952 383.463C63.7952 379.693 60.5452 376.633 56.5452 376.633C53.7052 376.633 51.1052 378.213 49.9352 380.663C49.5452 381.473 49.3452 382.423 49.3452 383.463C49.3452 384.243 49.4152 385.473 50.0152 387.073C50.1152 387.333 49.9852 387.623 49.7252 387.713C49.4652 387.813 49.1752 387.673 49.0852 387.423C48.5952 386.113 48.3552 384.813 48.3552 383.463C48.3552 382.263 48.5852 381.173 49.0352 380.223C50.3652 377.433 53.3152 375.623 56.5452 375.623C61.0952 375.623 64.7952 379.133 64.7952 383.453C64.7952 385.073 63.4152 386.393 61.7152 386.393C60.0152 386.393 58.6352 385.073 58.6352 383.453C58.6352 382.383 57.7052 381.513 56.5552 381.513C55.4052 381.513 54.4752 382.383 54.4752 383.453C54.4752 385.163 55.1352 386.763 56.3452 387.963C57.2952 388.903 58.2052 389.423 59.6152 389.813C59.8852 389.883 60.0352 390.163 59.9652 390.423C59.9152 390.653 59.7052 390.803 59.4952 390.803Z" fill="black"/>
<rect x="317" y="369" width="44" height="24" rx="12" fill="#7F808C"/>
<rect x="318" y="370" width="22" height="22" rx="11" fill="white"/>
<rect x="318" y="370" width="22" height="22" rx="11" stroke="#7F808C" stroke-width="2"/>
</g>
<g filter="url(#filter1_d_1566_9544)">
<rect x="78" y="11" width="364" height="88" rx="24" fill="#F7F7F7"/>
<path d="M170.392 40.8C171.128 40.8 171.779 40.944 172.344 41.232C172.909 41.5093 173.341 41.9093 173.64 42.432C173.949 42.944 174.104 43.5467 174.104 44.24C174.104 44.9333 173.949 45.5413 173.64 46.064C173.331 46.5867 172.893 46.992 172.328 47.28C171.773 47.5573 171.128 47.696 170.392 47.696H167.48V52H166.088V40.8H170.392ZM167.48 46.416H170.264C171 46.416 171.587 46.2187 172.024 45.824C172.461 45.4293 172.68 44.9013 172.68 44.24C172.68 43.5787 172.461 43.056 172.024 42.672C171.597 42.2773 171.016 42.08 170.28 42.08H167.48V46.416ZM182.544 50.8V52H181.824C181.301 52 180.928 51.8933 180.704 51.68C180.48 51.4667 180.362 51.152 180.352 50.736C179.722 51.6427 178.81 52.096 177.616 52.096C176.709 52.096 175.978 51.8827 175.424 51.456C174.88 51.0293 174.608 50.448 174.608 49.712C174.608 48.8907 174.885 48.2613 175.44 47.824C176.005 47.3867 176.821 47.168 177.888 47.168H180.288V46.608C180.288 46.0747 180.106 45.6587 179.744 45.36C179.392 45.0613 178.896 44.912 178.256 44.912C177.69 44.912 177.221 45.04 176.848 45.296C176.485 45.5413 176.261 45.872 176.176 46.288H174.864C174.96 45.488 175.312 44.864 175.92 44.416C176.538 43.968 177.338 43.744 178.32 43.744C179.365 43.744 180.17 44 180.736 44.512C181.312 45.0133 181.6 45.7387 181.6 46.688V50.208C181.6 50.6027 181.781 50.8 182.144 50.8H182.544ZM180.288 48.272H177.76C176.544 48.272 175.936 48.7253 175.936 49.632C175.936 50.0373 176.096 50.3627 176.416 50.608C176.736 50.8533 177.168 50.976 177.712 50.976C178.512 50.976 179.141 50.768 179.6 50.352C180.058 49.9253 180.288 49.3653 180.288 48.672V48.272ZM184.576 49.312C184.598 49.8027 184.811 50.2027 185.216 50.512C185.632 50.8213 186.166 50.976 186.816 50.976C187.392 50.976 187.856 50.864 188.208 50.64C188.571 50.4053 188.752 50.1013 188.752 49.728C188.752 49.408 188.667 49.1627 188.496 48.992C188.326 48.8213 188.102 48.704 187.824 48.64C187.558 48.576 187.174 48.512 186.672 48.448C185.968 48.3627 185.392 48.2507 184.944 48.112C184.496 47.9733 184.134 47.7547 183.856 47.456C183.579 47.1467 183.44 46.7253 183.44 46.192C183.44 45.712 183.574 45.2853 183.84 44.912C184.118 44.5387 184.491 44.2507 184.96 44.048C185.43 43.8347 185.958 43.728 186.544 43.728C187.504 43.728 188.283 43.952 188.88 44.4C189.488 44.848 189.824 45.488 189.888 46.32H188.576C188.523 45.8933 188.315 45.5413 187.952 45.264C187.59 44.9867 187.136 44.848 186.592 44.848C186.038 44.848 185.59 44.9653 185.248 45.2C184.907 45.424 184.736 45.7227 184.736 46.096C184.736 46.3733 184.816 46.5867 184.976 46.736C185.136 46.8853 185.339 46.9867 185.584 47.04C185.84 47.0933 186.224 47.152 186.736 47.216C187.451 47.3013 188.038 47.4187 188.496 47.568C188.966 47.7173 189.339 47.9573 189.616 48.288C189.904 48.6187 190.048 49.0667 190.048 49.632C190.048 50.1227 189.904 50.5547 189.616 50.928C189.328 51.3013 188.939 51.5893 188.448 51.792C187.958 51.9947 187.414 52.096 186.816 52.096C185.75 52.096 184.891 51.8507 184.24 51.36C183.6 50.8693 183.275 50.1867 183.264 49.312H184.576ZM192.404 49.312C192.426 49.8027 192.639 50.2027 193.044 50.512C193.46 50.8213 193.994 50.976 194.644 50.976C195.22 50.976 195.684 50.864 196.036 50.64C196.399 50.4053 196.58 50.1013 196.58 49.728C196.58 49.408 196.495 49.1627 196.324 48.992C196.154 48.8213 195.93 48.704 195.652 48.64C195.386 48.576 195.002 48.512 194.5 48.448C193.796 48.3627 193.22 48.2507 192.772 48.112C192.324 47.9733 191.962 47.7547 191.684 47.456C191.407 47.1467 191.268 46.7253 191.268 46.192C191.268 45.712 191.402 45.2853 191.668 44.912C191.946 44.5387 192.319 44.2507 192.788 44.048C193.258 43.8347 193.786 43.728 194.372 43.728C195.332 43.728 196.111 43.952 196.708 44.4C197.316 44.848 197.652 45.488 197.716 46.32H196.404C196.351 45.8933 196.143 45.5413 195.78 45.264C195.418 44.9867 194.964 44.848 194.42 44.848C193.866 44.848 193.418 44.9653 193.076 45.2C192.735 45.424 192.564 45.7227 192.564 46.096C192.564 46.3733 192.644 46.5867 192.804 46.736C192.964 46.8853 193.167 46.9867 193.412 47.04C193.668 47.0933 194.052 47.152 194.564 47.216C195.279 47.3013 195.866 47.4187 196.324 47.568C196.794 47.7173 197.167 47.9573 197.444 48.288C197.732 48.6187 197.876 49.0667 197.876 49.632C197.876 50.1227 197.732 50.5547 197.444 50.928C197.156 51.3013 196.767 51.5893 196.276 51.792C195.786 51.9947 195.242 52.096 194.644 52.096C193.578 52.096 192.719 51.8507 192.068 51.36C191.428 50.8693 191.103 50.1867 191.092 49.312H192.404ZM206.645 49.184C206.474 50.0907 206.074 50.8053 205.445 51.328C204.815 51.84 204.015 52.096 203.045 52.096C202.255 52.096 201.562 51.92 200.965 51.568C200.367 51.216 199.903 50.7253 199.573 50.096C199.242 49.456 199.077 48.7253 199.077 47.904C199.077 47.0827 199.242 46.3573 199.573 45.728C199.914 45.0987 200.389 44.6133 200.997 44.272C201.605 43.92 202.303 43.744 203.093 43.744C204.053 43.744 204.842 44 205.461 44.512C206.09 45.024 206.485 45.728 206.645 46.624H205.317C205.189 46.1013 204.922 45.6853 204.517 45.376C204.111 45.0667 203.621 44.912 203.045 44.912C202.266 44.912 201.631 45.1893 201.141 45.744C200.661 46.2987 200.421 47.0187 200.421 47.904C200.421 48.8 200.661 49.5307 201.141 50.096C201.631 50.6507 202.266 50.928 203.045 50.928C203.642 50.928 204.143 50.7733 204.549 50.464C204.954 50.1547 205.215 49.728 205.333 49.184H206.645ZM211.75 52.096C210.96 52.096 210.256 51.92 209.638 51.568C209.03 51.216 208.555 50.7253 208.214 50.096C207.872 49.4667 207.702 48.7413 207.702 47.92C207.702 47.0987 207.872 46.3733 208.214 45.744C208.555 45.1147 209.03 44.624 209.638 44.272C210.256 43.92 210.96 43.744 211.75 43.744C212.539 43.744 213.238 43.92 213.846 44.272C214.464 44.624 214.944 45.1147 215.286 45.744C215.627 46.3733 215.798 47.0987 215.798 47.92C215.798 48.7413 215.627 49.4667 215.286 50.096C214.944 50.7253 214.464 51.216 213.846 51.568C213.238 51.92 212.539 52.096 211.75 52.096ZM211.75 50.928C212.283 50.928 212.752 50.8 213.158 50.544C213.574 50.288 213.894 49.9307 214.118 49.472C214.342 49.0133 214.454 48.496 214.454 47.92C214.454 47.344 214.342 46.8267 214.118 46.368C213.894 45.9093 213.574 45.552 213.158 45.296C212.752 45.04 212.283 44.912 211.75 44.912C211.216 44.912 210.742 45.04 210.326 45.296C209.92 45.552 209.606 45.9093 209.382 46.368C209.158 46.8267 209.046 47.344 209.046 47.92C209.046 48.496 209.158 49.0133 209.382 49.472C209.606 49.9307 209.92 50.288 210.326 50.544C210.742 50.8 211.216 50.928 211.75 50.928ZM225.046 40.8V52H223.91L223.734 50.688C223.052 51.6267 222.118 52.096 220.934 52.096C220.177 52.096 219.5 51.9307 218.902 51.6C218.316 51.2693 217.852 50.7893 217.51 50.16C217.18 49.5307 217.014 48.784 217.014 47.92C217.014 47.0987 217.18 46.3733 217.51 45.744C217.852 45.1147 218.321 44.624 218.918 44.272C219.516 43.92 220.188 43.744 220.934 43.744C221.596 43.744 222.161 43.8667 222.63 44.112C223.1 44.3467 223.468 44.672 223.734 45.088V40.8H225.046ZM221.062 50.928C221.585 50.928 222.049 50.8053 222.454 50.56C222.87 50.304 223.19 49.952 223.414 49.504C223.638 49.0453 223.75 48.528 223.75 47.952C223.75 47.3653 223.638 46.8427 223.414 46.384C223.19 45.9147 222.87 45.552 222.454 45.296C222.049 45.04 221.585 44.912 221.062 44.912C220.252 44.912 219.596 45.1947 219.094 45.76C218.604 46.3147 218.358 47.0347 218.358 47.92C218.358 48.8053 218.604 49.5307 219.094 50.096C219.596 50.6507 220.252 50.928 221.062 50.928ZM226.546 47.92C226.546 47.088 226.706 46.3573 227.026 45.728C227.356 45.0987 227.815 44.6133 228.402 44.272C228.988 43.92 229.66 43.744 230.418 43.744C231.164 43.744 231.826 43.8987 232.402 44.208C232.978 44.5173 233.431 44.9653 233.762 45.552C234.092 46.1387 234.268 46.8267 234.29 47.616C234.29 47.7333 234.279 47.92 234.258 48.176H227.922V48.288C227.943 49.088 228.188 49.728 228.658 50.208C229.127 50.688 229.74 50.928 230.498 50.928C231.084 50.928 231.58 50.784 231.986 50.496C232.402 50.1973 232.679 49.7867 232.818 49.264H234.146C233.986 50.096 233.586 50.7787 232.946 51.312C232.306 51.8347 231.522 52.096 230.594 52.096C229.783 52.096 229.074 51.9253 228.466 51.584C227.858 51.232 227.383 50.7413 227.042 50.112C226.711 49.472 226.546 48.7413 226.546 47.92ZM232.93 47.088C232.866 46.3947 232.604 45.856 232.146 45.472C231.698 45.088 231.127 44.896 230.434 44.896C229.815 44.896 229.271 45.0987 228.802 45.504C228.332 45.9093 228.066 46.4373 228.002 47.088H232.93Z" fill="black"/>
<path d="M165.816 71V62.6H166.86V70.04H170.688V71H165.816ZM174.152 71.072C173.56 71.072 173.032 70.94 172.568 70.676C172.112 70.412 171.756 70.044 171.5 69.572C171.244 69.1 171.116 68.556 171.116 67.94C171.116 67.324 171.244 66.78 171.5 66.308C171.756 65.836 172.112 65.468 172.568 65.204C173.032 64.94 173.56 64.808 174.152 64.808C174.744 64.808 175.268 64.94 175.724 65.204C176.188 65.468 176.548 65.836 176.804 66.308C177.06 66.78 177.188 67.324 177.188 67.94C177.188 68.556 177.06 69.1 176.804 69.572C176.548 70.044 176.188 70.412 175.724 70.676C175.268 70.94 174.744 71.072 174.152 71.072ZM174.152 70.196C174.552 70.196 174.904 70.1 175.208 69.908C175.52 69.716 175.76 69.448 175.928 69.104C176.096 68.76 176.18 68.372 176.18 67.94C176.18 67.508 176.096 67.12 175.928 66.776C175.76 66.432 175.52 66.164 175.208 65.972C174.904 65.78 174.552 65.684 174.152 65.684C173.752 65.684 173.396 65.78 173.084 65.972C172.78 66.164 172.544 66.432 172.376 66.776C172.208 67.12 172.124 67.508 172.124 67.94C172.124 68.372 172.208 68.76 172.376 69.104C172.544 69.448 172.78 69.716 173.084 69.908C173.396 70.1 173.752 70.196 174.152 70.196ZM184.125 64.88V70.7C184.125 72.548 183.113 73.472 181.089 73.472C180.297 73.472 179.649 73.292 179.145 72.932C178.649 72.572 178.361 72.06 178.281 71.396H179.289C179.369 71.78 179.573 72.076 179.901 72.284C180.229 72.492 180.649 72.596 181.161 72.596C182.481 72.596 183.141 71.952 183.141 70.664V69.944C182.701 70.696 182.001 71.072 181.041 71.072C180.473 71.072 179.965 70.948 179.517 70.7C179.077 70.452 178.729 70.092 178.473 69.62C178.225 69.148 178.101 68.588 178.101 67.94C178.101 67.324 178.225 66.78 178.473 66.308C178.729 65.836 179.081 65.468 179.529 65.204C179.977 64.94 180.481 64.808 181.041 64.808C181.537 64.808 181.961 64.908 182.313 65.108C182.665 65.3 182.941 65.576 183.141 65.936L183.273 64.88H184.125ZM181.137 70.196C181.529 70.196 181.877 70.104 182.181 69.92C182.493 69.728 182.733 69.464 182.901 69.128C183.069 68.784 183.153 68.396 183.153 67.964C183.153 67.524 183.069 67.132 182.901 66.788C182.733 66.436 182.493 66.164 182.181 65.972C181.877 65.78 181.529 65.684 181.137 65.684C180.529 65.684 180.037 65.896 179.661 66.32C179.293 66.736 179.109 67.276 179.109 67.94C179.109 68.604 179.293 69.148 179.661 69.572C180.037 69.988 180.529 70.196 181.137 70.196ZM185.957 62.516C186.141 62.516 186.293 62.576 186.413 62.696C186.533 62.816 186.593 62.968 186.593 63.152C186.593 63.336 186.533 63.488 186.413 63.608C186.293 63.728 186.141 63.788 185.957 63.788C185.773 63.788 185.621 63.728 185.501 63.608C185.381 63.488 185.321 63.336 185.321 63.152C185.321 62.968 185.381 62.816 185.501 62.696C185.621 62.576 185.773 62.516 185.957 62.516ZM185.465 64.88H186.449V71H185.465V64.88ZM190.797 64.808C191.541 64.808 192.137 65.032 192.585 65.48C193.041 65.928 193.269 66.632 193.269 67.592V71H192.285V67.652C192.285 67.02 192.141 66.54 191.853 66.212C191.573 65.876 191.165 65.708 190.629 65.708C190.053 65.708 189.601 65.908 189.273 66.308C188.945 66.708 188.781 67.252 188.781 67.94V71H187.797V64.88H188.649L188.781 65.708C189.245 65.108 189.917 64.808 190.797 64.808ZM197.088 64.88H198.12L199.644 69.86L201.252 64.88H202.164L203.688 69.86L205.284 64.88H206.28L204.24 71H203.16L201.684 66.452L200.148 71L199.068 71.012L197.088 64.88ZM207.543 62.516C207.727 62.516 207.879 62.576 207.999 62.696C208.119 62.816 208.179 62.968 208.179 63.152C208.179 63.336 208.119 63.488 207.999 63.608C207.879 63.728 207.727 63.788 207.543 63.788C207.359 63.788 207.207 63.728 207.087 63.608C206.967 63.488 206.907 63.336 206.907 63.152C206.907 62.968 206.967 62.816 207.087 62.696C207.207 62.576 207.359 62.516 207.543 62.516ZM207.051 64.88H208.035V71H207.051V64.88ZM209.791 65.78H208.687V64.88H209.791V63.164H210.775V64.88H212.323V65.78H210.775V69.392C210.775 69.648 210.823 69.832 210.919 69.944C211.023 70.048 211.199 70.1 211.447 70.1H212.515V71H211.387C210.811 71 210.399 70.872 210.151 70.616C209.911 70.36 209.791 69.956 209.791 69.404V65.78ZM216.215 64.808C216.959 64.808 217.559 65.032 218.015 65.48C218.471 65.928 218.699 66.632 218.699 67.592V71H217.715V67.652C217.715 67.02 217.571 66.54 217.283 66.212C216.995 65.876 216.583 65.708 216.047 65.708C215.479 65.708 215.027 65.908 214.691 66.308C214.363 66.708 214.199 67.252 214.199 67.94V71H213.215V62.6H214.199V65.888C214.399 65.568 214.663 65.308 214.991 65.108C215.327 64.908 215.735 64.808 216.215 64.808ZM223.526 64.88L225.41 69.872L227.234 64.88H228.278L225.458 72.032C225.314 72.4 225.186 72.676 225.074 72.86C224.962 73.044 224.822 73.18 224.654 73.268C224.486 73.356 224.262 73.4 223.982 73.4H222.806V72.5H223.682C223.874 72.5 224.018 72.48 224.114 72.44C224.21 72.4 224.286 72.332 224.342 72.236C224.406 72.148 224.482 71.996 224.57 71.78L224.882 71.048L222.482 64.88H223.526ZM231.597 71.072C231.005 71.072 230.477 70.94 230.013 70.676C229.557 70.412 229.201 70.044 228.945 69.572C228.689 69.1 228.561 68.556 228.561 67.94C228.561 67.324 228.689 66.78 228.945 66.308C229.201 65.836 229.557 65.468 230.013 65.204C230.477 64.94 231.005 64.808 231.597 64.808C232.189 64.808 232.713 64.94 233.169 65.204C233.633 65.468 233.993 65.836 234.249 66.308C234.505 66.78 234.633 67.324 234.633 67.94C234.633 68.556 234.505 69.1 234.249 69.572C233.993 70.044 233.633 70.412 233.169 70.676C232.713 70.94 232.189 71.072 231.597 71.072ZM231.597 70.196C231.997 70.196 232.349 70.1 232.653 69.908C232.965 69.716 233.205 69.448 233.373 69.104C233.541 68.76 233.625 68.372 233.625 67.94C233.625 67.508 233.541 67.12 233.373 66.776C233.205 66.432 232.965 66.164 232.653 65.972C232.349 65.78 231.997 65.684 231.597 65.684C231.197 65.684 230.841 65.78 230.529 65.972C230.225 66.164 229.989 66.432 229.821 66.776C229.653 67.12 229.569 67.508 229.569 67.94C229.569 68.372 229.653 68.76 229.821 69.104C229.989 69.448 230.225 69.716 230.529 69.908C230.841 70.1 231.197 70.196 231.597 70.196ZM241.03 64.88V71H240.178L240.046 70.184C239.582 70.776 238.93 71.072 238.09 71.072C237.362 71.072 236.778 70.848 236.338 70.4C235.898 69.952 235.678 69.248 235.678 68.288V64.88H236.662V68.228C236.662 68.86 236.798 69.344 237.07 69.68C237.35 70.008 237.746 70.172 238.258 70.172C238.818 70.172 239.254 69.972 239.566 69.572C239.886 69.172 240.046 68.628 240.046 67.94V64.88H241.03ZM245.479 64.88V65.84H244.987C244.403 65.84 243.983 66.036 243.727 66.428C243.479 66.82 243.355 67.304 243.355 67.88V71H242.371V64.88H243.223L243.355 65.804C243.531 65.524 243.759 65.3 244.039 65.132C244.319 64.964 244.707 64.88 245.203 64.88H245.479ZM250.072 69.68C249.864 69.312 249.7 68.884 249.58 68.396C249.468 67.908 249.412 67.388 249.412 66.836C249.412 65.956 249.536 65.192 249.784 64.544C250.04 63.896 250.408 63.4 250.888 63.056C251.368 62.704 251.94 62.528 252.604 62.528C253.364 62.528 253.988 62.74 254.476 63.164C254.972 63.58 255.272 64.14 255.376 64.844H254.368C254.272 64.404 254.068 64.056 253.756 63.8C253.452 63.544 253.052 63.416 252.556 63.416C251.836 63.416 251.276 63.712 250.876 64.304C250.484 64.896 250.288 65.676 250.288 66.644L250.3 67.052C250.324 66.948 250.348 66.872 250.372 66.824C250.564 66.4 250.864 66.064 251.272 65.816C251.68 65.568 252.16 65.444 252.712 65.444C253.264 65.444 253.752 65.56 254.176 65.792C254.6 66.024 254.932 66.352 255.172 66.776C255.412 67.2 255.532 67.692 255.532 68.252C255.532 68.788 255.408 69.272 255.16 69.704C254.912 70.128 254.568 70.464 254.128 70.712C253.688 70.952 253.184 71.072 252.616 71.072C252.048 71.072 251.548 70.952 251.116 70.712C250.692 70.464 250.344 70.12 250.072 69.68ZM254.524 68.252C254.524 67.684 254.352 67.224 254.008 66.872C253.672 66.512 253.216 66.332 252.64 66.332C252.056 66.332 251.584 66.512 251.224 66.872C250.864 67.232 250.684 67.7 250.684 68.276C250.684 68.844 250.86 69.304 251.212 69.656C251.564 70.008 252.028 70.184 252.604 70.184C253.18 70.184 253.644 70.004 253.996 69.644C254.348 69.284 254.524 68.82 254.524 68.252ZM265.71 62.6V71H264.858L264.726 70.016C264.214 70.72 263.514 71.072 262.626 71.072C262.058 71.072 261.55 70.948 261.102 70.7C260.662 70.452 260.314 70.092 260.058 69.62C259.81 69.148 259.686 68.588 259.686 67.94C259.686 67.324 259.81 66.78 260.058 66.308C260.314 65.836 260.666 65.468 261.114 65.204C261.562 64.94 262.066 64.808 262.626 64.808C263.122 64.808 263.546 64.9 263.898 65.084C264.25 65.26 264.526 65.504 264.726 65.816V62.6H265.71ZM262.722 70.196C263.114 70.196 263.462 70.104 263.766 69.92C264.078 69.728 264.318 69.464 264.486 69.128C264.654 68.784 264.738 68.396 264.738 67.964C264.738 67.524 264.654 67.132 264.486 66.788C264.318 66.436 264.078 66.164 263.766 65.972C263.462 65.78 263.114 65.684 262.722 65.684C262.114 65.684 261.622 65.896 261.246 66.32C260.878 66.736 260.694 67.276 260.694 67.94C260.694 68.604 260.878 69.148 261.246 69.572C261.622 69.988 262.114 70.196 262.722 70.196ZM267.543 62.516C267.727 62.516 267.879 62.576 267.999 62.696C268.119 62.816 268.179 62.968 268.179 63.152C268.179 63.336 268.119 63.488 267.999 63.608C267.879 63.728 267.727 63.788 267.543 63.788C267.359 63.788 267.207 63.728 267.087 63.608C266.967 63.488 266.907 63.336 266.907 63.152C266.907 62.968 266.967 62.816 267.087 62.696C267.207 62.576 267.359 62.516 267.543 62.516ZM267.051 64.88H268.035V71H267.051V64.88ZM275.191 64.88V70.7C275.191 72.548 274.179 73.472 272.155 73.472C271.363 73.472 270.715 73.292 270.211 72.932C269.715 72.572 269.427 72.06 269.347 71.396H270.355C270.435 71.78 270.639 72.076 270.967 72.284C271.295 72.492 271.715 72.596 272.227 72.596C273.547 72.596 274.207 71.952 274.207 70.664V69.944C273.767 70.696 273.067 71.072 272.107 71.072C271.539 71.072 271.031 70.948 270.583 70.7C270.143 70.452 269.795 70.092 269.539 69.62C269.291 69.148 269.167 68.588 269.167 67.94C269.167 67.324 269.291 66.78 269.539 66.308C269.795 65.836 270.147 65.468 270.595 65.204C271.043 64.94 271.547 64.808 272.107 64.808C272.603 64.808 273.027 64.908 273.379 65.108C273.731 65.3 274.007 65.576 274.207 65.936L274.339 64.88H275.191ZM272.203 70.196C272.595 70.196 272.943 70.104 273.247 69.92C273.559 69.728 273.799 69.464 273.967 69.128C274.135 68.784 274.219 68.396 274.219 67.964C274.219 67.524 274.135 67.132 273.967 66.788C273.799 66.436 273.559 66.164 273.247 65.972C272.943 65.78 272.595 65.684 272.203 65.684C271.595 65.684 271.103 65.896 270.727 66.32C270.359 66.736 270.175 67.276 270.175 67.94C270.175 68.604 270.359 69.148 270.727 69.572C271.103 69.988 271.595 70.196 272.203 70.196ZM277.023 62.516C277.207 62.516 277.359 62.576 277.479 62.696C277.599 62.816 277.659 62.968 277.659 63.152C277.659 63.336 277.599 63.488 277.479 63.608C277.359 63.728 277.207 63.788 277.023 63.788C276.839 63.788 276.687 63.728 276.567 63.608C276.447 63.488 276.387 63.336 276.387 63.152C276.387 62.968 276.447 62.816 276.567 62.696C276.687 62.576 276.839 62.516 277.023 62.516ZM276.531 64.88H277.515V71H276.531V64.88ZM279.271 65.78H278.167V64.88H279.271V63.164H280.255V64.88H281.803V65.78H280.255V69.392C280.255 69.648 280.303 69.832 280.399 69.944C280.503 70.048 280.679 70.1 280.927 70.1H281.995V71H280.867C280.291 71 279.879 70.872 279.631 70.616C279.391 70.36 279.271 69.956 279.271 69.404V65.78ZM291.296 68.888C291.168 69.568 290.868 70.104 290.396 70.496C289.924 70.88 289.324 71.072 288.596 71.072C288.004 71.072 287.484 70.94 287.036 70.676C286.588 70.412 286.24 70.044 285.992 69.572C285.744 69.092 285.62 68.544 285.62 67.928C285.62 67.312 285.744 66.768 285.992 66.296C286.248 65.824 286.604 65.46 287.06 65.204C287.516 64.94 288.04 64.808 288.632 64.808C289.352 64.808 289.944 65 290.408 65.384C290.88 65.768 291.176 66.296 291.296 66.968H290.3C290.204 66.576 290.004 66.264 289.7 66.032C289.396 65.8 289.028 65.684 288.596 65.684C288.012 65.684 287.536 65.892 287.168 66.308C286.808 66.724 286.628 67.264 286.628 67.928C286.628 68.6 286.808 69.148 287.168 69.572C287.536 69.988 288.012 70.196 288.596 70.196C289.044 70.196 289.42 70.08 289.724 69.848C290.028 69.616 290.224 69.296 290.312 68.888H291.296ZM295.125 71.072C294.533 71.072 294.005 70.94 293.541 70.676C293.085 70.412 292.729 70.044 292.473 69.572C292.217 69.1 292.089 68.556 292.089 67.94C292.089 67.324 292.217 66.78 292.473 66.308C292.729 65.836 293.085 65.468 293.541 65.204C294.005 64.94 294.533 64.808 295.125 64.808C295.717 64.808 296.241 64.94 296.697 65.204C297.161 65.468 297.521 65.836 297.777 66.308C298.033 66.78 298.161 67.324 298.161 67.94C298.161 68.556 298.033 69.1 297.777 69.572C297.521 70.044 297.161 70.412 296.697 70.676C296.241 70.94 295.717 71.072 295.125 71.072ZM295.125 70.196C295.525 70.196 295.877 70.1 296.181 69.908C296.493 69.716 296.733 69.448 296.901 69.104C297.069 68.76 297.153 68.372 297.153 67.94C297.153 67.508 297.069 67.12 296.901 66.776C296.733 66.432 296.493 66.164 296.181 65.972C295.877 65.78 295.525 65.684 295.125 65.684C294.725 65.684 294.369 65.78 294.057 65.972C293.753 66.164 293.517 66.432 293.349 66.776C293.181 67.12 293.097 67.508 293.097 67.94C293.097 68.372 293.181 68.76 293.349 69.104C293.517 69.448 293.753 69.716 294.057 69.908C294.369 70.1 294.725 70.196 295.125 70.196ZM305.097 62.6V71H304.245L304.113 70.016C303.601 70.72 302.901 71.072 302.013 71.072C301.445 71.072 300.937 70.948 300.489 70.7C300.049 70.452 299.701 70.092 299.445 69.62C299.197 69.148 299.073 68.588 299.073 67.94C299.073 67.324 299.197 66.78 299.445 66.308C299.701 65.836 300.053 65.468 300.501 65.204C300.949 64.94 301.453 64.808 302.013 64.808C302.509 64.808 302.933 64.9 303.285 65.084C303.637 65.26 303.913 65.504 304.113 65.816V62.6H305.097ZM302.109 70.196C302.501 70.196 302.849 70.104 303.153 69.92C303.465 69.728 303.705 69.464 303.873 69.128C304.041 68.784 304.125 68.396 304.125 67.964C304.125 67.524 304.041 67.132 303.873 66.788C303.705 66.436 303.465 66.164 303.153 65.972C302.849 65.78 302.501 65.684 302.109 65.684C301.501 65.684 301.009 65.896 300.633 66.32C300.265 66.736 300.081 67.276 300.081 67.94C300.081 68.604 300.265 69.148 300.633 69.572C301.009 69.988 301.501 70.196 302.109 70.196ZM306.222 67.94C306.222 67.316 306.342 66.768 306.582 66.296C306.83 65.824 307.174 65.46 307.614 65.204C308.054 64.94 308.558 64.808 309.126 64.808C309.686 64.808 310.182 64.924 310.614 65.156C311.046 65.388 311.386 65.724 311.634 66.164C311.882 66.604 312.014 67.12 312.03 67.712C312.03 67.8 312.022 67.94 312.006 68.132H307.254V68.216C307.27 68.816 307.454 69.296 307.806 69.656C308.158 70.016 308.618 70.196 309.186 70.196C309.626 70.196 309.998 70.088 310.302 69.872C310.614 69.648 310.822 69.34 310.926 68.948H311.922C311.802 69.572 311.502 70.084 311.022 70.484C310.542 70.876 309.954 71.072 309.258 71.072C308.65 71.072 308.118 70.944 307.662 70.688C307.206 70.424 306.85 70.056 306.594 69.584C306.346 69.104 306.222 68.556 306.222 67.94ZM311.01 67.316C310.962 66.796 310.766 66.392 310.422 66.104C310.086 65.816 309.658 65.672 309.138 65.672C308.674 65.672 308.266 65.824 307.914 66.128C307.562 66.432 307.362 66.828 307.314 67.316H311.01Z" fill="#667085"/>
<rect x="92" y="25" width="60" height="60" rx="18" fill="white"/>
<rect x="101" y="34" width="42" height="42" rx="14" fill="#F7F7F7"/>
<path d="M123.25 55C123.94 55 124.5 54.4404 124.5 53.75C124.5 53.0596 123.94 52.5 123.25 52.5C122.56 52.5 122 53.0596 122 53.75C122 54.4404 122.56 55 123.25 55Z" fill="black"/>
<path d="M126.19 45H117.81C114.17 45 112 47.17 112 50.81V59.18C112 62.83 114.17 65 117.81 65H126.18C129.82 65 131.99 62.83 131.99 59.19V50.81C132 47.17 129.83 45 126.19 45ZM125.89 56.47C124.86 57.49 123.39 57.81 122.09 57.4L121.03 58.45C120.94 58.54 120.78 58.54 120.68 58.45L119.71 57.48C119.57 57.34 119.33 57.34 119.18 57.48C119.03 57.62 119.04 57.86 119.18 58.01L120.15 58.98C120.25 59.08 120.25 59.24 120.15 59.33L119.74 59.74C119.57 59.92 119.24 60.03 119 60L117.91 59.85C117.55 59.8 117.22 59.46 117.16 59.1L117.01 58.01C116.97 57.77 117.09 57.44 117.25 57.27L119.6 54.92C119.2 53.62 119.51 52.15 120.54 51.12C122.01 49.65 124.41 49.65 125.89 51.12C127.37 52.59 127.37 54.99 125.89 56.47Z" fill="black"/>
<rect x="399" y="44" width="22" height="22" rx="11" fill="white"/>
<rect x="399" y="44" width="22" height="22" rx="11" stroke="#006EFE" stroke-width="2"/>
<circle cx="410" cy="55" r="8" fill="#006EFE"/>
</g>
<ellipse cx="248.428" cy="87.0264" rx="8.27788" ry="8.24705" fill="#FFC947"/>
<path d="M255.154 87.0263C255.154 90.7184 252.148 93.7213 248.428 93.7213C244.708 93.7213 241.702 90.7184 241.702 87.0263C241.702 83.3343 244.708 80.3314 248.428 80.3314C252.148 80.3314 255.154 83.3343 255.154 87.0263Z" stroke="#12141D" stroke-opacity="0.7" stroke-width="3.1042"/>
<path opacity="0.7" d="M248.427 89.0879C248.427 89.0879 251.779 117.053 240.149 126.2C230.319 133.931 217.635 127.263 209.625 133.931C197.918 143.676 204.451 171.043 204.451 171.043M204.451 171.043L194.621 159.703M204.451 171.043L212.212 158.157" stroke="#12141D" stroke-width="3.1042" stroke-linecap="round" stroke-linejoin="round"/>
<defs>
<filter id="filter0_d_1566_9544" x="0.2" y="326.2" width="393.6" height="117.6" filterUnits="userSpaceOnUse" color-interpolation-filters="sRGB">
<feFlood flood-opacity="0" result="BackgroundImageFix"/>
<feColorMatrix in="SourceAlpha" type="matrix" values="0 0 0 0 0 0 0 0 0 0 0 0 0 0 0 0 0 0 127 0" result="hardAlpha"/>
<feOffset dx="2" dy="4"/>
<feGaussianBlur stdDeviation="7.4"/>
<feComposite in2="hardAlpha" operator="out"/>
<feColorMatrix type="matrix" values="0 0 0 0 0 0 0 0 0 0 0 0 0 0 0 0 0 0 0.15 0"/>
<feBlend mode="normal" in2="BackgroundImageFix" result="effect1_dropShadow_1566_9544"/>
<feBlend mode="normal" in="SourceGraphic" in2="effect1_dropShadow_1566_9544" result="shape"/>
</filter>
<filter id="filter1_d_1566_9544" x="65.2" y="0.2" width="393.6" height="117.6" filterUnits="userSpaceOnUse" color-interpolation-filters="sRGB">
<feFlood flood-opacity="0" result="BackgroundImageFix"/>
<feColorMatrix in="SourceAlpha" type="matrix" values="0 0 0 0 0 0 0 0 0 0 0 0 0 0 0 0 0 0 127 0" result="hardAlpha"/>
<feOffset dx="2" dy="4"/>
<feGaussianBlur stdDeviation="7.4"/>
<feComposite in2="hardAlpha" operator="out"/>
<feColorMatrix type="matrix" values="0 0 0 0 0 0 0 0 0 0 0 0 0 0 0 0 0 0 0.15 0"/>
<feBlend mode="normal" in2="BackgroundImageFix" result="effect1_dropShadow_1566_9544"/>
<feBlend mode="normal" in="SourceGraphic" in2="effect1_dropShadow_1566_9544" result="shape"/>
</filter>
</defs>
</svg>
