<svg width="24" height="24" viewBox="0 0 24 24" fill="none" xmlns="http://www.w3.org/2000/svg">
<rect width="24" height="24" rx="12" fill="#CDF2FC"/>
<path d="M14.095 7H9.905C8.085 7 7 8.085 7 9.905V14.09C7 15.915 8.085 17 9.905 17H14.09C15.91 17 16.995 15.915 16.995 14.095V9.905C17 8.085 15.915 7 14.095 7ZM15.375 13C15.375 13.205 15.205 13.375 15 13.375C14.795 13.375 14.625 13.205 14.625 13V12.375H12.375V14.625H13C13.205 14.625 13.375 14.795 13.375 15C13.375 15.205 13.205 15.375 13 15.375H11C10.795 15.375 10.625 15.205 10.625 15C10.625 14.795 10.795 14.625 11 14.625H11.625V12.375H9.375V13C9.375 13.205 9.205 13.375 9 13.375C8.795 13.375 8.625 13.205 8.625 13V11C8.625 10.795 8.795 10.625 9 10.625C9.205 10.625 9.375 10.795 9.375 11V11.625H11.625V9.375H11C10.795 9.375 10.625 9.205 10.625 9C10.625 8.795 10.795 8.625 11 8.625H13C13.205 8.625 13.375 8.795 13.375 9C13.375 9.205 13.205 9.375 13 9.375H12.375V11.625H14.625V11C14.625 10.795 14.795 10.625 15 10.625C15.205 10.625 15.375 10.795 15.375 11V13Z" fill="#292D32"/>
</svg>
