<svg width="16" height="16" viewBox="0 0 16 16" fill="none" xmlns="http://www.w3.org/2000/svg">
<path d="M9.43668 2.59233L10.528 4.77494C10.6768 5.07877 11.0736 5.37019 11.4085 5.426L13.3864 5.75463C14.6514 5.96545 14.949 6.88314 14.0375 7.78842L12.4998 9.32616C12.2393 9.58659 12.0967 10.0888 12.1773 10.4485L12.6176 12.352C12.9648 13.8588 12.1649 14.4416 10.8318 13.6542L8.97784 12.5567C8.64301 12.3582 8.09115 12.3582 7.75012 12.5567L5.89615 13.6542C4.56923 14.4416 3.76315 13.8526 4.11038 12.352L4.55062 10.4485C4.63123 10.0888 4.48862 9.58659 4.22819 9.32616L2.69045 7.78842C1.78517 6.88314 2.07659 5.96545 3.34151 5.75463L5.3195 5.426C5.64813 5.37019 6.04496 5.07877 6.19378 4.77494L7.28508 2.59233C7.88033 1.40802 8.84762 1.40802 9.43668 2.59233Z" fill="#D57CFF"/>
</svg>
