<svg width="60" height="65" viewBox="0 0 60 65" fill="none" xmlns="http://www.w3.org/2000/svg">
<ellipse cx="30" cy="32.1166" rx="30" ry="32.0521" fill="#F23936"/>
<path d="M30.0059 16.0908C28.3589 16.0908 27.0023 17.5402 27.0023 19.2998C27.0023 20.6836 27.8453 21.8622 29.0047 22.3082V24.6815H31.007V22.3082C32.1665 21.8622 33.0094 20.6836 33.0094 19.2998C33.0094 17.5402 31.6528 16.0908 30.0059 16.0908ZM30.0059 18.2301C30.5707 18.2301 31.007 18.6963 31.007 19.2998C31.007 19.9033 30.5707 20.3694 30.0059 20.3694C29.4411 20.3694 29.0047 19.9033 29.0047 19.2998C29.0047 18.6963 29.4411 18.2301 30.0059 18.2301ZM21.4099 19.7385C20.6391 19.7385 19.8685 20.0524 19.2863 20.6745C18.1217 21.9187 18.1217 23.9679 19.2863 25.2122C20.2013 26.1898 21.5781 26.385 22.6926 25.8264L24.2648 27.5061L25.6805 25.9935L24.1083 24.318C24.6353 23.1259 24.4504 21.6541 23.5334 20.6745C22.9512 20.0524 22.1806 19.7385 21.4099 19.7385ZM38.5315 19.7594C37.7607 19.7594 36.9902 20.0732 36.4079 20.6954C35.4923 21.6736 35.3049 23.1436 35.8291 24.3347L34.2608 26.0102L35.6766 27.5228L37.2448 25.8473C38.3598 26.4079 39.7392 26.2116 40.6551 25.233C41.8196 23.9888 41.8196 21.9396 40.6551 20.6954C40.0728 20.0732 39.3022 19.7594 38.5315 19.7594ZM21.4099 21.8653C21.664 21.8653 21.918 21.9736 22.1177 22.187C22.5171 22.6136 22.5171 23.2728 22.1177 23.6996C21.7183 24.1262 21.1014 24.1262 20.702 23.6996C20.3026 23.2728 20.3026 22.6136 20.702 22.187C20.9017 21.9736 21.1557 21.8653 21.4099 21.8653ZM38.5315 21.8862C38.7856 21.8862 39.0397 21.9946 39.2393 22.2079C39.6387 22.6347 39.6387 23.2939 39.2393 23.7205C38.84 24.1473 38.223 24.1473 37.8236 23.7205C37.4243 23.2939 37.4243 22.6347 37.8236 22.2079C38.0233 21.9946 38.2774 21.8862 38.5315 21.8862ZM30.0215 26.7832C27.2687 26.7832 25.0156 29.1904 25.0156 32.1315C25.0156 35.0724 27.2687 37.4798 30.0215 37.4798C32.7743 37.4798 35.0274 35.0724 35.0274 32.1315C35.0274 29.1904 32.7743 26.7832 30.0215 26.7832ZM42.0669 28.9016C40.7717 28.9016 39.6685 29.8022 39.2511 31.041H37.0297V33.1803H39.2511C39.6695 34.4171 40.773 35.3196 42.0669 35.3196C43.7138 35.3196 45.0704 33.8702 45.0704 32.1106C45.0704 30.351 43.7138 28.9016 42.0669 28.9016ZM18.0035 28.9142C16.3566 28.9142 15 30.3636 15 32.1231C15 33.8829 16.3566 35.3321 18.0035 35.3321C19.2974 35.3321 20.4009 34.4296 20.8193 33.1928H23.0407V31.0535H20.8193C20.4019 29.8148 19.2987 28.9142 18.0035 28.9142ZM30.0215 28.9225C31.6922 28.9225 33.025 30.3465 33.025 32.1315C33.025 33.9163 31.6922 35.3405 30.0215 35.3405C28.3509 35.3405 27.018 33.9163 27.018 32.1315C27.018 30.3465 28.3509 28.9225 30.0215 28.9225ZM42.0669 31.041C42.6317 31.041 43.068 31.5071 43.068 32.1106C43.068 32.7141 42.6317 33.1803 42.0669 33.1803C41.5021 33.1803 41.0657 32.7141 41.0657 32.1106C41.0657 31.5071 41.5021 31.041 42.0669 31.041ZM18.0035 31.0535C18.5683 31.0535 19.0047 31.5199 19.0047 32.1231C19.0047 32.7266 18.5683 33.1928 18.0035 33.1928C17.4387 33.1928 17.0023 32.7266 17.0023 32.1231C17.0023 31.5199 17.4387 31.0535 18.0035 31.0535ZM30.483 37.4881C30.1013 37.4692 29.7183 37.4762 29.3371 37.5049C26.2878 37.7338 23.3309 39.4817 21.2065 42.5732L21.0109 42.8573V48.1429H22.0121H39.0321V42.8406L38.8365 42.5565C38.5422 42.1293 38.2297 41.7233 37.8979 41.3406C35.8 38.92 33.1546 37.621 30.483 37.4881ZM31.0227 39.6943C32.9419 39.9494 34.8276 40.9488 36.4274 42.7946C36.6381 43.0377 36.8351 43.305 37.0297 43.5718V46.0036H23.0133V43.647C24.6915 41.3257 26.8237 40.0104 29.0203 39.7027V42.8364V43.9061H31.0227V42.8364V39.6943Z" fill="white"/>
</svg>
