<svg width="520" height="480" viewBox="0 0 520 480" fill="none" xmlns="http://www.w3.org/2000/svg">
<g filter="url(#filter0_d_4108_8885)">
<rect x="80" y="76" width="360" height="320" rx="5" fill="white"/>
</g>
<path d="M80 81C80 78.2386 82.2386 76 85 76H435C437.761 76 440 78.2386 440 81V116H80V81Z" fill="#12141D"/>
<path d="M177.472 93.5625C177.419 93.0663 177.195 92.6799 176.801 92.4034C176.411 92.1269 175.903 91.9886 175.278 91.9886C174.839 91.9886 174.462 92.0549 174.148 92.1875C173.833 92.3201 173.593 92.5 173.426 92.7273C173.259 92.9545 173.174 93.214 173.17 93.5057C173.17 93.7481 173.225 93.9583 173.335 94.1364C173.449 94.3144 173.602 94.4659 173.795 94.5909C173.989 94.7121 174.203 94.8144 174.438 94.8977C174.672 94.9811 174.909 95.0511 175.148 95.108L176.239 95.3807C176.678 95.483 177.1 95.6212 177.506 95.7955C177.915 95.9697 178.28 96.1894 178.602 96.4545C178.928 96.7197 179.186 97.0398 179.375 97.4148C179.564 97.7898 179.659 98.2292 179.659 98.733C179.659 99.4148 179.485 100.015 179.136 100.534C178.788 101.049 178.284 101.453 177.625 101.744C176.97 102.032 176.176 102.176 175.244 102.176C174.339 102.176 173.553 102.036 172.886 101.756C172.223 101.475 171.705 101.066 171.33 100.528C170.958 99.9905 170.758 99.3352 170.727 98.5625H172.801C172.831 98.9678 172.956 99.3049 173.176 99.5739C173.396 99.8428 173.682 100.044 174.034 100.176C174.39 100.309 174.788 100.375 175.227 100.375C175.686 100.375 176.087 100.307 176.432 100.17C176.78 100.03 177.053 99.8371 177.25 99.5909C177.447 99.3409 177.547 99.0492 177.551 98.7159C177.547 98.4129 177.458 98.1629 177.284 97.9659C177.11 97.7652 176.866 97.5985 176.551 97.4659C176.241 97.3295 175.877 97.2083 175.46 97.1023L174.136 96.7614C173.178 96.5152 172.42 96.142 171.864 95.642C171.311 95.1383 171.034 94.4697 171.034 93.6364C171.034 92.9508 171.22 92.3504 171.591 91.8352C171.966 91.3201 172.475 90.9205 173.119 90.6364C173.763 90.3485 174.492 90.2045 175.307 90.2045C176.133 90.2045 176.856 90.3485 177.477 90.6364C178.102 90.9205 178.593 91.3163 178.949 91.8239C179.305 92.3277 179.489 92.9072 179.5 93.5625H177.472ZM187.01 98.3295V93.2727H189.067V102H187.072V100.449H186.982C186.785 100.937 186.461 101.337 186.01 101.648C185.563 101.958 185.012 102.114 184.357 102.114C183.785 102.114 183.279 101.987 182.839 101.733C182.404 101.475 182.063 101.102 181.817 100.614C181.571 100.121 181.447 99.5265 181.447 98.8295V93.2727H183.504V98.5114C183.504 99.0644 183.656 99.5038 183.959 99.8295C184.262 100.155 184.66 100.318 185.152 100.318C185.455 100.318 185.749 100.244 186.033 100.097C186.317 99.9489 186.55 99.7292 186.732 99.4375C186.917 99.142 187.01 98.7727 187.01 98.3295ZM194.989 102.17C194.117 102.17 193.369 101.979 192.744 101.597C192.123 101.214 191.644 100.686 191.307 100.011C190.973 99.3333 190.807 98.553 190.807 97.6705C190.807 96.7841 190.977 96.0019 191.318 95.3239C191.659 94.642 192.14 94.1117 192.761 93.733C193.386 93.3504 194.125 93.1591 194.977 93.1591C195.686 93.1591 196.313 93.2898 196.858 93.5511C197.407 93.8087 197.845 94.1742 198.17 94.6477C198.496 95.1174 198.682 95.6667 198.727 96.2955H196.761C196.682 95.875 196.492 95.5246 196.193 95.2443C195.898 94.9602 195.502 94.8182 195.006 94.8182C194.585 94.8182 194.216 94.9318 193.898 95.1591C193.58 95.3826 193.331 95.7045 193.153 96.125C192.979 96.5455 192.892 97.0492 192.892 97.6364C192.892 98.2311 192.979 98.7424 193.153 99.1705C193.328 99.5947 193.572 99.9223 193.886 100.153C194.205 100.381 194.578 100.494 195.006 100.494C195.309 100.494 195.58 100.437 195.818 100.324C196.061 100.206 196.263 100.038 196.426 99.8182C196.589 99.5985 196.701 99.3314 196.761 99.017H198.727C198.678 99.6345 198.496 100.182 198.182 100.659C197.867 101.133 197.439 101.504 196.898 101.773C196.356 102.038 195.72 102.17 194.989 102.17ZM204.223 102.17C203.352 102.17 202.604 101.979 201.979 101.597C201.357 101.214 200.878 100.686 200.541 100.011C200.208 99.3333 200.041 98.553 200.041 97.6705C200.041 96.7841 200.212 96.0019 200.553 95.3239C200.893 94.642 201.375 94.1117 201.996 93.733C202.621 93.3504 203.359 93.1591 204.212 93.1591C204.92 93.1591 205.547 93.2898 206.092 93.5511C206.642 93.8087 207.079 94.1742 207.405 94.6477C207.731 95.1174 207.916 95.6667 207.962 96.2955H205.996C205.916 95.875 205.727 95.5246 205.428 95.2443C205.132 94.9602 204.736 94.8182 204.24 94.8182C203.82 94.8182 203.45 94.9318 203.132 95.1591C202.814 95.3826 202.566 95.7045 202.388 96.125C202.214 96.5455 202.126 97.0492 202.126 97.6364C202.126 98.2311 202.214 98.7424 202.388 99.1705C202.562 99.5947 202.806 99.9223 203.121 100.153C203.439 100.381 203.812 100.494 204.24 100.494C204.543 100.494 204.814 100.437 205.053 100.324C205.295 100.206 205.498 100.038 205.661 99.8182C205.823 99.5985 205.935 99.3314 205.996 99.017H207.962C207.912 99.6345 207.731 100.182 207.416 100.659C207.102 101.133 206.674 101.504 206.132 101.773C205.59 102.038 204.954 102.17 204.223 102.17ZM213.514 102.17C212.639 102.17 211.884 101.989 211.247 101.625C210.615 101.258 210.128 100.739 209.787 100.068C209.446 99.3939 209.276 98.6004 209.276 97.6875C209.276 96.7898 209.446 96.0019 209.787 95.3239C210.132 94.642 210.613 94.1117 211.23 93.733C211.848 93.3504 212.573 93.1591 213.406 93.1591C213.944 93.1591 214.452 93.2462 214.929 93.4205C215.41 93.5909 215.834 93.8561 216.202 94.2159C216.573 94.5758 216.865 95.0341 217.077 95.5909C217.289 96.1439 217.395 96.803 217.395 97.5682V98.1989H210.241V96.8125H215.423C215.42 96.4186 215.334 96.0682 215.168 95.7614C215.001 95.4508 214.768 95.2064 214.469 95.0284C214.173 94.8504 213.829 94.7614 213.435 94.7614C213.014 94.7614 212.645 94.8636 212.327 95.0682C212.009 95.2689 211.76 95.5341 211.582 95.8636C211.408 96.1894 211.319 96.5473 211.315 96.9375V98.1477C211.315 98.6553 211.408 99.0909 211.594 99.4545C211.779 99.8144 212.039 100.091 212.372 100.284C212.705 100.473 213.096 100.568 213.543 100.568C213.842 100.568 214.113 100.527 214.355 100.443C214.598 100.356 214.808 100.229 214.986 100.062C215.164 99.8958 215.298 99.6894 215.389 99.4432L217.31 99.6591C217.188 100.167 216.957 100.61 216.616 100.989C216.279 101.364 215.848 101.655 215.321 101.864C214.795 102.068 214.192 102.17 213.514 102.17ZM226.033 95.5795L224.158 95.7841C224.105 95.5947 224.012 95.4167 223.879 95.25C223.75 95.0833 223.576 94.9489 223.357 94.8466C223.137 94.7443 222.868 94.6932 222.55 94.6932C222.122 94.6932 221.762 94.786 221.47 94.9716C221.182 95.1572 221.04 95.3977 221.044 95.6932C221.04 95.947 221.133 96.1534 221.322 96.3125C221.516 96.4716 221.834 96.6023 222.277 96.7045L223.766 97.0227C224.591 97.2008 225.205 97.483 225.607 97.8693C226.012 98.2557 226.216 98.7614 226.22 99.3864C226.216 99.9356 226.055 100.42 225.737 100.841C225.423 101.258 224.985 101.583 224.425 101.818C223.864 102.053 223.22 102.17 222.493 102.17C221.425 102.17 220.565 101.947 219.913 101.5C219.262 101.049 218.874 100.422 218.749 99.6193L220.754 99.4261C220.845 99.8201 221.038 100.117 221.334 100.318C221.629 100.519 222.014 100.619 222.487 100.619C222.976 100.619 223.368 100.519 223.663 100.318C223.963 100.117 224.112 99.8693 224.112 99.5739C224.112 99.3239 224.016 99.1174 223.822 98.9545C223.633 98.7917 223.338 98.6667 222.936 98.5795L221.447 98.267C220.61 98.0928 219.991 97.7992 219.589 97.3864C219.188 96.9697 218.989 96.4432 218.993 95.8068C218.989 95.2689 219.135 94.803 219.43 94.4091C219.73 94.0114 220.144 93.7045 220.675 93.4886C221.209 93.2689 221.824 93.1591 222.521 93.1591C223.544 93.1591 224.349 93.3769 224.936 93.8125C225.527 94.2481 225.893 94.8371 226.033 95.5795ZM234.814 95.5795L232.939 95.7841C232.886 95.5947 232.793 95.4167 232.661 95.25C232.532 95.0833 232.357 94.9489 232.138 94.8466C231.918 94.7443 231.649 94.6932 231.331 94.6932C230.903 94.6932 230.543 94.786 230.251 94.9716C229.964 95.1572 229.821 95.3977 229.825 95.6932C229.821 95.947 229.914 96.1534 230.104 96.3125C230.297 96.4716 230.615 96.6023 231.058 96.7045L232.547 97.0227C233.373 97.2008 233.986 97.483 234.388 97.8693C234.793 98.2557 234.998 98.7614 235.001 99.3864C234.998 99.9356 234.837 100.42 234.518 100.841C234.204 101.258 233.767 101.583 233.206 101.818C232.645 102.053 232.001 102.17 231.274 102.17C230.206 102.17 229.346 101.947 228.695 101.5C228.043 101.049 227.655 100.422 227.53 99.6193L229.536 99.4261C229.626 99.8201 229.82 100.117 230.115 100.318C230.411 100.519 230.795 100.619 231.268 100.619C231.757 100.619 232.149 100.519 232.445 100.318C232.744 100.117 232.893 99.8693 232.893 99.5739C232.893 99.3239 232.797 99.1174 232.604 98.9545C232.414 98.7917 232.119 98.6667 231.717 98.5795L230.229 98.267C229.392 98.0928 228.772 97.7992 228.371 97.3864C227.969 96.9697 227.77 96.4432 227.774 95.8068C227.77 95.2689 227.916 94.803 228.212 94.4091C228.511 94.0114 228.926 93.7045 229.456 93.4886C229.99 93.2689 230.606 93.1591 231.303 93.1591C232.325 93.1591 233.13 93.3769 233.717 93.8125C234.308 94.2481 234.674 94.8371 234.814 95.5795ZM241.118 93.2727V94.8636H235.959V93.2727H241.118ZM237.249 102V92.4489C237.249 91.8617 237.37 91.3731 237.612 90.983C237.858 90.5928 238.188 90.3011 238.601 90.108C239.014 89.9148 239.472 89.8182 239.976 89.8182C240.332 89.8182 240.648 89.8466 240.925 89.9034C241.201 89.9602 241.406 90.0114 241.538 90.0568L241.129 91.6477C241.042 91.6212 240.932 91.5947 240.8 91.5682C240.667 91.5379 240.519 91.5227 240.357 91.5227C239.974 91.5227 239.703 91.6155 239.544 91.8011C239.389 91.983 239.311 92.2443 239.311 92.5852V102H237.249ZM248.291 98.3295V93.2727H250.348V102H248.354V100.449H248.263C248.066 100.937 247.742 101.337 247.291 101.648C246.844 101.958 246.293 102.114 245.638 102.114C245.066 102.114 244.56 101.987 244.121 101.733C243.685 101.475 243.344 101.102 243.098 100.614C242.852 100.121 242.729 99.5265 242.729 98.8295V93.2727H244.786V98.5114C244.786 99.0644 244.937 99.5038 245.24 99.8295C245.543 100.155 245.941 100.318 246.433 100.318C246.736 100.318 247.03 100.244 247.314 100.097C247.598 99.9489 247.831 99.7292 248.013 99.4375C248.198 99.142 248.291 98.7727 248.291 98.3295ZM254.52 90.3636V102H252.463V90.3636H254.52ZM260.183 92.1307V90.3636H269.467V92.1307H265.871V102H263.78V92.1307H260.183ZM270.26 102V93.2727H272.254V94.7273H272.345C272.504 94.2235 272.777 93.8352 273.163 93.5625C273.554 93.286 273.999 93.1477 274.499 93.1477C274.612 93.1477 274.739 93.1534 274.879 93.1648C275.023 93.1723 275.143 93.1856 275.237 93.2045V95.0966C275.15 95.0663 275.012 95.0398 274.822 95.017C274.637 94.9905 274.457 94.9773 274.283 94.9773C273.908 94.9773 273.571 95.0587 273.271 95.2216C272.976 95.3807 272.743 95.6023 272.572 95.8864C272.402 96.1705 272.317 96.4981 272.317 96.8693V102H270.26ZM278.959 102.176C278.406 102.176 277.908 102.078 277.464 101.881C277.025 101.68 276.677 101.384 276.419 100.994C276.165 100.604 276.038 100.123 276.038 99.5511C276.038 99.0587 276.129 98.6515 276.311 98.3295C276.493 98.0076 276.741 97.75 277.055 97.5568C277.37 97.3636 277.724 97.2178 278.118 97.1193C278.516 97.017 278.927 96.9432 279.351 96.8977C279.862 96.8447 280.277 96.7973 280.595 96.7557C280.913 96.7102 281.144 96.642 281.288 96.5511C281.436 96.4564 281.51 96.3106 281.51 96.1136V96.0795C281.51 95.6515 281.383 95.3201 281.129 95.0852C280.875 94.8504 280.51 94.733 280.033 94.733C279.529 94.733 279.129 94.8428 278.834 95.0625C278.542 95.2822 278.345 95.5417 278.243 95.8409L276.322 95.5682C276.474 95.0379 276.724 94.5947 277.072 94.2386C277.421 93.8788 277.847 93.6098 278.351 93.4318C278.855 93.25 279.411 93.1591 280.021 93.1591C280.442 93.1591 280.86 93.2083 281.277 93.3068C281.694 93.4053 282.074 93.5682 282.419 93.7955C282.764 94.0189 283.04 94.3239 283.249 94.7102C283.461 95.0966 283.567 95.5795 283.567 96.1591V102H281.589V100.801H281.521C281.396 101.044 281.22 101.271 280.993 101.483C280.769 101.691 280.487 101.86 280.146 101.989C279.809 102.114 279.413 102.176 278.959 102.176ZM279.493 100.665C279.906 100.665 280.264 100.583 280.567 100.42C280.87 100.254 281.103 100.034 281.266 99.7614C281.432 99.4886 281.516 99.1913 281.516 98.8693V97.8409C281.451 97.8939 281.341 97.9432 281.186 97.9886C281.035 98.0341 280.864 98.0739 280.675 98.108C280.485 98.142 280.298 98.1723 280.112 98.1989C279.927 98.2254 279.766 98.2481 279.629 98.267C279.322 98.3087 279.048 98.3769 278.805 98.4716C278.563 98.5663 278.372 98.6989 278.232 98.8693C278.091 99.036 278.021 99.2519 278.021 99.517C278.021 99.8958 278.16 100.182 278.436 100.375C278.713 100.568 279.065 100.665 279.493 100.665ZM287.692 96.8864V102H285.635V93.2727H287.601V94.7557H287.703C287.904 94.267 288.224 93.8788 288.663 93.5909C289.107 93.303 289.654 93.1591 290.305 93.1591C290.908 93.1591 291.432 93.2879 291.879 93.5455C292.33 93.803 292.679 94.1761 292.925 94.6648C293.175 95.1534 293.298 95.7462 293.294 96.4432V102H291.237V96.7614C291.237 96.178 291.086 95.7216 290.783 95.392C290.483 95.0625 290.069 94.8977 289.538 94.8977C289.179 94.8977 288.858 94.9773 288.578 95.1364C288.302 95.2917 288.084 95.517 287.925 95.8125C287.769 96.108 287.692 96.4659 287.692 96.8864ZM302.283 95.5795L300.408 95.7841C300.355 95.5947 300.262 95.4167 300.129 95.25C300 95.0833 299.826 94.9489 299.607 94.8466C299.387 94.7443 299.118 94.6932 298.8 94.6932C298.372 94.6932 298.012 94.786 297.72 94.9716C297.432 95.1572 297.29 95.3977 297.294 95.6932C297.29 95.947 297.383 96.1534 297.572 96.3125C297.766 96.4716 298.084 96.6023 298.527 96.7045L300.016 97.0227C300.841 97.2008 301.455 97.483 301.857 97.8693C302.262 98.2557 302.466 98.7614 302.47 99.3864C302.466 99.9356 302.305 100.42 301.987 100.841C301.673 101.258 301.235 101.583 300.675 101.818C300.114 102.053 299.47 102.17 298.743 102.17C297.675 102.17 296.815 101.947 296.163 101.5C295.512 101.049 295.124 100.422 294.999 99.6193L297.004 99.4261C297.095 99.8201 297.288 100.117 297.584 100.318C297.879 100.519 298.264 100.619 298.737 100.619C299.226 100.619 299.618 100.519 299.913 100.318C300.213 100.117 300.362 99.8693 300.362 99.5739C300.362 99.3239 300.266 99.1174 300.072 98.9545C299.883 98.7917 299.588 98.6667 299.186 98.5795L297.697 98.267C296.86 98.0928 296.241 97.7992 295.839 97.3864C295.438 96.9697 295.239 96.4432 295.243 95.8068C295.239 95.2689 295.385 94.803 295.68 94.4091C295.98 94.0114 296.394 93.7045 296.925 93.4886C297.459 93.2689 298.074 93.1591 298.771 93.1591C299.794 93.1591 300.599 93.3769 301.186 93.8125C301.777 94.2481 302.143 94.8371 302.283 95.5795ZM306.678 102.176C306.125 102.176 305.626 102.078 305.183 101.881C304.744 101.68 304.395 101.384 304.138 100.994C303.884 100.604 303.757 100.123 303.757 99.5511C303.757 99.0587 303.848 98.6515 304.03 98.3295C304.212 98.0076 304.46 97.75 304.774 97.5568C305.089 97.3636 305.443 97.2178 305.837 97.1193C306.234 97.017 306.645 96.9432 307.07 96.8977C307.581 96.8447 307.996 96.7973 308.314 96.7557C308.632 96.7102 308.863 96.642 309.007 96.5511C309.155 96.4564 309.229 96.3106 309.229 96.1136V96.0795C309.229 95.6515 309.102 95.3201 308.848 95.0852C308.594 94.8504 308.229 94.733 307.751 94.733C307.248 94.733 306.848 94.8428 306.553 95.0625C306.261 95.2822 306.064 95.5417 305.962 95.8409L304.041 95.5682C304.193 95.0379 304.443 94.5947 304.791 94.2386C305.14 93.8788 305.566 93.6098 306.07 93.4318C306.573 93.25 307.13 93.1591 307.74 93.1591C308.161 93.1591 308.579 93.2083 308.996 93.3068C309.412 93.4053 309.793 93.5682 310.138 93.7955C310.482 94.0189 310.759 94.3239 310.967 94.7102C311.179 95.0966 311.286 95.5795 311.286 96.1591V102H309.308V100.801H309.24C309.115 101.044 308.939 101.271 308.712 101.483C308.488 101.691 308.206 101.86 307.865 101.989C307.528 102.114 307.132 102.176 306.678 102.176ZM307.212 100.665C307.625 100.665 307.982 100.583 308.286 100.42C308.589 100.254 308.821 100.034 308.984 99.7614C309.151 99.4886 309.234 99.1913 309.234 98.8693V97.8409C309.17 97.8939 309.06 97.9432 308.905 97.9886C308.753 98.0341 308.583 98.0739 308.393 98.108C308.204 98.142 308.017 98.1723 307.831 98.1989C307.645 98.2254 307.484 98.2481 307.348 98.267C307.041 98.3087 306.767 98.3769 306.524 98.4716C306.282 98.5663 306.09 98.6989 305.95 98.8693C305.81 99.036 305.74 99.2519 305.74 99.517C305.74 99.8958 305.878 100.182 306.155 100.375C306.431 100.568 306.784 100.665 307.212 100.665ZM317.161 102.17C316.289 102.17 315.541 101.979 314.916 101.597C314.295 101.214 313.816 100.686 313.479 100.011C313.145 99.3333 312.979 98.553 312.979 97.6705C312.979 96.7841 313.149 96.0019 313.49 95.3239C313.831 94.642 314.312 94.1117 314.933 93.733C315.558 93.3504 316.297 93.1591 317.149 93.1591C317.857 93.1591 318.484 93.2898 319.03 93.5511C319.579 93.8087 320.017 94.1742 320.342 94.6477C320.668 95.1174 320.854 95.6667 320.899 96.2955H318.933C318.854 95.875 318.664 95.5246 318.365 95.2443C318.07 94.9602 317.674 94.8182 317.178 94.8182C316.757 94.8182 316.388 94.9318 316.07 95.1591C315.751 95.3826 315.503 95.7045 315.325 96.125C315.151 96.5455 315.064 97.0492 315.064 97.6364C315.064 98.2311 315.151 98.7424 315.325 99.1705C315.5 99.5947 315.744 99.9223 316.058 100.153C316.376 100.381 316.75 100.494 317.178 100.494C317.481 100.494 317.751 100.437 317.99 100.324C318.232 100.206 318.435 100.038 318.598 99.8182C318.761 99.5985 318.873 99.3314 318.933 99.017H320.899C320.85 99.6345 320.668 100.182 320.354 100.659C320.039 101.133 319.611 101.504 319.07 101.773C318.528 102.038 317.892 102.17 317.161 102.17ZM326.946 93.2727V94.8636H321.929V93.2727H326.946ZM323.168 91.1818H325.224V99.375C325.224 99.6515 325.266 99.8636 325.349 100.011C325.437 100.155 325.55 100.254 325.69 100.307C325.83 100.36 325.986 100.386 326.156 100.386C326.285 100.386 326.402 100.377 326.509 100.358C326.618 100.339 326.702 100.322 326.759 100.307L327.105 101.915C326.995 101.953 326.838 101.994 326.634 102.04C326.433 102.085 326.187 102.112 325.895 102.119C325.38 102.134 324.916 102.057 324.503 101.886C324.09 101.712 323.762 101.443 323.52 101.08C323.281 100.716 323.164 100.261 323.168 99.7159V91.1818ZM328.666 102V93.2727H330.723V102H328.666ZM329.7 92.0341C329.375 92.0341 329.094 91.9261 328.859 91.7102C328.625 91.4905 328.507 91.2273 328.507 90.9205C328.507 90.6098 328.625 90.3466 328.859 90.1307C329.094 89.911 329.375 89.8011 329.7 89.8011C330.03 89.8011 330.31 89.911 330.541 90.1307C330.776 90.3466 330.893 90.6098 330.893 90.9205C330.893 91.2273 330.776 91.4905 330.541 91.7102C330.31 91.9261 330.03 92.0341 329.7 92.0341ZM336.645 102.17C335.793 102.17 335.054 101.983 334.429 101.608C333.804 101.233 333.319 100.708 332.974 100.034C332.634 99.3598 332.463 98.572 332.463 97.6705C332.463 96.7689 332.634 95.9792 332.974 95.3011C333.319 94.6231 333.804 94.0966 334.429 93.7216C335.054 93.3466 335.793 93.1591 336.645 93.1591C337.497 93.1591 338.236 93.3466 338.861 93.7216C339.486 94.0966 339.969 94.6231 340.31 95.3011C340.654 95.9792 340.827 96.7689 340.827 97.6705C340.827 98.572 340.654 99.3598 340.31 100.034C339.969 100.708 339.486 101.233 338.861 101.608C338.236 101.983 337.497 102.17 336.645 102.17ZM336.656 100.523C337.118 100.523 337.505 100.396 337.815 100.142C338.126 99.8845 338.357 99.5398 338.509 99.108C338.664 98.6761 338.741 98.1951 338.741 97.6648C338.741 97.1307 338.664 96.6477 338.509 96.2159C338.357 95.7803 338.126 95.4337 337.815 95.1761C337.505 94.9186 337.118 94.7898 336.656 94.7898C336.183 94.7898 335.789 94.9186 335.474 95.1761C335.164 95.4337 334.931 95.7803 334.776 96.2159C334.624 96.6477 334.548 97.1307 334.548 97.6648C334.548 98.1951 334.624 98.6761 334.776 99.108C334.931 99.5398 335.164 99.8845 335.474 100.142C335.789 100.396 336.183 100.523 336.656 100.523ZM344.629 96.8864V102H342.572V93.2727H344.538V94.7557H344.641C344.841 94.267 345.161 93.8788 345.601 93.5909C346.044 93.303 346.591 93.1591 347.243 93.1591C347.845 93.1591 348.37 93.2879 348.817 93.5455C349.268 93.803 349.616 94.1761 349.862 94.6648C350.112 95.1534 350.235 95.7462 350.232 96.4432V102H348.175V96.7614C348.175 96.178 348.023 95.7216 347.72 95.392C347.421 95.0625 347.006 94.8977 346.476 94.8977C346.116 94.8977 345.796 94.9773 345.516 95.1364C345.239 95.2917 345.021 95.517 344.862 95.8125C344.707 96.108 344.629 96.4659 344.629 96.8864Z" fill="white"/>
<g filter="url(#filter1_dd_4108_8885)">
<rect x="128" y="145.2" width="264" height="204.6" rx="29.04" fill="white"/>
<rect x="175.52" y="178.2" width="39.6" height="39.6" rx="19.8" fill="#DCFFC7"/>
<path d="M203.019 206.663V204.738C203.019 203.717 202.614 202.738 201.892 202.016C201.169 201.294 200.19 200.888 199.169 200.888H191.469C190.448 200.888 189.469 201.294 188.747 202.016C188.025 202.738 187.619 203.717 187.619 204.738V206.663M199.169 193.188C199.169 195.314 197.445 197.038 195.319 197.038C193.193 197.038 191.469 195.314 191.469 193.188C191.469 191.062 193.193 189.338 195.319 189.338C197.445 189.338 199.169 191.062 199.169 193.188Z" stroke="#006FFF" stroke-width="0.99" stroke-linecap="round" stroke-linejoin="round"/>
<g clip-path="url(#clip0_4108_8885)">
<path d="M166.28 217.8C177.216 217.8 186.08 208.935 186.08 198C186.08 187.065 177.216 178.2 166.28 178.2C155.345 178.2 146.48 187.065 146.48 198C146.48 208.935 155.345 217.8 166.28 217.8Z" fill="#00B777"/>
<path d="M166.279 213.84C175.028 213.84 182.119 206.748 182.119 198C182.119 189.252 175.028 182.16 166.279 182.16C157.531 182.16 150.439 189.252 150.439 198C150.439 206.748 157.531 213.84 166.279 213.84Z" fill="#00B777"/>
<path d="M174.67 192.771L164.85 202.59L160.387 198.127" stroke="white" stroke-width="1.32" stroke-linecap="round" stroke-linejoin="round"/>
</g>
<path d="M260.22 196.402V198.078H255.034V196.402H260.22ZM273.077 195.687V196.812H261.602V195.687H273.077ZM273.077 198.117V199.242H261.602V198.117H273.077ZM272.082 191.48V203H270.226L264.792 195.153H264.702V203H262.609V191.48H264.482L269.899 199.332H270.006V191.48H272.082ZM278.394 203.157C277.644 203.157 276.973 203.017 276.381 202.736C275.788 202.451 275.318 202.061 274.969 201.566C274.624 201.071 274.44 200.504 274.418 199.867H276.443C276.48 200.339 276.684 200.726 277.056 201.026C277.427 201.322 277.873 201.47 278.394 201.47C278.803 201.47 279.167 201.376 279.486 201.189C279.804 201.001 280.056 200.741 280.239 200.407C280.423 200.073 280.513 199.692 280.509 199.265C280.513 198.83 280.421 198.444 280.234 198.106C280.046 197.769 279.789 197.504 279.463 197.313C279.137 197.118 278.762 197.021 278.338 197.021C277.993 197.017 277.654 197.081 277.32 197.212C276.986 197.343 276.722 197.516 276.527 197.729L274.643 197.42L275.244 191.48H281.927V193.224H276.971L276.639 196.278H276.707C276.921 196.027 277.223 195.819 277.613 195.654C278.003 195.485 278.43 195.401 278.895 195.401C279.593 195.401 280.215 195.566 280.763 195.896C281.31 196.222 281.741 196.672 282.056 197.246C282.371 197.819 282.529 198.476 282.529 199.214C282.529 199.976 282.353 200.654 282 201.251C281.651 201.843 281.166 202.31 280.543 202.651C279.924 202.989 279.208 203.157 278.394 203.157ZM288.671 203.219C287.745 203.219 286.95 202.985 286.286 202.516C285.626 202.044 285.118 201.363 284.762 200.474C284.409 199.582 284.233 198.507 284.233 197.251C284.237 195.995 284.415 194.926 284.768 194.045C285.124 193.16 285.632 192.485 286.292 192.02C286.956 191.555 287.749 191.322 288.671 191.322C289.594 191.322 290.387 191.555 291.051 192.02C291.714 192.485 292.223 193.16 292.575 194.045C292.931 194.93 293.109 195.999 293.109 197.251C293.109 198.511 292.931 199.587 292.575 200.48C292.223 201.369 291.714 202.047 291.051 202.516C290.391 202.985 289.598 203.219 288.671 203.219ZM288.671 201.459C289.391 201.459 289.959 201.104 290.376 200.396C290.796 199.683 291.006 198.635 291.006 197.251C291.006 196.336 290.91 195.567 290.719 194.945C290.528 194.322 290.258 193.854 289.909 193.539C289.56 193.22 289.148 193.061 288.671 193.061C287.955 193.061 287.389 193.417 286.973 194.129C286.556 194.838 286.346 195.879 286.343 197.251C286.339 198.17 286.431 198.942 286.618 199.569C286.809 200.195 287.079 200.667 287.428 200.986C287.777 201.301 288.191 201.459 288.671 201.459ZM299.236 203.219C298.31 203.219 297.515 202.985 296.851 202.516C296.191 202.044 295.683 201.363 295.327 200.474C294.975 199.582 294.798 198.507 294.798 197.251C294.802 195.995 294.98 194.926 295.333 194.045C295.689 193.16 296.197 192.485 296.857 192.02C297.521 191.555 298.314 191.322 299.236 191.322C300.159 191.322 300.952 191.555 301.616 192.02C302.28 192.485 302.788 193.16 303.14 194.045C303.496 194.93 303.675 195.999 303.675 197.251C303.675 198.511 303.496 199.587 303.14 200.48C302.788 201.369 302.28 202.047 301.616 202.516C300.956 202.985 300.163 203.219 299.236 203.219ZM299.236 201.459C299.956 201.459 300.525 201.104 300.941 200.396C301.361 199.683 301.571 198.635 301.571 197.251C301.571 196.336 301.475 195.567 301.284 194.945C301.093 194.322 300.823 193.854 300.474 193.539C300.125 193.22 299.713 193.061 299.236 193.061C298.52 193.061 297.954 193.417 297.538 194.129C297.121 194.838 296.911 195.879 296.908 197.251C296.904 198.17 296.996 198.942 297.183 199.569C297.375 200.195 297.645 200.667 297.993 200.986C298.342 201.301 298.756 201.459 299.236 201.459ZM307.508 201.425L307.435 202.044C307.382 202.516 307.289 202.996 307.154 203.484C307.022 203.975 306.884 204.427 306.737 204.839C306.591 205.252 306.473 205.576 306.383 205.813H305.011C305.063 205.584 305.134 205.273 305.224 204.879C305.318 204.485 305.408 204.043 305.494 203.551C305.581 203.06 305.639 202.561 305.669 202.055L305.708 201.425H307.508ZM313.576 203.219C312.65 203.219 311.855 202.985 311.191 202.516C310.531 202.044 310.023 201.363 309.667 200.474C309.314 199.582 309.138 198.507 309.138 197.251C309.142 195.995 309.32 194.926 309.672 194.045C310.029 193.16 310.537 192.485 311.197 192.02C311.86 191.555 312.654 191.322 313.576 191.322C314.499 191.322 315.292 191.555 315.955 192.02C316.619 192.485 317.127 193.16 317.48 194.045C317.836 194.93 318.014 195.999 318.014 197.251C318.014 198.511 317.836 199.587 317.48 200.48C317.127 201.369 316.619 202.047 315.955 202.516C315.295 202.985 314.502 203.219 313.576 203.219ZM313.576 201.459C314.296 201.459 314.864 201.104 315.28 200.396C315.7 199.683 315.91 198.635 315.91 197.251C315.91 196.336 315.815 195.567 315.624 194.945C315.432 194.322 315.162 193.854 314.814 193.539C314.465 193.22 314.052 193.061 313.576 193.061C312.86 193.061 312.294 193.417 311.877 194.129C311.461 194.838 311.251 195.879 311.247 197.251C311.244 198.17 311.335 198.942 311.523 199.569C311.714 200.195 311.984 200.667 312.333 200.986C312.682 201.301 313.096 201.459 313.576 201.459ZM324.141 203.219C323.215 203.219 322.42 202.985 321.756 202.516C321.096 202.044 320.588 201.363 320.232 200.474C319.879 199.582 319.703 198.507 319.703 197.251C319.707 195.995 319.885 194.926 320.237 194.045C320.594 193.16 321.102 192.485 321.762 192.02C322.426 191.555 323.219 191.322 324.141 191.322C325.064 191.322 325.857 191.555 326.521 192.02C327.184 192.485 327.692 193.16 328.045 194.045C328.401 194.93 328.579 195.999 328.579 197.251C328.579 198.511 328.401 199.587 328.045 200.48C327.692 201.369 327.184 202.047 326.521 202.516C325.861 202.985 325.067 203.219 324.141 203.219ZM324.141 201.459C324.861 201.459 325.429 201.104 325.846 200.396C326.266 199.683 326.476 198.635 326.476 197.251C326.476 196.336 326.38 195.567 326.189 194.945C325.997 194.322 325.727 193.854 325.379 193.539C325.03 193.22 324.617 193.061 324.141 193.061C323.425 193.061 322.859 193.417 322.442 194.129C322.026 194.838 321.816 195.879 321.812 197.251C321.809 198.17 321.901 198.942 322.088 199.569C322.279 200.195 322.549 200.667 322.898 200.986C323.247 201.301 323.661 201.459 324.141 201.459ZM334.706 203.219C333.78 203.219 332.985 202.985 332.321 202.516C331.661 202.044 331.153 201.363 330.797 200.474C330.444 199.582 330.268 198.507 330.268 197.251C330.272 195.995 330.45 194.926 330.803 194.045C331.159 193.16 331.667 192.485 332.327 192.02C332.991 191.555 333.784 191.322 334.706 191.322C335.629 191.322 336.422 191.555 337.086 192.02C337.749 192.485 338.258 193.16 338.61 194.045C338.966 194.93 339.144 195.999 339.144 197.251C339.144 198.511 338.966 199.587 338.61 200.48C338.258 201.369 337.749 202.047 337.086 202.516C336.426 202.985 335.633 203.219 334.706 203.219ZM334.706 201.459C335.426 201.459 335.994 201.104 336.411 200.396C336.831 199.683 337.041 198.635 337.041 197.251C337.041 196.336 336.945 195.567 336.754 194.945C336.563 194.322 336.293 193.854 335.944 193.539C335.595 193.22 335.183 193.061 334.706 193.061C333.99 193.061 333.424 193.417 333.008 194.129C332.591 194.838 332.381 195.879 332.378 197.251C332.374 198.17 332.466 198.942 332.653 199.569C332.844 200.195 333.114 200.667 333.463 200.986C333.812 201.301 334.226 201.459 334.706 201.459ZM341.842 203.124C341.5 203.124 341.208 203.004 340.964 202.764C340.72 202.524 340.6 202.231 340.604 201.886C340.6 201.549 340.72 201.26 340.964 201.02C341.208 200.78 341.5 200.66 341.842 200.66C342.172 200.66 342.459 200.78 342.702 201.02C342.95 201.26 343.075 201.549 343.079 201.886C343.075 202.115 343.015 202.323 342.899 202.511C342.787 202.698 342.637 202.848 342.449 202.961C342.265 203.069 342.063 203.124 341.842 203.124ZM348.969 203.219C348.042 203.219 347.247 202.985 346.584 202.516C345.924 202.044 345.415 201.363 345.059 200.474C344.707 199.582 344.53 198.507 344.53 197.251C344.534 195.995 344.712 194.926 345.065 194.045C345.421 193.16 345.929 192.485 346.589 192.02C347.253 191.555 348.046 191.322 348.969 191.322C349.891 191.322 350.684 191.555 351.348 192.02C352.012 192.485 352.52 193.16 352.872 194.045C353.229 194.93 353.407 195.999 353.407 197.251C353.407 198.511 353.229 199.587 352.872 200.48C352.52 201.369 352.012 202.047 351.348 202.516C350.688 202.985 349.895 203.219 348.969 203.219ZM348.969 201.459C349.689 201.459 350.257 201.104 350.673 200.396C351.093 199.683 351.303 198.635 351.303 197.251C351.303 196.336 351.207 195.567 351.016 194.945C350.825 194.322 350.555 193.854 350.206 193.539C349.857 193.22 349.445 193.061 348.969 193.061C348.252 193.061 347.686 193.417 347.27 194.129C346.854 194.838 346.644 195.879 346.64 197.251C346.636 198.17 346.728 198.942 346.915 199.569C347.107 200.195 347.377 200.667 347.725 200.986C348.074 201.301 348.489 201.459 348.969 201.459ZM359.534 203.219C358.607 203.219 357.812 202.985 357.149 202.516C356.489 202.044 355.981 201.363 355.624 200.474C355.272 199.582 355.096 198.507 355.096 197.251C355.099 195.995 355.277 194.926 355.63 194.045C355.986 193.16 356.494 192.485 357.154 192.02C357.818 191.555 358.611 191.322 359.534 191.322C360.456 191.322 361.249 191.555 361.913 192.02C362.577 192.485 363.085 193.16 363.437 194.045C363.794 194.93 363.972 195.999 363.972 197.251C363.972 198.511 363.794 199.587 363.437 200.48C363.085 201.369 362.577 202.047 361.913 202.516C361.253 202.985 360.46 203.219 359.534 203.219ZM359.534 201.459C360.254 201.459 360.822 201.104 361.238 200.396C361.658 199.683 361.868 198.635 361.868 197.251C361.868 196.336 361.772 195.567 361.581 194.945C361.39 194.322 361.12 193.854 360.771 193.539C360.422 193.22 360.01 193.061 359.534 193.061C358.817 193.061 358.251 193.417 357.835 194.129C357.419 194.838 357.209 195.879 357.205 197.251C357.201 198.17 357.293 198.942 357.481 199.569C357.672 200.195 357.942 200.667 358.291 200.986C358.639 201.301 359.054 201.459 359.534 201.459Z" fill="#080B30"/>
<g clip-path="url(#clip1_4108_8885)">
<rect x="140.209" y="224.4" width="239.58" height="38.28" rx="5.28" fill="#F8F8FA" fill-opacity="0.2"/>
<rect width="264.66" height="0.66" transform="translate(140.209 224.401)" fill="white"/>
<path d="M151.608 235.806V234.981H157.368V235.806H154.953V242.661H154.023V235.806H151.608ZM158.085 242.661V236.901H158.94V237.771H159C159.105 237.486 159.295 237.255 159.57 237.077C159.845 236.9 160.155 236.811 160.5 236.811C160.565 236.811 160.646 236.812 160.744 236.815C160.841 236.817 160.915 236.821 160.965 236.826V237.726C160.935 237.719 160.866 237.707 160.759 237.692C160.654 237.675 160.542 237.666 160.425 237.666C160.145 237.666 159.895 237.725 159.675 237.842C159.457 237.957 159.285 238.117 159.157 238.322C159.032 238.525 158.97 238.756 158.97 239.016V242.661H158.085ZM163.709 242.796C163.344 242.796 163.013 242.727 162.715 242.59C162.418 242.45 162.181 242.249 162.006 241.986C161.831 241.721 161.744 241.401 161.744 241.026C161.744 240.696 161.809 240.429 161.939 240.224C162.069 240.016 162.243 239.854 162.46 239.736C162.678 239.619 162.918 239.531 163.18 239.474C163.445 239.414 163.711 239.366 163.979 239.331C164.329 239.286 164.613 239.252 164.83 239.23C165.05 239.205 165.21 239.164 165.31 239.106C165.413 239.049 165.464 238.949 165.464 238.806V238.776C165.464 238.406 165.363 238.119 165.16 237.914C164.96 237.709 164.656 237.606 164.249 237.606C163.826 237.606 163.495 237.699 163.255 237.884C163.015 238.069 162.846 238.266 162.749 238.476L161.909 238.176C162.059 237.826 162.259 237.554 162.509 237.359C162.761 237.161 163.036 237.024 163.334 236.946C163.634 236.866 163.929 236.826 164.219 236.826C164.404 236.826 164.616 236.849 164.856 236.894C165.099 236.936 165.333 237.025 165.558 237.16C165.785 237.295 165.974 237.499 166.124 237.771C166.274 238.044 166.349 238.409 166.349 238.866V242.661H165.464V241.881H165.419C165.359 242.006 165.259 242.14 165.119 242.282C164.979 242.425 164.793 242.546 164.56 242.646C164.328 242.746 164.044 242.796 163.709 242.796ZM163.844 242.001C164.194 242.001 164.489 241.932 164.729 241.795C164.971 241.657 165.154 241.48 165.276 241.262C165.401 241.045 165.464 240.816 165.464 240.576V239.766C165.426 239.811 165.344 239.852 165.216 239.89C165.091 239.925 164.946 239.956 164.781 239.984C164.619 240.009 164.46 240.031 164.305 240.051C164.153 240.069 164.029 240.084 163.934 240.096C163.704 240.126 163.489 240.175 163.289 240.242C163.091 240.307 162.931 240.406 162.809 240.539C162.689 240.669 162.629 240.846 162.629 241.071C162.629 241.379 162.743 241.611 162.97 241.769C163.2 241.924 163.491 242.001 163.844 242.001ZM168.849 239.196V242.661H167.964V236.901H168.819V237.801H168.894C169.029 237.509 169.234 237.274 169.509 237.096C169.784 236.916 170.139 236.826 170.574 236.826C170.964 236.826 171.305 236.906 171.598 237.066C171.89 237.224 172.118 237.464 172.28 237.786C172.443 238.106 172.524 238.511 172.524 239.001V242.661H171.639V239.061C171.639 238.609 171.522 238.256 171.287 238.004C171.052 237.749 170.729 237.621 170.319 237.621C170.037 237.621 169.784 237.682 169.562 237.805C169.342 237.927 169.168 238.106 169.04 238.341C168.913 238.576 168.849 238.861 168.849 239.196ZM178.221 238.191L177.426 238.416C177.376 238.284 177.303 238.155 177.205 238.03C177.11 237.902 176.98 237.797 176.815 237.715C176.65 237.632 176.439 237.591 176.181 237.591C175.829 237.591 175.535 237.672 175.3 237.835C175.068 237.995 174.951 238.199 174.951 238.446C174.951 238.666 175.031 238.84 175.191 238.967C175.351 239.095 175.601 239.201 175.941 239.286L176.796 239.496C177.311 239.621 177.695 239.812 177.948 240.07C178.2 240.325 178.326 240.654 178.326 241.056C178.326 241.386 178.231 241.681 178.041 241.941C177.854 242.201 177.591 242.406 177.254 242.556C176.916 242.706 176.524 242.781 176.076 242.781C175.489 242.781 175.003 242.654 174.618 242.399C174.233 242.144 173.989 241.771 173.886 241.281L174.726 241.071C174.806 241.381 174.958 241.614 175.18 241.769C175.405 241.924 175.699 242.001 176.061 242.001C176.474 242.001 176.801 241.914 177.044 241.739C177.289 241.561 177.411 241.349 177.411 241.101C177.411 240.901 177.341 240.734 177.201 240.599C177.061 240.461 176.846 240.359 176.556 240.291L175.596 240.066C175.069 239.941 174.681 239.747 174.434 239.485C174.189 239.22 174.066 238.889 174.066 238.491C174.066 238.166 174.158 237.879 174.34 237.629C174.525 237.379 174.776 237.182 175.094 237.04C175.414 236.897 175.776 236.826 176.181 236.826C176.751 236.826 177.199 236.951 177.524 237.201C177.851 237.451 178.084 237.781 178.221 238.191ZM182.224 236.901V237.651H179.119V236.901H182.224ZM180.049 242.661V236.106C180.049 235.776 180.126 235.501 180.281 235.281C180.436 235.061 180.637 234.896 180.885 234.786C181.132 234.676 181.394 234.621 181.669 234.621C181.886 234.621 182.064 234.639 182.201 234.674C182.339 234.709 182.441 234.741 182.509 234.771L182.254 235.536C182.209 235.521 182.146 235.502 182.066 235.48C181.989 235.457 181.886 235.446 181.759 235.446C181.466 235.446 181.255 235.52 181.125 235.667C180.997 235.815 180.934 236.031 180.934 236.316V242.661H180.049ZM185.642 242.781C185.087 242.781 184.608 242.659 184.205 242.414C183.805 242.166 183.497 241.821 183.279 241.379C183.064 240.934 182.957 240.416 182.957 239.826C182.957 239.236 183.064 238.716 183.279 238.266C183.497 237.814 183.799 237.461 184.187 237.209C184.577 236.954 185.032 236.826 185.552 236.826C185.852 236.826 186.148 236.876 186.44 236.976C186.733 237.076 186.999 237.239 187.239 237.464C187.479 237.686 187.67 237.981 187.813 238.349C187.955 238.716 188.027 239.169 188.027 239.706V240.081H183.587V239.316H187.127C187.127 238.991 187.062 238.701 186.932 238.446C186.804 238.191 186.622 237.99 186.384 237.842C186.149 237.695 185.872 237.621 185.552 237.621C185.199 237.621 184.894 237.709 184.637 237.884C184.382 238.056 184.185 238.281 184.048 238.559C183.91 238.836 183.842 239.134 183.842 239.451V239.961C183.842 240.396 183.917 240.765 184.067 241.067C184.219 241.367 184.43 241.596 184.7 241.754C184.97 241.909 185.284 241.986 185.642 241.986C185.874 241.986 186.084 241.954 186.272 241.889C186.462 241.821 186.625 241.721 186.763 241.589C186.9 241.454 187.007 241.286 187.082 241.086L187.937 241.326C187.847 241.616 187.695 241.871 187.483 242.091C187.27 242.309 187.008 242.479 186.695 242.601C186.383 242.721 186.032 242.781 185.642 242.781ZM189.373 242.661V236.901H190.228V237.771H190.288C190.393 237.486 190.583 237.255 190.858 237.077C191.133 236.9 191.443 236.811 191.788 236.811C191.853 236.811 191.934 236.812 192.032 236.815C192.129 236.817 192.203 236.821 192.253 236.826V237.726C192.223 237.719 192.154 237.707 192.047 237.692C191.942 237.675 191.83 237.666 191.713 237.666C191.433 237.666 191.183 237.725 190.963 237.842C190.745 237.957 190.573 238.117 190.445 238.322C190.32 238.525 190.258 238.756 190.258 239.016V242.661H189.373ZM198.777 236.901V237.651H195.792V236.901H198.777ZM196.662 235.521H197.547V241.011C197.547 241.261 197.583 241.449 197.656 241.574C197.731 241.696 197.826 241.779 197.941 241.821C198.058 241.861 198.182 241.881 198.312 241.881C198.41 241.881 198.49 241.876 198.552 241.866C198.615 241.854 198.665 241.844 198.702 241.836L198.882 242.631C198.822 242.654 198.738 242.676 198.631 242.699C198.523 242.724 198.387 242.736 198.222 242.736C197.972 242.736 197.727 242.682 197.487 242.575C197.25 242.467 197.052 242.304 196.895 242.084C196.74 241.864 196.662 241.586 196.662 241.251V235.521ZM202.386 242.781C201.866 242.781 201.41 242.657 201.018 242.41C200.628 242.162 200.323 241.816 200.103 241.371C199.885 240.926 199.776 240.406 199.776 239.811C199.776 239.211 199.885 238.687 200.103 238.24C200.323 237.792 200.628 237.445 201.018 237.197C201.41 236.95 201.866 236.826 202.386 236.826C202.906 236.826 203.361 236.95 203.751 237.197C204.144 237.445 204.449 237.792 204.666 238.24C204.886 238.687 204.996 239.211 204.996 239.811C204.996 240.406 204.886 240.926 204.666 241.371C204.449 241.816 204.144 242.162 203.751 242.41C203.361 242.657 202.906 242.781 202.386 242.781ZM202.386 241.986C202.781 241.986 203.106 241.885 203.361 241.682C203.616 241.48 203.805 241.214 203.928 240.884C204.05 240.554 204.111 240.196 204.111 239.811C204.111 239.426 204.05 239.067 203.928 238.735C203.805 238.402 203.616 238.134 203.361 237.929C203.106 237.724 202.781 237.621 202.386 237.621C201.991 237.621 201.666 237.724 201.411 237.929C201.156 238.134 200.968 238.402 200.845 238.735C200.723 239.067 200.661 239.426 200.661 239.811C200.661 240.196 200.723 240.554 200.845 240.884C200.968 241.214 201.156 241.48 201.411 241.682C201.666 241.885 201.991 241.986 202.386 241.986ZM209.437 242.661V234.981H210.367V238.791H210.457L213.907 234.981H215.122L211.897 238.446L215.122 242.661H213.997L211.327 239.091L210.367 240.171V242.661H209.437ZM218.198 242.781C217.643 242.781 217.165 242.659 216.762 242.414C216.362 242.166 216.053 241.821 215.836 241.379C215.621 240.934 215.513 240.416 215.513 239.826C215.513 239.236 215.621 238.716 215.836 238.266C216.053 237.814 216.356 237.461 216.743 237.209C217.133 236.954 217.588 236.826 218.108 236.826C218.408 236.826 218.705 236.876 218.997 236.976C219.29 237.076 219.556 237.239 219.796 237.464C220.036 237.686 220.227 237.981 220.37 238.349C220.512 238.716 220.583 239.169 220.583 239.706V240.081H216.143V239.316H219.683C219.683 238.991 219.618 238.701 219.488 238.446C219.361 238.191 219.178 237.99 218.941 237.842C218.706 237.695 218.428 237.621 218.108 237.621C217.756 237.621 217.451 237.709 217.193 237.884C216.938 238.056 216.742 238.281 216.605 238.559C216.467 238.836 216.398 239.134 216.398 239.451V239.961C216.398 240.396 216.473 240.765 216.623 241.067C216.776 241.367 216.987 241.596 217.257 241.754C217.527 241.909 217.841 241.986 218.198 241.986C218.431 241.986 218.641 241.954 218.828 241.889C219.018 241.821 219.182 241.721 219.32 241.589C219.457 241.454 219.563 241.286 219.638 241.086L220.493 241.326C220.403 241.616 220.252 241.871 220.04 242.091C219.827 242.309 219.565 242.479 219.252 242.601C218.94 242.721 218.588 242.781 218.198 242.781ZM222.815 239.196V242.661H221.93V236.901H222.785V237.801H222.86C222.995 237.509 223.2 237.274 223.475 237.096C223.75 236.916 224.105 236.826 224.54 236.826C224.93 236.826 225.271 236.906 225.563 237.066C225.856 237.224 226.083 237.464 226.246 237.786C226.408 238.106 226.49 238.511 226.49 239.001V242.661H225.605V239.061C225.605 238.609 225.487 238.256 225.252 238.004C225.017 237.749 224.695 237.621 224.285 237.621C224.002 237.621 223.75 237.682 223.527 237.805C223.307 237.927 223.133 238.106 223.006 238.341C222.878 238.576 222.815 238.861 222.815 239.196ZM230.612 236.901V237.651H227.627V236.901H230.612ZM228.497 235.521H229.382V241.011C229.382 241.261 229.418 241.449 229.49 241.574C229.565 241.696 229.66 241.779 229.775 241.821C229.893 241.861 230.017 241.881 230.147 241.881C230.244 241.881 230.324 241.876 230.387 241.866C230.449 241.854 230.499 241.844 230.537 241.836L230.717 242.631C230.657 242.654 230.573 242.676 230.465 242.699C230.358 242.724 230.222 242.736 230.057 242.736C229.807 242.736 229.562 242.682 229.322 242.575C229.084 242.467 228.887 242.304 228.729 242.084C228.574 241.864 228.497 241.586 228.497 241.251V235.521ZM231.943 242.661V236.901H232.828V242.661H231.943ZM232.393 235.941C232.22 235.941 232.072 235.882 231.947 235.765C231.824 235.647 231.763 235.506 231.763 235.341C231.763 235.176 231.824 235.035 231.947 234.917C232.072 234.8 232.22 234.741 232.393 234.741C232.565 234.741 232.713 234.8 232.835 234.917C232.96 235.035 233.023 235.176 233.023 235.341C233.023 235.506 232.96 235.647 232.835 235.765C232.713 235.882 232.565 235.941 232.393 235.941ZM235.274 240.561L235.259 239.466H235.439L237.959 236.901H239.054L236.369 239.616H236.294L235.274 240.561ZM234.449 242.661V234.981H235.334V242.661H234.449ZM238.109 242.661L235.859 239.811L236.489 239.196L239.234 242.661H238.109ZM243.283 242.661V234.981H244.213V241.836H247.783V242.661H243.283ZM247.782 235.806V234.981H253.542V235.806H251.127V242.661H250.197V235.806H247.782ZM257.347 242.661H254.977V234.981H257.452C258.197 234.981 258.835 235.135 259.365 235.442C259.895 235.747 260.301 236.186 260.584 236.759C260.866 237.329 261.007 238.011 261.007 238.806C261.007 239.606 260.865 240.295 260.58 240.872C260.295 241.447 259.88 241.89 259.335 242.2C258.79 242.507 258.127 242.661 257.347 242.661ZM255.907 241.836H257.287C257.922 241.836 258.449 241.714 258.866 241.469C259.284 241.224 259.595 240.875 259.8 240.422C260.005 239.97 260.107 239.431 260.107 238.806C260.107 238.186 260.006 237.652 259.804 237.205C259.601 236.755 259.299 236.41 258.896 236.17C258.494 235.927 257.992 235.806 257.392 235.806H255.907V241.836ZM262.608 242.721C262.423 242.721 262.264 242.655 262.131 242.522C261.999 242.39 261.933 242.231 261.933 242.046C261.933 241.861 261.999 241.702 262.131 241.57C262.264 241.437 262.423 241.371 262.608 241.371C262.793 241.371 262.951 241.437 263.084 241.57C263.216 241.702 263.283 241.861 263.283 242.046C263.283 242.169 263.251 242.281 263.189 242.384C263.129 242.486 263.048 242.569 262.945 242.631C262.845 242.691 262.733 242.721 262.608 242.721ZM267.841 242.661V236.901H268.726V242.661H267.841ZM268.291 235.941C268.118 235.941 267.97 235.882 267.845 235.765C267.722 235.647 267.661 235.506 267.661 235.341C267.661 235.176 267.722 235.035 267.845 234.917C267.97 234.8 268.118 234.741 268.291 234.741C268.463 234.741 268.611 234.8 268.733 234.917C268.858 235.035 268.921 235.176 268.921 235.341C268.921 235.506 268.858 235.647 268.733 235.765C268.611 235.882 268.463 235.941 268.291 235.941ZM274.427 238.191L273.632 238.416C273.582 238.284 273.508 238.155 273.41 238.03C273.315 237.902 273.185 237.797 273.02 237.715C272.855 237.632 272.644 237.591 272.387 237.591C272.034 237.591 271.74 237.672 271.505 237.835C271.273 237.995 271.157 238.199 271.157 238.446C271.157 238.666 271.237 238.84 271.397 238.967C271.557 239.095 271.807 239.201 272.147 239.286L273.002 239.496C273.517 239.621 273.9 239.812 274.153 240.07C274.405 240.325 274.532 240.654 274.532 241.056C274.532 241.386 274.437 241.681 274.247 241.941C274.059 242.201 273.797 242.406 273.459 242.556C273.122 242.706 272.729 242.781 272.282 242.781C271.694 242.781 271.208 242.654 270.823 242.399C270.438 242.144 270.194 241.771 270.092 241.281L270.932 241.071C271.012 241.381 271.163 241.614 271.385 241.769C271.61 241.924 271.904 242.001 272.267 242.001C272.679 242.001 273.007 241.914 273.249 241.739C273.494 241.561 273.617 241.349 273.617 241.101C273.617 240.901 273.547 240.734 273.407 240.599C273.267 240.461 273.052 240.359 272.762 240.291L271.802 240.066C271.274 239.941 270.887 239.747 270.639 239.485C270.394 239.22 270.272 238.889 270.272 238.491C270.272 238.166 270.363 237.879 270.545 237.629C270.73 237.379 270.982 237.182 271.299 237.04C271.619 236.897 271.982 236.826 272.387 236.826C272.957 236.826 273.404 236.951 273.729 237.201C274.057 237.451 274.289 237.781 274.427 238.191ZM282.914 238.191L282.119 238.416C282.069 238.284 281.995 238.155 281.898 238.03C281.803 237.902 281.673 237.797 281.508 237.715C281.343 237.632 281.131 237.591 280.874 237.591C280.521 237.591 280.228 237.672 279.993 237.835C279.76 237.995 279.644 238.199 279.644 238.446C279.644 238.666 279.724 238.84 279.884 238.967C280.044 239.095 280.294 239.201 280.634 239.286L281.489 239.496C282.004 239.621 282.388 239.812 282.64 240.07C282.893 240.325 283.019 240.654 283.019 241.056C283.019 241.386 282.924 241.681 282.734 241.941C282.546 242.201 282.284 242.406 281.946 242.556C281.609 242.706 281.216 242.781 280.769 242.781C280.181 242.781 279.695 242.654 279.31 242.399C278.925 242.144 278.681 241.771 278.579 241.281L279.419 241.071C279.499 241.381 279.65 241.614 279.873 241.769C280.098 241.924 280.391 242.001 280.754 242.001C281.166 242.001 281.494 241.914 281.736 241.739C281.981 241.561 282.104 241.349 282.104 241.101C282.104 240.901 282.034 240.734 281.894 240.599C281.754 240.461 281.539 240.359 281.249 240.291L280.289 240.066C279.761 239.941 279.374 239.747 279.126 239.485C278.881 239.22 278.759 238.889 278.759 238.491C278.759 238.166 278.85 237.879 279.033 237.629C279.218 237.379 279.469 237.182 279.786 237.04C280.106 236.897 280.469 236.826 280.874 236.826C281.444 236.826 281.891 236.951 282.216 237.201C282.544 237.451 282.776 237.781 282.914 238.191ZM287.981 240.306V236.901H288.866V242.661H287.981V241.686H287.921C287.786 241.979 287.576 242.227 287.291 242.432C287.006 242.635 286.646 242.736 286.211 242.736C285.851 242.736 285.531 242.657 285.251 242.5C284.971 242.34 284.751 242.1 284.591 241.78C284.431 241.457 284.351 241.051 284.351 240.561V236.901H285.236V240.501C285.236 240.921 285.354 241.256 285.589 241.506C285.826 241.756 286.129 241.881 286.496 241.881C286.716 241.881 286.94 241.825 287.167 241.712C287.397 241.6 287.59 241.427 287.745 241.195C287.902 240.962 287.981 240.666 287.981 240.306ZM292.827 242.781C292.287 242.781 291.822 242.654 291.432 242.399C291.042 242.144 290.742 241.792 290.532 241.345C290.322 240.897 290.217 240.386 290.217 239.811C290.217 239.226 290.325 238.71 290.54 238.262C290.757 237.812 291.06 237.461 291.447 237.209C291.837 236.954 292.292 236.826 292.812 236.826C293.217 236.826 293.582 236.901 293.907 237.051C294.232 237.201 294.498 237.411 294.706 237.681C294.913 237.951 295.042 238.266 295.092 238.626H294.207C294.14 238.364 293.99 238.131 293.757 237.929C293.527 237.724 293.217 237.621 292.827 237.621C292.482 237.621 292.18 237.711 291.92 237.891C291.662 238.069 291.461 238.32 291.316 238.645C291.173 238.967 291.102 239.346 291.102 239.781C291.102 240.226 291.172 240.614 291.312 240.944C291.455 241.274 291.655 241.53 291.912 241.712C292.172 241.895 292.477 241.986 292.827 241.986C293.057 241.986 293.266 241.946 293.453 241.866C293.641 241.786 293.8 241.671 293.93 241.521C294.06 241.371 294.152 241.191 294.207 240.981H295.092C295.042 241.321 294.918 241.627 294.721 241.9C294.526 242.17 294.267 242.385 293.945 242.545C293.625 242.702 293.252 242.781 292.827 242.781ZM298.726 242.781C298.186 242.781 297.721 242.654 297.331 242.399C296.941 242.144 296.641 241.792 296.431 241.345C296.221 240.897 296.116 240.386 296.116 239.811C296.116 239.226 296.223 238.71 296.438 238.262C296.656 237.812 296.958 237.461 297.346 237.209C297.736 236.954 298.191 236.826 298.711 236.826C299.116 236.826 299.481 236.901 299.806 237.051C300.131 237.201 300.397 237.411 300.605 237.681C300.812 237.951 300.941 238.266 300.991 238.626H300.106C300.038 238.364 299.888 238.131 299.656 237.929C299.426 237.724 299.116 237.621 298.726 237.621C298.381 237.621 298.078 237.711 297.818 237.891C297.561 238.069 297.36 238.32 297.215 238.645C297.072 238.967 297.001 239.346 297.001 239.781C297.001 240.226 297.071 240.614 297.211 240.944C297.353 241.274 297.553 241.53 297.811 241.712C298.071 241.895 298.376 241.986 298.726 241.986C298.956 241.986 299.165 241.946 299.352 241.866C299.54 241.786 299.698 241.671 299.828 241.521C299.958 241.371 300.051 241.191 300.106 240.981H300.991C300.941 241.321 300.817 241.627 300.62 241.9C300.425 242.17 300.166 242.385 299.843 242.545C299.523 242.702 299.151 242.781 298.726 242.781ZM304.7 242.781C304.145 242.781 303.666 242.659 303.263 242.414C302.863 242.166 302.555 241.821 302.337 241.379C302.122 240.934 302.015 240.416 302.015 239.826C302.015 239.236 302.122 238.716 302.337 238.266C302.555 237.814 302.857 237.461 303.245 237.209C303.635 236.954 304.09 236.826 304.61 236.826C304.91 236.826 305.206 236.876 305.498 236.976C305.791 237.076 306.057 237.239 306.297 237.464C306.537 237.686 306.728 237.981 306.871 238.349C307.013 238.716 307.085 239.169 307.085 239.706V240.081H302.645V239.316H306.185C306.185 238.991 306.12 238.701 305.99 238.446C305.862 238.191 305.68 237.99 305.442 237.842C305.207 237.695 304.93 237.621 304.61 237.621C304.257 237.621 303.952 237.709 303.695 237.884C303.44 238.056 303.243 238.281 303.106 238.559C302.968 238.836 302.9 239.134 302.9 239.451V239.961C302.9 240.396 302.975 240.765 303.125 241.067C303.277 241.367 303.488 241.596 303.758 241.754C304.028 241.909 304.342 241.986 304.7 241.986C304.932 241.986 305.142 241.954 305.33 241.889C305.52 241.821 305.683 241.721 305.821 241.589C305.958 241.454 306.065 241.286 306.14 241.086L306.995 241.326C306.905 241.616 306.753 241.871 306.541 242.091C306.328 242.309 306.066 242.479 305.753 242.601C305.441 242.721 305.09 242.781 304.7 242.781ZM312.511 238.191L311.716 238.416C311.666 238.284 311.592 238.155 311.495 238.03C311.4 237.902 311.27 237.797 311.105 237.715C310.94 237.632 310.728 237.591 310.471 237.591C310.118 237.591 309.825 237.672 309.59 237.835C309.357 237.995 309.241 238.199 309.241 238.446C309.241 238.666 309.321 238.84 309.481 238.967C309.641 239.095 309.891 239.201 310.231 239.286L311.086 239.496C311.601 239.621 311.985 239.812 312.237 240.07C312.49 240.325 312.616 240.654 312.616 241.056C312.616 241.386 312.521 241.681 312.331 241.941C312.143 242.201 311.881 242.406 311.543 242.556C311.206 242.706 310.813 242.781 310.366 242.781C309.778 242.781 309.292 242.654 308.907 242.399C308.522 242.144 308.278 241.771 308.176 241.281L309.016 241.071C309.096 241.381 309.247 241.614 309.47 241.769C309.695 241.924 309.988 242.001 310.351 242.001C310.763 242.001 311.091 241.914 311.333 241.739C311.578 241.561 311.701 241.349 311.701 241.101C311.701 240.901 311.631 240.734 311.491 240.599C311.351 240.461 311.136 240.359 310.846 240.291L309.886 240.066C309.358 239.941 308.971 239.747 308.723 239.485C308.478 239.22 308.356 238.889 308.356 238.491C308.356 238.166 308.447 237.879 308.63 237.629C308.815 237.379 309.066 237.182 309.383 237.04C309.703 236.897 310.066 236.826 310.471 236.826C311.041 236.826 311.488 236.951 311.813 237.201C312.141 237.451 312.373 237.781 312.511 238.191ZM318.028 238.191L317.233 238.416C317.183 238.284 317.109 238.155 317.012 238.03C316.917 237.902 316.787 237.797 316.622 237.715C316.457 237.632 316.245 237.591 315.988 237.591C315.635 237.591 315.342 237.672 315.107 237.835C314.874 237.995 314.758 238.199 314.758 238.446C314.758 238.666 314.838 238.84 314.998 238.967C315.158 239.095 315.408 239.201 315.748 239.286L316.603 239.496C317.118 239.621 317.502 239.812 317.754 240.07C318.007 240.325 318.133 240.654 318.133 241.056C318.133 241.386 318.038 241.681 317.848 241.941C317.66 242.201 317.398 242.406 317.06 242.556C316.723 242.706 316.33 242.781 315.883 242.781C315.295 242.781 314.809 242.654 314.424 242.399C314.039 242.144 313.795 241.771 313.693 241.281L314.533 241.071C314.613 241.381 314.764 241.614 314.987 241.769C315.212 241.924 315.505 242.001 315.868 242.001C316.28 242.001 316.608 241.914 316.85 241.739C317.095 241.561 317.218 241.349 317.218 241.101C317.218 240.901 317.148 240.734 317.008 240.599C316.868 240.461 316.653 240.359 316.363 240.291L315.403 240.066C314.875 239.941 314.488 239.747 314.24 239.485C313.995 239.22 313.873 238.889 313.873 238.491C313.873 238.166 313.964 237.879 314.147 237.629C314.332 237.379 314.583 237.182 314.9 237.04C315.22 236.897 315.583 236.826 315.988 236.826C316.558 236.826 317.005 236.951 317.33 237.201C317.658 237.451 317.89 237.781 318.028 238.191ZM322.03 236.901V237.651H318.925V236.901H322.03ZM319.855 242.661V236.106C319.855 235.776 319.933 235.501 320.088 235.281C320.243 235.061 320.444 234.896 320.691 234.786C320.939 234.676 321.2 234.621 321.475 234.621C321.693 234.621 321.87 234.639 322.008 234.674C322.145 234.709 322.248 234.741 322.315 234.771L322.06 235.536C322.015 235.521 321.953 235.502 321.873 235.48C321.795 235.457 321.693 235.446 321.565 235.446C321.273 235.446 321.061 235.52 320.931 235.667C320.804 235.815 320.74 236.031 320.74 236.316V242.661H319.855ZM326.9 240.306V236.901H327.785V242.661H326.9V241.686H326.84C326.705 241.979 326.495 242.227 326.21 242.432C325.925 242.635 325.565 242.736 325.13 242.736C324.77 242.736 324.45 242.657 324.17 242.5C323.89 242.34 323.67 242.1 323.51 241.78C323.35 241.457 323.27 241.051 323.27 240.561V236.901H324.155V240.501C324.155 240.921 324.273 241.256 324.508 241.506C324.745 241.756 325.048 241.881 325.415 241.881C325.635 241.881 325.859 241.825 326.087 241.712C326.317 241.6 326.509 241.427 326.664 241.195C326.822 240.962 326.9 240.666 326.9 240.306ZM330.291 234.981V242.661H329.406V234.981H330.291ZM332.797 234.981V242.661H331.912V234.981H332.797ZM334.988 244.821C334.838 244.821 334.705 244.809 334.587 244.784C334.47 244.761 334.388 244.739 334.343 244.716L334.568 243.936C334.783 243.991 334.973 244.011 335.138 243.996C335.303 243.981 335.45 243.907 335.577 243.775C335.707 243.645 335.826 243.434 335.933 243.141L336.098 242.691L333.968 236.901H334.928L336.518 241.491H336.578L338.168 236.901H339.128L336.683 243.501C336.573 243.799 336.437 244.045 336.275 244.24C336.112 244.437 335.923 244.584 335.708 244.679C335.496 244.774 335.256 244.821 334.988 244.821ZM154.248 257.781C153.708 257.781 153.243 257.654 152.853 257.399C152.463 257.144 152.163 256.792 151.953 256.345C151.743 255.897 151.638 255.386 151.638 254.811C151.638 254.226 151.745 253.71 151.96 253.262C152.178 252.812 152.48 252.461 152.868 252.209C153.258 251.954 153.713 251.826 154.233 251.826C154.638 251.826 155.003 251.901 155.328 252.051C155.653 252.201 155.919 252.411 156.126 252.681C156.334 252.951 156.463 253.266 156.513 253.626H155.628C155.56 253.364 155.41 253.131 155.178 252.929C154.948 252.724 154.638 252.621 154.248 252.621C153.903 252.621 153.6 252.711 153.34 252.891C153.083 253.069 152.881 253.32 152.736 253.645C152.594 253.967 152.523 254.346 152.523 254.781C152.523 255.226 152.593 255.614 152.733 255.944C152.875 256.274 153.075 256.53 153.333 256.712C153.593 256.895 153.898 256.986 154.248 256.986C154.478 256.986 154.686 256.946 154.874 256.866C155.061 256.786 155.22 256.671 155.35 256.521C155.48 256.371 155.573 256.191 155.628 255.981H156.513C156.463 256.321 156.339 256.627 156.141 256.9C155.946 257.17 155.688 257.385 155.365 257.545C155.045 257.702 154.673 257.781 154.248 257.781ZM160.146 257.781C159.626 257.781 159.17 257.657 158.778 257.41C158.388 257.162 158.083 256.816 157.863 256.371C157.645 255.926 157.536 255.406 157.536 254.811C157.536 254.211 157.645 253.687 157.863 253.24C158.083 252.792 158.388 252.445 158.778 252.197C159.17 251.95 159.626 251.826 160.146 251.826C160.666 251.826 161.121 251.95 161.511 252.197C161.904 252.445 162.209 252.792 162.426 253.24C162.646 253.687 162.756 254.211 162.756 254.811C162.756 255.406 162.646 255.926 162.426 256.371C162.209 256.816 161.904 257.162 161.511 257.41C161.121 257.657 160.666 257.781 160.146 257.781ZM160.146 256.986C160.541 256.986 160.866 256.885 161.121 256.682C161.376 256.48 161.565 256.214 161.688 255.884C161.81 255.554 161.871 255.196 161.871 254.811C161.871 254.426 161.81 254.067 161.688 253.735C161.565 253.402 161.376 253.134 161.121 252.929C160.866 252.724 160.541 252.621 160.146 252.621C159.751 252.621 159.426 252.724 159.171 252.929C158.916 253.134 158.728 253.402 158.605 253.735C158.483 254.067 158.421 254.426 158.421 254.811C158.421 255.196 158.483 255.554 158.605 255.884C158.728 256.214 158.916 256.48 159.171 256.682C159.426 256.885 159.751 256.986 160.146 256.986ZM164.992 254.196V257.661H164.107V251.901H164.962V252.801H165.037C165.172 252.509 165.377 252.274 165.652 252.096C165.927 251.916 166.282 251.826 166.717 251.826C167.107 251.826 167.449 251.906 167.741 252.066C168.034 252.224 168.261 252.464 168.424 252.786C168.586 253.106 168.667 253.511 168.667 254.001V257.661H167.782V254.061C167.782 253.609 167.665 253.256 167.43 253.004C167.195 252.749 166.872 252.621 166.462 252.621C166.18 252.621 165.927 252.682 165.705 252.805C165.485 252.927 165.311 253.106 165.184 253.341C165.056 253.576 164.992 253.861 164.992 254.196ZM172.85 251.901V252.651H169.745V251.901H172.85ZM170.675 257.661V251.106C170.675 250.776 170.752 250.501 170.907 250.281C171.062 250.061 171.263 249.896 171.511 249.786C171.758 249.676 172.02 249.621 172.295 249.621C172.512 249.621 172.69 249.639 172.827 249.674C172.965 249.709 173.067 249.741 173.135 249.771L172.88 250.536C172.835 250.521 172.772 250.502 172.692 250.48C172.615 250.457 172.512 250.446 172.385 250.446C172.092 250.446 171.881 250.52 171.751 250.667C171.623 250.815 171.56 251.031 171.56 251.316V257.661H170.675ZM174.09 257.661V251.901H174.975V257.661H174.09ZM174.54 250.941C174.367 250.941 174.219 250.882 174.094 250.765C173.971 250.647 173.91 250.506 173.91 250.341C173.91 250.176 173.971 250.035 174.094 249.917C174.219 249.8 174.367 249.741 174.54 249.741C174.712 249.741 174.86 249.8 174.982 249.917C175.107 250.035 175.17 250.176 175.17 250.341C175.17 250.506 175.107 250.647 174.982 250.765C174.86 250.882 174.712 250.941 174.54 250.941ZM176.596 257.661V251.901H177.451V252.771H177.511C177.616 252.486 177.806 252.255 178.081 252.077C178.356 251.9 178.666 251.811 179.011 251.811C179.076 251.811 179.157 251.812 179.255 251.815C179.352 251.817 179.426 251.821 179.476 251.826V252.726C179.446 252.719 179.377 252.707 179.27 252.692C179.165 252.675 179.053 252.666 178.936 252.666C178.656 252.666 178.406 252.725 178.186 252.842C177.968 252.957 177.796 253.117 177.668 253.322C177.543 253.525 177.481 253.756 177.481 254.016V257.661H176.596ZM180.525 257.661V251.901H181.38V252.801H181.455C181.575 252.494 181.769 252.255 182.036 252.085C182.304 251.912 182.625 251.826 183 251.826C183.38 251.826 183.696 251.912 183.949 252.085C184.204 252.255 184.402 252.494 184.545 252.801H184.605C184.752 252.504 184.974 252.267 185.269 252.092C185.564 251.915 185.917 251.826 186.33 251.826C186.845 251.826 187.266 251.987 187.594 252.31C187.921 252.63 188.085 253.129 188.085 253.806V257.661H187.2V253.806C187.2 253.381 187.084 253.077 186.851 252.895C186.619 252.712 186.345 252.621 186.03 252.621C185.625 252.621 185.311 252.744 185.089 252.989C184.866 253.231 184.755 253.539 184.755 253.911V257.661H183.855V253.716C183.855 253.389 183.749 253.125 183.536 252.925C183.324 252.722 183.05 252.621 182.715 252.621C182.485 252.621 182.27 252.682 182.07 252.805C181.872 252.927 181.712 253.097 181.59 253.315C181.47 253.53 181.41 253.779 181.41 254.061V257.661H180.525ZM192.118 257.781C191.563 257.781 191.084 257.659 190.682 257.414C190.282 257.166 189.973 256.821 189.755 256.379C189.54 255.934 189.433 255.416 189.433 254.826C189.433 254.236 189.54 253.716 189.755 253.266C189.973 252.814 190.275 252.461 190.663 252.209C191.053 251.954 191.508 251.826 192.028 251.826C192.328 251.826 192.624 251.876 192.917 251.976C193.209 252.076 193.475 252.239 193.715 252.464C193.955 252.686 194.147 252.981 194.289 253.349C194.432 253.716 194.503 254.169 194.503 254.706V255.081H190.063V254.316H193.603C193.603 253.991 193.538 253.701 193.408 253.446C193.28 253.191 193.098 252.99 192.86 252.842C192.625 252.695 192.348 252.621 192.028 252.621C191.675 252.621 191.37 252.709 191.113 252.884C190.858 253.056 190.662 253.281 190.524 253.559C190.387 253.836 190.318 254.134 190.318 254.451V254.961C190.318 255.396 190.393 255.765 190.543 256.067C190.695 256.367 190.907 256.596 191.177 256.754C191.447 256.909 191.76 256.986 192.118 256.986C192.35 256.986 192.56 256.954 192.748 256.889C192.938 256.821 193.102 256.721 193.239 256.589C193.377 256.454 193.483 256.286 193.558 256.086L194.413 256.326C194.323 256.616 194.172 256.871 193.959 257.091C193.747 257.309 193.484 257.479 193.172 257.601C192.859 257.721 192.508 257.781 192.118 257.781ZM198.024 257.781C197.544 257.781 197.12 257.66 196.753 257.417C196.385 257.172 196.098 256.827 195.89 256.382C195.683 255.935 195.579 255.406 195.579 254.796C195.579 254.191 195.683 253.666 195.89 253.221C196.098 252.776 196.387 252.432 196.757 252.19C197.127 251.947 197.554 251.826 198.039 251.826C198.414 251.826 198.71 251.889 198.928 252.014C199.148 252.136 199.315 252.276 199.43 252.434C199.548 252.589 199.639 252.716 199.704 252.816H199.779V249.981H200.664V257.661H199.809V256.776H199.704C199.639 256.881 199.547 257.014 199.427 257.174C199.307 257.331 199.135 257.472 198.913 257.597C198.69 257.72 198.394 257.781 198.024 257.781ZM198.144 256.986C198.499 256.986 198.799 256.894 199.044 256.709C199.289 256.521 199.475 256.262 199.603 255.932C199.73 255.6 199.794 255.216 199.794 254.781C199.794 254.351 199.732 253.975 199.607 253.652C199.482 253.327 199.297 253.075 199.052 252.895C198.807 252.712 198.504 252.621 198.144 252.621C197.769 252.621 197.457 252.717 197.207 252.91C196.959 253.1 196.773 253.359 196.648 253.686C196.525 254.011 196.464 254.376 196.464 254.781C196.464 255.191 196.527 255.564 196.652 255.899C196.779 256.231 196.967 256.496 197.214 256.694C197.464 256.889 197.774 256.986 198.144 256.986ZM203.053 257.721C202.868 257.721 202.709 257.655 202.577 257.522C202.444 257.39 202.378 257.231 202.378 257.046C202.378 256.861 202.444 256.702 202.577 256.57C202.709 256.437 202.868 256.371 203.053 256.371C203.238 256.371 203.397 256.437 203.529 256.57C203.662 256.702 203.728 256.861 203.728 257.046C203.728 257.169 203.697 257.281 203.634 257.384C203.574 257.486 203.493 257.569 203.39 257.631C203.29 257.691 203.178 257.721 203.053 257.721Z" fill="#344054"/>
</g>
<rect x="143.51" y="297.001" width="99" height="36.96" rx="13.2" fill="#E6EDFD"/>
<path d="M174.551 319.146V311.466H177.431C178.021 311.466 178.516 311.568 178.916 311.773C179.318 311.978 179.622 312.266 179.827 312.636C180.035 313.003 180.138 313.432 180.138 313.922C180.138 314.414 180.033 314.842 179.823 315.204C179.616 315.564 179.31 315.843 178.905 316.041C178.5 316.236 178.002 316.333 177.412 316.333H175.361V315.178H177.225C177.57 315.178 177.852 315.131 178.072 315.036C178.292 314.938 178.455 314.797 178.56 314.612C178.667 314.424 178.721 314.194 178.721 313.922C178.721 313.649 178.667 313.417 178.56 313.224C178.452 313.029 178.288 312.882 178.068 312.782C177.848 312.679 177.565 312.628 177.217 312.628H175.942V319.146H174.551ZM178.518 315.666L180.42 319.146H178.867L177 315.666H178.518ZM183.827 319.258C183.249 319.258 182.75 319.138 182.33 318.898C181.913 318.656 181.592 318.313 181.367 317.871C181.142 317.426 181.029 316.902 181.029 316.299C181.029 315.707 181.142 315.187 181.367 314.739C181.594 314.289 181.912 313.939 182.319 313.689C182.727 313.437 183.205 313.311 183.755 313.311C184.11 313.311 184.445 313.368 184.76 313.483C185.078 313.596 185.358 313.771 185.6 314.008C185.845 314.246 186.038 314.548 186.178 314.916C186.318 315.281 186.388 315.716 186.388 316.221V316.637H181.667V315.722H185.087C185.084 315.462 185.028 315.231 184.918 315.028C184.808 314.823 184.654 314.662 184.457 314.544C184.262 314.427 184.034 314.368 183.774 314.368C183.497 314.368 183.253 314.436 183.043 314.571C182.833 314.703 182.669 314.878 182.552 315.096C182.437 315.311 182.378 315.547 182.375 315.804V316.603C182.375 316.938 182.437 317.226 182.559 317.466C182.682 317.703 182.853 317.886 183.073 318.013C183.293 318.138 183.55 318.201 183.845 318.201C184.043 318.201 184.222 318.173 184.382 318.118C184.542 318.061 184.68 317.977 184.798 317.867C184.915 317.757 185.004 317.621 185.064 317.458L186.332 317.601C186.252 317.936 186.099 318.228 185.874 318.478C185.652 318.726 185.367 318.918 185.019 319.056C184.672 319.191 184.274 319.258 183.827 319.258ZM190.049 319.258C189.474 319.258 188.98 319.132 188.567 318.879C188.157 318.627 187.841 318.278 187.619 317.833C187.399 317.386 187.289 316.871 187.289 316.288C187.289 315.703 187.401 315.187 187.626 314.739C187.851 314.289 188.169 313.939 188.579 313.689C188.991 313.437 189.479 313.311 190.041 313.311C190.509 313.311 190.922 313.397 191.282 313.569C191.645 313.739 191.934 313.981 192.149 314.293C192.364 314.603 192.486 314.966 192.516 315.381H191.219C191.166 315.103 191.041 314.872 190.844 314.687C190.649 314.499 190.387 314.406 190.06 314.406C189.782 314.406 189.539 314.481 189.329 314.631C189.119 314.778 188.955 314.991 188.837 315.268C188.722 315.546 188.665 315.878 188.665 316.266C188.665 316.658 188.722 316.996 188.837 317.278C188.952 317.558 189.114 317.774 189.321 317.927C189.531 318.077 189.777 318.152 190.06 318.152C190.26 318.152 190.439 318.114 190.596 318.039C190.756 317.962 190.89 317.851 190.997 317.706C191.105 317.561 191.179 317.384 191.219 317.177H192.516C192.484 317.584 192.364 317.946 192.156 318.261C191.949 318.573 191.666 318.818 191.309 318.996C190.951 319.171 190.531 319.258 190.049 319.258ZM196.181 319.258C195.603 319.258 195.105 319.138 194.685 318.898C194.267 318.656 193.946 318.313 193.721 317.871C193.496 317.426 193.383 316.902 193.383 316.299C193.383 315.707 193.496 315.187 193.721 314.739C193.948 314.289 194.266 313.939 194.673 313.689C195.081 313.437 195.56 313.311 196.11 313.311C196.465 313.311 196.8 313.368 197.115 313.483C197.432 313.596 197.712 313.771 197.955 314.008C198.2 314.246 198.392 314.548 198.532 314.916C198.672 315.281 198.742 315.716 198.742 316.221V316.637H194.021V315.722H197.441C197.438 315.462 197.382 315.231 197.272 315.028C197.162 314.823 197.008 314.662 196.811 314.544C196.616 314.427 196.388 314.368 196.128 314.368C195.851 314.368 195.607 314.436 195.397 314.571C195.187 314.703 195.023 314.878 194.906 315.096C194.791 315.311 194.732 315.547 194.73 315.804V316.603C194.73 316.938 194.791 317.226 194.913 317.466C195.036 317.703 195.207 317.886 195.427 318.013C195.647 318.138 195.905 318.201 196.2 318.201C196.397 318.201 196.576 318.173 196.736 318.118C196.896 318.061 197.035 317.977 197.152 317.867C197.27 317.757 197.358 317.621 197.418 317.458L198.686 317.601C198.606 317.936 198.453 318.228 198.228 318.478C198.006 318.726 197.721 318.918 197.373 319.056C197.026 319.191 196.628 319.258 196.181 319.258ZM199.891 319.146V313.386H201.248V319.146H199.891ZM200.573 312.568C200.358 312.568 200.173 312.497 200.018 312.354C199.863 312.209 199.786 312.036 199.786 311.833C199.786 311.628 199.863 311.454 200.018 311.312C200.173 311.167 200.358 311.094 200.573 311.094C200.791 311.094 200.976 311.167 201.128 311.312C201.283 311.454 201.361 311.628 201.361 311.833C201.361 312.036 201.283 312.209 201.128 312.354C200.976 312.497 200.791 312.568 200.573 312.568ZM202.644 321.306V313.386H203.979V314.338H204.058C204.128 314.198 204.227 314.049 204.354 313.892C204.482 313.732 204.654 313.596 204.872 313.483C205.089 313.368 205.367 313.311 205.704 313.311C206.149 313.311 206.55 313.424 206.908 313.652C207.268 313.877 207.553 314.211 207.763 314.653C207.975 315.093 208.082 315.633 208.082 316.273C208.082 316.906 207.978 317.443 207.77 317.886C207.563 318.328 207.28 318.666 206.923 318.898C206.565 319.131 206.16 319.247 205.708 319.247C205.378 319.247 205.104 319.192 204.887 319.082C204.669 318.972 204.494 318.839 204.362 318.684C204.232 318.527 204.13 318.378 204.058 318.238H204.002V321.306H202.644ZM203.975 316.266C203.975 316.638 204.028 316.964 204.133 317.244C204.24 317.524 204.394 317.743 204.594 317.901C204.797 318.056 205.042 318.133 205.329 318.133C205.629 318.133 205.88 318.053 206.083 317.893C206.285 317.731 206.438 317.509 206.54 317.229C206.645 316.947 206.698 316.626 206.698 316.266C206.698 315.908 206.647 315.591 206.544 315.313C206.442 315.036 206.289 314.818 206.087 314.661C205.884 314.503 205.632 314.424 205.329 314.424C205.039 314.424 204.793 314.501 204.59 314.653C204.388 314.806 204.234 315.019 204.129 315.294C204.027 315.569 203.975 315.893 203.975 316.266ZM212.12 313.386V314.436H208.809V313.386H212.12ZM209.627 312.006H210.984V317.413C210.984 317.596 211.012 317.736 211.067 317.833C211.124 317.928 211.199 317.993 211.292 318.028C211.384 318.063 211.487 318.081 211.599 318.081C211.684 318.081 211.762 318.074 211.832 318.062C211.904 318.049 211.959 318.038 211.997 318.028L212.225 319.089C212.153 319.114 212.049 319.142 211.914 319.172C211.782 319.202 211.619 319.219 211.427 319.224C211.087 319.234 210.78 319.183 210.508 319.071C210.235 318.956 210.019 318.778 209.859 318.538C209.702 318.298 209.624 317.998 209.627 317.638V312.006Z" fill="#344054"/>
<rect x="249.77" y="297.001" width="125.4" height="36.96" rx="13.2" fill="#101828"/>
<path d="M301.853 319.146H299.251V311.466H301.906C302.668 311.466 303.323 311.619 303.871 311.927C304.421 312.232 304.843 312.671 305.138 313.243C305.433 313.816 305.581 314.501 305.581 315.298C305.581 316.098 305.432 316.786 305.135 317.361C304.84 317.936 304.413 318.377 303.856 318.684C303.301 318.992 302.633 319.146 301.853 319.146ZM300.642 317.942H301.786C302.321 317.942 302.767 317.844 303.125 317.649C303.482 317.452 303.751 317.158 303.931 316.768C304.111 316.376 304.201 315.886 304.201 315.298C304.201 314.711 304.111 314.223 303.931 313.836C303.751 313.446 303.485 313.154 303.132 312.962C302.782 312.767 302.347 312.669 301.827 312.669H300.642V317.942ZM309.355 319.258C308.793 319.258 308.305 319.134 307.893 318.887C307.48 318.639 307.16 318.293 306.933 317.848C306.708 317.403 306.595 316.883 306.595 316.288C306.595 315.693 306.708 315.172 306.933 314.724C307.16 314.277 307.48 313.929 307.893 313.682C308.305 313.434 308.793 313.311 309.355 313.311C309.918 313.311 310.405 313.434 310.818 313.682C311.23 313.929 311.549 314.277 311.774 314.724C312.001 315.172 312.115 315.693 312.115 316.288C312.115 316.883 312.001 317.403 311.774 317.848C311.549 318.293 311.23 318.639 310.818 318.887C310.405 319.134 309.918 319.258 309.355 319.258ZM309.363 318.171C309.668 318.171 309.923 318.087 310.128 317.919C310.333 317.749 310.485 317.522 310.585 317.237C310.688 316.952 310.739 316.634 310.739 316.284C310.739 315.932 310.688 315.613 310.585 315.328C310.485 315.041 310.333 314.812 310.128 314.642C309.923 314.472 309.668 314.387 309.363 314.387C309.05 314.387 308.79 314.472 308.583 314.642C308.378 314.812 308.224 315.041 308.121 315.328C308.021 315.613 307.971 315.932 307.971 316.284C307.971 316.634 308.021 316.952 308.121 317.237C308.224 317.522 308.378 317.749 308.583 317.919C308.79 318.087 309.05 318.171 309.363 318.171ZM314.625 315.771V319.146H313.267V313.386H314.565V314.364H314.632C314.765 314.042 314.976 313.786 315.266 313.596C315.559 313.406 315.92 313.311 316.35 313.311C316.747 313.311 317.094 313.396 317.389 313.566C317.686 313.736 317.916 313.982 318.079 314.304C318.244 314.627 318.325 315.018 318.322 315.478V319.146H316.965V315.688C316.965 315.303 316.865 315.002 316.665 314.784C316.467 314.567 316.194 314.458 315.844 314.458C315.606 314.458 315.395 314.511 315.21 314.616C315.027 314.718 314.884 314.867 314.779 315.062C314.676 315.257 314.625 315.493 314.625 315.771ZM322.252 319.258C321.675 319.258 321.176 319.138 320.756 318.898C320.339 318.656 320.017 318.313 319.792 317.871C319.567 317.426 319.455 316.902 319.455 316.299C319.455 315.707 319.567 315.187 319.792 314.739C320.02 314.289 320.337 313.939 320.745 313.689C321.152 313.437 321.631 313.311 322.181 313.311C322.536 313.311 322.871 313.368 323.186 313.483C323.504 313.596 323.784 313.771 324.026 314.008C324.271 314.246 324.464 314.548 324.604 314.916C324.744 315.281 324.814 315.716 324.814 316.221V316.637H320.092V315.722H323.512C323.51 315.462 323.454 315.231 323.344 315.028C323.234 314.823 323.08 314.662 322.882 314.544C322.687 314.427 322.46 314.368 322.2 314.368C321.922 314.368 321.679 314.436 321.469 314.571C321.259 314.703 321.095 314.878 320.977 315.096C320.862 315.311 320.804 315.547 320.801 315.804V316.603C320.801 316.938 320.862 317.226 320.985 317.466C321.107 317.703 321.279 317.886 321.499 318.013C321.719 318.138 321.976 318.201 322.271 318.201C322.469 318.201 322.647 318.173 322.807 318.118C322.967 318.061 323.106 317.977 323.224 317.867C323.341 317.757 323.43 317.621 323.49 317.458L324.757 317.601C324.677 317.936 324.525 318.228 324.3 318.478C324.077 318.726 323.792 318.918 323.445 319.056C323.097 319.191 322.7 319.258 322.252 319.258Z" fill="white"/>
</g>
<rect width="52.14" height="1.75733" rx="0.878663" transform="matrix(1 0 0 -1 234 156.174)" fill="#667085"/>
<defs>
<filter id="filter0_d_4108_8885" x="0" y="0" width="520" height="480" filterUnits="userSpaceOnUse" color-interpolation-filters="sRGB">
<feFlood flood-opacity="0" result="BackgroundImageFix"/>
<feColorMatrix in="SourceAlpha" type="matrix" values="0 0 0 0 0 0 0 0 0 0 0 0 0 0 0 0 0 0 127 0" result="hardAlpha"/>
<feOffset dy="4"/>
<feGaussianBlur stdDeviation="40"/>
<feComposite in2="hardAlpha" operator="out"/>
<feColorMatrix type="matrix" values="0 0 0 0 0 0 0 0 0 0 0 0 0 0 0 0 0 0 0.04 0"/>
<feBlend mode="normal" in2="BackgroundImageFix" result="effect1_dropShadow_4108_8885"/>
<feBlend mode="normal" in="SourceGraphic" in2="effect1_dropShadow_4108_8885" result="shape"/>
</filter>
<filter id="filter1_dd_4108_8885" x="114.8" y="145.2" width="290.4" height="231" filterUnits="userSpaceOnUse" color-interpolation-filters="sRGB">
<feFlood flood-opacity="0" result="BackgroundImageFix"/>
<feColorMatrix in="SourceAlpha" type="matrix" values="0 0 0 0 0 0 0 0 0 0 0 0 0 0 0 0 0 0 127 0" result="hardAlpha"/>
<feMorphology radius="2.64" operator="erode" in="SourceAlpha" result="effect1_dropShadow_4108_8885"/>
<feOffset dy="5.28"/>
<feGaussianBlur stdDeviation="2.64"/>
<feColorMatrix type="matrix" values="0 0 0 0 0.0627451 0 0 0 0 0.0941176 0 0 0 0 0.156863 0 0 0 0.03 0"/>
<feBlend mode="normal" in2="BackgroundImageFix" result="effect1_dropShadow_4108_8885"/>
<feColorMatrix in="SourceAlpha" type="matrix" values="0 0 0 0 0 0 0 0 0 0 0 0 0 0 0 0 0 0 127 0" result="hardAlpha"/>
<feMorphology radius="2.64" operator="erode" in="SourceAlpha" result="effect2_dropShadow_4108_8885"/>
<feOffset dy="13.2"/>
<feGaussianBlur stdDeviation="7.92"/>
<feColorMatrix type="matrix" values="0 0 0 0 0.0627451 0 0 0 0 0.0941176 0 0 0 0 0.156863 0 0 0 0.08 0"/>
<feBlend mode="normal" in2="effect1_dropShadow_4108_8885" result="effect2_dropShadow_4108_8885"/>
<feBlend mode="normal" in="SourceGraphic" in2="effect2_dropShadow_4108_8885" result="shape"/>
</filter>
<clipPath id="clip0_4108_8885">
<rect width="39.6" height="39.6" fill="white" transform="translate(146.48 178.2)"/>
</clipPath>
<clipPath id="clip1_4108_8885">
<rect x="140.209" y="224.4" width="239.58" height="38.28" rx="5.28" fill="white"/>
</clipPath>
</defs>
</svg>
