<svg width="24" height="24" viewBox="0 0 24 24" fill="none" xmlns="http://www.w3.org/2000/svg">
<rect width="24" height="24" rx="12" fill="#EEFFDE"/>
<path d="M17 15.5V17H7V15.5C7 15.225 7.225 15 7.5 15H16.5C16.775 15 17 15.225 17 15.5Z" fill="#292D32" stroke="#292D32" stroke-width="1.5" stroke-miterlimit="10" stroke-linecap="round" stroke-linejoin="round"/>
<path d="M9.5 11.5H8.5V15H9.5V11.5Z" fill="#292D32"/>
<path d="M11.5 11.5H10.5V15H11.5V11.5Z" fill="#292D32"/>
<path d="M13.5 11.5H12.5V15H13.5V11.5Z" fill="#292D32"/>
<path d="M15.5 11.5H14.5V15H15.5V11.5Z" fill="#292D32"/>
<path d="M17.5 17.375H6.5C6.295 17.375 6.125 17.205 6.125 17C6.125 16.795 6.295 16.625 6.5 16.625H17.5C17.705 16.625 17.875 16.795 17.875 17C17.875 17.205 17.705 17.375 17.5 17.375Z" fill="#292D32"/>
<path d="M16.685 8.87492L12.185 7.07492C12.085 7.03492 11.915 7.03492 11.815 7.07492L7.315 8.87492C7.14 8.94492 7 9.14992 7 9.33992V10.9999C7 11.2749 7.225 11.4999 7.5 11.4999H16.5C16.775 11.4999 17 11.2749 17 10.9999V9.33992C17 9.14992 16.86 8.94492 16.685 8.87492ZM12 10.2499C11.585 10.2499 11.25 9.91492 11.25 9.49992C11.25 9.08492 11.585 8.74992 12 8.74992C12.415 8.74992 12.75 9.08492 12.75 9.49992C12.75 9.91492 12.415 10.2499 12 10.2499Z" fill="#292D32"/>
</svg>
