<svg width="24" height="24" viewBox="0 0 24 24" fill="none" xmlns="http://www.w3.org/2000/svg">
<rect width="24" height="24" rx="12" fill="#EEFFDE"/>
<path d="M17.002 9.7752C17.002 10.1052 16.732 10.3752 16.402 10.3752H7.60195C7.27195 10.3752 7.00195 10.1052 7.00195 9.7752V9.7702C7.00195 8.6252 7.92695 7.7002 9.07195 7.7002H14.927C16.072 7.7002 17.002 8.6302 17.002 9.7752Z" fill="#292D32"/>
<path d="M7.00195 11.725V14.23C7.00195 15.375 7.92695 16.3 9.07195 16.3H14.927C16.072 16.3 17.002 15.37 17.002 14.225V11.725C17.002 11.395 16.732 11.125 16.402 11.125H7.60195C7.27195 11.125 7.00195 11.395 7.00195 11.725ZM10.002 14.625H9.00195C8.79695 14.625 8.62695 14.455 8.62695 14.25C8.62695 14.045 8.79695 13.875 9.00195 13.875H10.002C10.207 13.875 10.377 14.045 10.377 14.25C10.377 14.455 10.207 14.625 10.002 14.625ZM13.252 14.625H11.252C11.047 14.625 10.877 14.455 10.877 14.25C10.877 14.045 11.047 13.875 11.252 13.875H13.252C13.457 13.875 13.627 14.045 13.627 14.25C13.627 14.455 13.457 14.625 13.252 14.625Z" fill="#292D32"/>
</svg>
